<?xml version="1.0" encoding="utf-8"?>
<!-- Generator: Adobe Illustrator 19.1.0, SVG Export Plug-In . SVG Version: 6.00 Build 0)  -->
<svg version="1.1" id="Layer_1" xmlns="http://www.w3.org/2000/svg" xmlns:xlink="http://www.w3.org/1999/xlink" x="0px" y="0px"
	 viewBox="0 0 693.3 62" style="enable-background:new 0 0 693.3 62;" xml:space="preserve">
<style type="text/css">
	.st0{fill:#FFFFFF;}
	.st1{fill-rule:evenodd;clip-rule:evenodd;fill:#FFFFFF;}
	.st2{fill-rule:evenodd;clip-rule:evenodd;fill:#EF4F39;}
</style>
<g>
	<g>
		<path class="st0" d="M17.1,28.4c-0.1,0.3-0.3,0.4-0.6,0.4c-0.2,0-0.5-0.1-0.8-0.3c-0.3-0.2-0.7-0.5-1.3-0.8
			c-0.5-0.3-1.2-0.6-1.9-0.8c-0.8-0.2-1.7-0.4-2.8-0.4c-1,0-1.9,0.1-2.7,0.4c-0.8,0.3-1.5,0.7-2.1,1.1c-0.6,0.5-1,1-1.3,1.7
			c-0.3,0.6-0.5,1.3-0.5,2c0,0.9,0.2,1.6,0.7,2.1c0.4,0.6,1,1.1,1.7,1.5c0.7,0.4,1.5,0.7,2.4,1c0.9,0.3,1.8,0.6,2.8,0.9
			c0.9,0.3,1.9,0.6,2.8,1c0.9,0.4,1.7,0.8,2.4,1.3c0.7,0.5,1.3,1.2,1.7,2c0.5,0.8,0.7,1.7,0.7,2.8c0,1.2-0.2,2.3-0.7,3.3
			c-0.4,1-1,1.9-1.9,2.7c-0.8,0.7-1.8,1.3-3,1.8c-1.2,0.5-2.6,0.7-4.1,0.7c-1.9,0-3.6-0.3-5-0.9c-1.4-0.6-2.7-1.4-3.7-2.4l0.6-0.9
			c0.1-0.2,0.2-0.3,0.3-0.3c0.1-0.1,0.3-0.1,0.5-0.1c0.3,0,0.5,0.2,0.9,0.5c0.3,0.3,0.8,0.6,1.4,0.9c0.5,0.3,1.2,0.6,2.1,0.9
			c0.8,0.3,1.8,0.5,3.1,0.5c1.2,0,2.2-0.2,3.1-0.5c0.9-0.3,1.6-0.8,2.2-1.3c0.6-0.5,1-1.2,1.3-1.9c0.3-0.8,0.4-1.5,0.4-2.4
			c0-0.9-0.2-1.7-0.7-2.3c-0.4-0.6-1-1.1-1.7-1.6c-0.7-0.4-1.5-0.8-2.4-1.1c-0.9-0.3-1.8-0.6-2.8-0.9c-0.9-0.3-1.9-0.6-2.8-1
			c-0.9-0.3-1.7-0.8-2.4-1.3c-0.7-0.5-1.3-1.2-1.7-1.9c-0.5-0.8-0.7-1.7-0.7-2.8c0-1,0.2-1.9,0.6-2.8c0.4-0.9,1-1.7,1.8-2.4
			c0.8-0.7,1.7-1.2,2.8-1.6c1.1-0.4,2.4-0.6,3.7-0.6c1.7,0,3.2,0.2,4.5,0.7c1.3,0.5,2.5,1.2,3.5,2.2L17.1,28.4z"/>
		<path class="st0" d="M33.9,24.5c2,0,3.7,0.3,5.3,1c1.5,0.7,2.8,1.6,3.9,2.8c1.1,1.2,1.9,2.7,2.4,4.4c0.6,1.7,0.9,3.7,0.9,5.8
			c0,2.1-0.3,4.1-0.9,5.8c-0.5,1.7-1.4,3.2-2.4,4.4c-1.1,1.2-2.4,2.2-3.9,2.8c-1.6,0.7-3.3,1-5.3,1c-2,0-3.7-0.3-5.3-1
			c-1.5-0.7-2.9-1.6-3.9-2.8c-1.1-1.2-1.9-2.7-2.4-4.4c-0.6-1.7-0.9-3.7-0.9-5.8c0-2.2,0.3-4.1,0.9-5.8c0.5-1.7,1.4-3.2,2.4-4.4
			c1.1-1.2,2.4-2.2,3.9-2.8C30.2,24.9,31.9,24.5,33.9,24.5z M33.9,50.6c1.6,0,3.1-0.3,4.3-0.8c1.2-0.6,2.2-1.4,3.1-2.4
			c0.8-1,1.4-2.3,1.8-3.8c0.4-1.5,0.6-3.1,0.6-4.9c0-1.8-0.2-3.5-0.6-5c-0.4-1.5-1-2.8-1.8-3.8c-0.8-1.1-1.8-1.9-3.1-2.4
			c-1.2-0.6-2.7-0.8-4.3-0.8c-1.6,0-3.1,0.3-4.3,0.8c-1.2,0.6-2.2,1.4-3.1,2.4c-0.8,1-1.4,2.3-1.8,3.8c-0.4,1.5-0.6,3.1-0.6,5
			c0,1.8,0.2,3.5,0.6,4.9c0.4,1.5,1,2.7,1.8,3.8c0.8,1.1,1.8,1.9,3.1,2.4C30.8,50.4,32.3,50.6,33.9,50.6z"/>
		<path class="st0" d="M69,28.6c-0.1,0.1-0.2,0.2-0.3,0.2c-0.1,0.1-0.2,0.1-0.4,0.1c-0.2,0-0.4-0.1-0.7-0.4
			c-0.3-0.3-0.7-0.5-1.3-0.8c-0.5-0.3-1.2-0.5-2-0.8c-0.8-0.3-1.8-0.4-2.9-0.4c-1.6,0-3,0.3-4.2,0.8c-1.2,0.6-2.2,1.4-3.1,2.4
			c-0.8,1-1.5,2.3-1.9,3.8c-0.4,1.5-0.7,3.1-0.7,5c0,1.9,0.2,3.6,0.7,5.1c0.5,1.5,1.1,2.7,1.9,3.8c0.8,1,1.8,1.8,3,2.3
			c1.2,0.5,2.5,0.8,3.9,0.8c1.3,0,2.4-0.1,3.3-0.5c0.9-0.3,1.6-0.6,2.2-1c0.6-0.4,1-0.7,1.4-1c0.3-0.3,0.6-0.5,0.8-0.5
			c0.2,0,0.4,0.1,0.6,0.3l0.7,0.9c-0.4,0.5-1,1.1-1.6,1.5c-0.6,0.5-1.4,0.9-2.2,1.3c-0.8,0.3-1.7,0.6-2.6,0.8
			c-0.9,0.2-1.9,0.3-2.9,0.3c-1.8,0-3.3-0.3-4.8-1c-1.4-0.6-2.7-1.5-3.7-2.7c-1-1.2-1.8-2.7-2.4-4.4c-0.6-1.7-0.9-3.7-0.9-5.9
			c0-2.1,0.3-4,0.8-5.7c0.6-1.7,1.4-3.2,2.4-4.5c1.1-1.2,2.3-2.2,3.9-2.9c1.5-0.7,3.3-1,5.3-1c1.8,0,3.4,0.3,4.7,0.8
			c1.4,0.6,2.6,1.3,3.6,2.3L69,28.6z"/>
		<path class="st0" d="M78.4,15.5c0,0.3-0.1,0.6-0.2,0.9c-0.1,0.3-0.3,0.5-0.5,0.7c-0.2,0.2-0.5,0.4-0.8,0.5
			c-0.3,0.1-0.6,0.2-0.9,0.2c-0.3,0-0.6-0.1-0.9-0.2c-0.3-0.1-0.6-0.3-0.8-0.5c-0.2-0.2-0.4-0.5-0.5-0.7c-0.1-0.3-0.2-0.6-0.2-0.9
			c0-0.3,0.1-0.6,0.2-0.9c0.1-0.3,0.3-0.6,0.5-0.8c0.2-0.2,0.5-0.4,0.8-0.5c0.3-0.1,0.6-0.2,0.9-0.2c0.3,0,0.6,0.1,0.9,0.2
			c0.3,0.1,0.6,0.3,0.8,0.5c0.2,0.2,0.4,0.5,0.5,0.8C78.3,14.9,78.4,15.2,78.4,15.5z M77.2,25v27.4h-2.6V25H77.2z"/>
		<path class="st0" d="M100,52.4c-0.5,0-0.9-0.3-1-0.8l-0.4-3.5c-0.7,0.8-1.5,1.4-2.2,2c-0.7,0.6-1.5,1.1-2.3,1.5
			c-0.8,0.4-1.7,0.7-2.6,0.9c-0.9,0.2-2,0.3-3.1,0.3c-0.9,0-1.8-0.1-2.7-0.4c-0.9-0.3-1.7-0.7-2.3-1.3c-0.7-0.5-1.2-1.3-1.6-2.2
			C81.2,48,81,47,81,45.7c0-1.1,0.3-2.2,1-3.2c0.7-1,1.7-1.9,3.1-2.6c1.4-0.7,3.2-1.3,5.4-1.8c2.2-0.4,4.9-0.7,8-0.8v-2.9
			c0-2.5-0.6-4.5-1.6-5.8c-1.1-1.4-2.7-2-4.8-2c-1.3,0-2.5,0.2-3.4,0.6c-0.9,0.4-1.7,0.8-2.4,1.2c-0.6,0.5-1.2,0.9-1.6,1.2
			c-0.4,0.4-0.7,0.5-1,0.5c-0.4,0-0.6-0.1-0.8-0.5l-0.5-0.8c1.4-1.4,2.9-2.5,4.5-3.3c1.6-0.7,3.4-1.1,5.4-1.1c1.5,0,2.7,0.2,3.9,0.7
			c1.1,0.5,2,1.1,2.7,2c0.7,0.9,1.3,1.9,1.6,3.2c0.4,1.2,0.5,2.6,0.5,4.1v17.8H100z M89,50.9c1.1,0,2-0.1,2.9-0.4
			c0.9-0.2,1.7-0.6,2.5-1c0.8-0.4,1.5-0.9,2.1-1.5c0.7-0.6,1.3-1.2,2-1.8v-7.1c-2.6,0.1-4.9,0.3-6.7,0.6c-1.9,0.3-3.4,0.8-4.7,1.3
			c-1.2,0.5-2.1,1.2-2.7,1.9c-0.6,0.8-0.9,1.6-0.9,2.6c0,0.9,0.1,1.7,0.4,2.4c0.3,0.7,0.7,1.2,1.2,1.7c0.5,0.4,1.1,0.7,1.7,1
			C87.6,50.8,88.3,50.9,89,50.9z"/>
		<path class="st0" d="M109.4,12.3v40h-2.6v-40H109.4z"/>
		<path class="st0" d="M119.1,12.3v40h-2.6v-40H119.1z"/>
		<path class="st0" d="M134.8,61.2c-0.1,0.3-0.3,0.5-0.4,0.6c-0.2,0.2-0.4,0.3-0.8,0.3h-1.9l4.8-10.7L125,25h2.2
			c0.3,0,0.5,0.1,0.6,0.2c0.2,0.1,0.3,0.3,0.3,0.4l9.2,21.3c0.1,0.3,0.2,0.6,0.3,0.9c0.1,0.3,0.2,0.6,0.2,0.8
			c0.1-0.3,0.2-0.6,0.3-0.8c0.1-0.3,0.2-0.6,0.3-0.9l9.1-21.3c0.1-0.2,0.2-0.4,0.4-0.5c0.2-0.1,0.3-0.2,0.6-0.2h2L134.8,61.2z"/>
		<path class="st0" d="M165.2,12.3v40h-2.6v-40H165.2z"/>
		<path class="st0" d="M176.1,15.5c0,0.3-0.1,0.6-0.2,0.9c-0.2,0.3-0.3,0.5-0.6,0.7c-0.2,0.2-0.5,0.4-0.8,0.5
			c-0.3,0.1-0.6,0.2-0.9,0.2c-0.3,0-0.6-0.1-0.9-0.2c-0.3-0.1-0.5-0.3-0.8-0.5c-0.2-0.2-0.4-0.5-0.5-0.7c-0.1-0.3-0.2-0.6-0.2-0.9
			c0-0.3,0.1-0.6,0.2-0.9c0.1-0.3,0.3-0.6,0.5-0.8c0.2-0.2,0.5-0.4,0.8-0.5c0.3-0.1,0.6-0.2,0.9-0.2c0.3,0,0.6,0.1,0.9,0.2
			c0.3,0.1,0.5,0.3,0.8,0.5c0.2,0.2,0.4,0.5,0.6,0.8C176,14.9,176.1,15.2,176.1,15.5z M175,25v27.4h-2.6V25H175z"/>
		<path class="st0" d="M182.4,52.4V25h1.4c0.5,0,0.8,0.2,0.8,0.7l0.2,4.1c1.3-1.6,2.7-2.8,4.4-3.8c1.7-1,3.5-1.4,5.6-1.4
			c1.5,0,2.8,0.2,4,0.7c1.1,0.5,2.1,1.1,2.9,2.1c0.7,0.9,1.3,2,1.7,3.3c0.4,1.2,0.6,2.7,0.6,4.3v17.5h-2.6V34.8c0-2.5-0.6-4.6-1.8-6
			c-1.2-1.5-3-2.2-5.4-2.2c-1.8,0-3.5,0.5-5,1.4c-1.6,0.9-2.9,2.2-4.1,3.8v20.5H182.4z"/>
		<path class="st0" d="M212.9,12.3v24.4h1.3c0.3,0,0.5,0,0.7-0.1c0.2-0.1,0.5-0.3,0.7-0.5l11-10.4c0.2-0.2,0.4-0.4,0.6-0.5
			c0.2-0.1,0.5-0.2,0.8-0.2h2.3l-12.1,11.5c-0.2,0.2-0.4,0.4-0.5,0.5c-0.2,0.1-0.4,0.3-0.5,0.4c0.3,0.1,0.5,0.3,0.7,0.5
			c0.2,0.2,0.4,0.4,0.6,0.7l12.7,13.8H229c-0.2,0-0.5,0-0.7-0.1c-0.2-0.1-0.4-0.3-0.6-0.5l-11.5-12.3c-0.3-0.3-0.6-0.6-0.9-0.7
			c-0.2-0.1-0.7-0.2-1.2-0.2h-1.2v13.8h-2.6v-40H212.9z"/>
		<path class="st0" d="M242.4,24.5c1.6,0,3,0.3,4.3,0.8c1.3,0.5,2.4,1.3,3.4,2.3c1,1,1.7,2.3,2.3,3.8c0.5,1.5,0.8,3.2,0.8,5.1
			c0,0.4,0,0.7-0.2,0.8c-0.1,0.1-0.3,0.2-0.6,0.2h-19.8v0.5c0,2.1,0.2,3.8,0.7,5.4c0.5,1.6,1.2,2.9,2,3.9c0.9,1.1,1.9,1.9,3.2,2.4
			c1.2,0.5,2.6,0.8,4.2,0.8c1.4,0,2.6-0.2,3.6-0.4c1-0.3,1.8-0.7,2.5-1c0.7-0.4,1.2-0.7,1.6-1c0.4-0.3,0.7-0.5,0.9-0.5
			c0.2,0,0.4,0.1,0.5,0.3l0.7,0.9c-0.4,0.5-1,1.1-1.7,1.5c-0.7,0.5-1.5,0.9-2.4,1.2c-0.9,0.3-1.8,0.6-2.8,0.8c-1,0.2-2,0.3-3.1,0.3
			c-1.9,0-3.6-0.3-5.1-1c-1.6-0.7-2.9-1.6-4-2.8c-1.1-1.3-2-2.8-2.6-4.6c-0.6-1.8-0.9-3.9-0.9-6.2c0-2,0.3-3.8,0.8-5.4
			c0.6-1.7,1.4-3.1,2.4-4.3c1.1-1.2,2.3-2.1,3.9-2.8C238.7,24.9,240.5,24.5,242.4,24.5z M242.4,26.5c-1.4,0-2.7,0.2-3.8,0.7
			c-1.1,0.4-2.1,1.1-2.9,1.9c-0.8,0.8-1.5,1.8-2,3c-0.5,1.1-0.8,2.4-1,3.9h18c0-1.5-0.2-2.8-0.6-3.9c-0.4-1.2-1-2.2-1.7-3
			c-0.7-0.8-1.6-1.4-2.6-1.9C244.8,26.7,243.7,26.5,242.4,26.5z"/>
		<path class="st0" d="M277.4,52.4c-0.5,0-0.7-0.3-0.8-0.7l-0.3-4.3c-1.2,1.7-2.6,3-4.2,3.9c-1.6,1-3.4,1.5-5.5,1.5
			c-3.4,0-6-1.2-7.9-3.5c-1.9-2.3-2.8-5.8-2.8-10.5c0-2,0.3-3.9,0.8-5.6c0.5-1.7,1.3-3.2,2.3-4.5c1-1.3,2.3-2.3,3.7-3
			c1.5-0.7,3.2-1.1,5.1-1.1c1.9,0,3.5,0.3,4.8,1c1.4,0.7,2.5,1.7,3.5,3V12.3h2.6v40H277.4z M267.4,50.6c1.8,0,3.5-0.5,4.9-1.4
			c1.5-0.9,2.8-2.3,3.9-3.9V30.8c-1.1-1.5-2.2-2.6-3.5-3.3c-1.3-0.7-2.7-1-4.3-1c-1.6,0-3,0.3-4.2,0.9c-1.2,0.6-2.2,1.4-3,2.5
			c-0.8,1.1-1.4,2.4-1.8,3.8c-0.4,1.5-0.6,3.2-0.6,4.9c0,4.1,0.7,7.1,2.3,9C262.4,49.6,264.6,50.6,267.4,50.6z"/>
		<path class="st0" d="M297.9,52.4v-40h2.6v17.4c1.2-1.6,2.6-2.9,4.2-3.8c1.6-0.9,3.4-1.4,5.4-1.4c3.4,0,6,1.1,7.8,3.5
			c1.9,2.3,2.8,5.8,2.8,10.5c0,2-0.3,3.9-0.8,5.6c-0.5,1.7-1.3,3.2-2.3,4.5c-1,1.3-2.2,2.3-3.7,3c-1.5,0.7-3.2,1.1-5.1,1.1
			c-1.9,0-3.5-0.4-4.9-1.1c-1.4-0.7-2.6-1.9-3.6-3.3l-0.2,3.4c-0.1,0.4-0.3,0.7-0.8,0.7H297.9z M309.3,26.6c-1.8,0-3.4,0.5-4.9,1.4
			c-1.5,0.9-2.8,2.2-3.9,3.9v14.4c1,1.6,2.2,2.7,3.5,3.3c1.3,0.6,2.7,0.9,4.4,0.9c1.6,0,3-0.3,4.2-0.9c1.2-0.6,2.2-1.4,3-2.5
			c0.8-1.1,1.4-2.4,1.9-3.8c0.4-1.5,0.6-3.2,0.6-4.9c0-4.1-0.8-7.1-2.3-9C314.3,27.6,312.2,26.6,309.3,26.6z"/>
		<path class="st0" d="M331.8,61.2c-0.1,0.3-0.2,0.5-0.4,0.6c-0.2,0.2-0.4,0.3-0.8,0.3h-1.9l4.8-10.7L321.9,25h2.2
			c0.3,0,0.5,0.1,0.6,0.2c0.2,0.1,0.3,0.3,0.3,0.4l9.2,21.3c0.1,0.3,0.2,0.6,0.3,0.9c0.1,0.3,0.2,0.6,0.2,0.8
			c0.1-0.3,0.2-0.6,0.3-0.8c0.1-0.3,0.2-0.6,0.3-0.9l9.1-21.3c0.1-0.2,0.2-0.4,0.4-0.5c0.2-0.1,0.3-0.2,0.5-0.2h2L331.8,61.2z"/>
	</g>
	<g>
		<g>
			<path class="st1" d="M363.8,56.4h6.4V26.9h8.5V21h-8.4v-6.8c0-4.9,3.5-8,8.1-8c1.3,0,2.4,0.1,3.6,0.7l0.7-6
				c-1.8-0.4-3.3-0.5-4.7-0.5c-8.3,0-14.1,4.6-14.1,14V56.4z"/>
			<path class="st1" d="M384.6,29.5c2.3-1.9,4.7-4,9.6-4c5.4,0,8,3.8,8,7.4v1.5h-4.7c-10.2,0-18.5,3.1-18.5,12.2
				c0,6.8,5.4,10.6,11.6,10.6c5.1,0,8.9-1.7,11.7-6.3h0.2c0,1.8,0.1,3.6,0.2,5.4h5.6c-0.2-1.9-0.3-4-0.3-6.4v-18
				c0-6.1-4.1-11.8-14-11.8c-4.7,0-9.8,1.7-13.3,5.2L384.6,29.5z M402.1,39.4v2.2c0,4.8-2.5,10.3-9.5,10.3c-4.4,0-7.2-1.7-7.2-5.7
				c0-5.7,7.4-6.8,13.4-6.8H402.1z"/>
			<path class="st1" d="M437.3,26c-2.4-4.2-7-5.8-11.5-5.8c-6.3,0-12.8,3.5-12.8,10.9c0,6.8,4.8,8.7,10.3,10.1
				c2.8,0.7,8.1,1.4,8.1,5.4c0,3.1-3.5,4.5-6.8,4.5c-3.7,0-6.1-2-8.2-4.2l-4.8,4.2c3.3,4.8,7.4,6.3,12.9,6.3
				c6.7,0,13.6-3.1,13.6-11.1c0-6.6-4.2-8.9-9.7-10.3c-2.8-0.7-8.6-1.2-8.6-5.5c0-2.5,2.6-4,5.6-4c3.2,0,5.4,1.6,6.9,3.5L437.3,26z"
				/>
			<path class="st1" d="M458.4,21h-9.1v-9.9h-6.4v34.1c0,5.7,0.2,12,10,12c1.3,0,4.2-0.3,5.7-1.2V50c-1.3,0.8-3,1-4.5,1
				c-4.8,0-4.8-4.2-4.8-8.1v-16h9.1V21z"/>
			<path class="st1" d="M467.3,29.5c2.3-1.9,4.7-4,9.6-4c5.4,0,8,3.8,8,7.4v1.5h-4.7c-10.2,0-18.5,3.1-18.5,12.2
				c0,6.8,5.4,10.6,11.6,10.6c5.1,0,8.9-1.7,11.8-6.3h0.1c0,1.8,0.1,3.6,0.2,5.4h5.7c-0.2-1.9-0.3-4-0.3-6.4v-18
				c0-6.1-4.1-11.8-14-11.8c-4.7,0-9.8,1.7-13.3,5.2L467.3,29.5z M484.9,39.4v2.2c0,4.8-2.5,10.3-9.6,10.3c-4.4,0-7.2-1.7-7.2-5.7
				c0-5.7,7.4-6.8,13.4-6.8H484.9z"/>
			<path class="st1" d="M525,25.8c-3.3-3.8-8-5.6-12.9-5.6c-10.5,0-17.6,7.7-17.6,18.6c0,10.9,7.2,18.4,17.6,18.4
				c4.9,0,9.4-1.6,12.7-5.5l-4.5-4.8c-2.1,2.6-4.6,4-8.1,4c-6.6,0-10.8-5.4-10.8-12c0-6.6,3.6-12.5,10.5-12.5c3.5,0,6,1.3,8.4,3.9
				L525,25.8z"/>
			<path class="st1" d="M532.2,29.5c2.3-1.9,4.7-4,9.5-4c5.4,0,8,3.8,8,7.4v1.5h-4.7c-10.2,0-18.5,3.1-18.5,12.2
				c0,6.8,5.4,10.6,11.6,10.6c5.1,0,8.9-1.7,11.8-6.3h0.1c0,1.8,0.1,3.6,0.2,5.4h5.6c-0.2-1.9-0.3-4-0.3-6.4v-18
				c0-6.1-4.1-11.8-14-11.8c-4.7,0-9.8,1.7-13.3,5.2L532.2,29.5z M549.7,39.4v2.2c0,4.8-2.5,10.3-9.6,10.3c-4.4,0-7.2-1.7-7.2-5.7
				c0-5.7,7.4-6.8,13.4-6.8H549.7z"/>
			<path class="st1" d="M583.9,26c-2.4-4.2-7-5.8-11.5-5.8c-6.3,0-12.7,3.5-12.7,10.9c0,6.8,4.8,8.7,10.3,10.1
				c2.8,0.7,8.1,1.4,8.1,5.4c0,3.1-3.6,4.5-6.8,4.5c-3.7,0-6.1-2-8.2-4.2l-4.8,4.2c3.3,4.8,7.4,6.3,13,6.3c6.6,0,13.6-3.1,13.6-11.1
				c0-6.6-4.3-8.9-9.8-10.3c-2.8-0.7-8.6-1.2-8.6-5.5c0-2.5,2.6-4,5.6-4c3.2,0,5.4,1.6,6.9,3.5L583.9,26z"/>
			<path class="st1" d="M589.6,56.4h6.4V38.2c0-8.2,4-11.8,9.3-11.8c4,0,7.7,2.5,7.7,9.1v20.9h6.4V33.6c0-9.4-5.7-13.5-12.2-13.5
				c-5.2,0-9.4,2.6-11.1,6.3H596V0h-6.4V56.4z"/>
		</g>
		<path class="st2" d="M672.9,0.2c-5.7,0-10.9,2.4-14.6,6.1c-3.7-3.8-8.9-6.1-14.6-6.1c-11.3,0-20.4,9.1-20.4,20.4
			c0,17.2,35.1,35.8,35.1,35.8s34.7-18.5,34.7-35.8C693.3,9.4,684.1,0.2,672.9,0.2z M667,37.5c-0.5,1.1-1.2,2-2.2,2.7
			c-1,0.7-2.1,1.3-3.4,1.6c-0.3,0.1-0.7,0.2-1.1,0.3v1c0,0.2-0.1,0.4-0.1,0.5c-0.1,0.1-0.2,0.2-0.5,0.3c-0.2,0.1-0.5,0.2-0.9,0.2
			c-0.4,0-0.8,0-1.4,0c-1,0-1.8-0.1-2.2-0.3c-0.4-0.2-0.6-0.4-0.6-0.8v-0.9c-1.1-0.2-1.8-0.3-2.5-0.5c-0.7-0.2-1.2-0.5-1.6-0.7
			c-0.5-0.2-0.8-0.5-1-0.6c-0.2-0.2-0.4-0.5-0.5-0.9c-0.1-0.4-0.2-1-0.2-1.9c0-0.5,0-0.9,0.1-1.3c0-0.3,0.1-0.6,0.2-0.8
			c0.1-0.2,0.2-0.3,0.3-0.4c0.1-0.1,0.3-0.1,0.5-0.1c0.2,0,0.5,0.1,0.9,0.4c0.4,0.2,0.9,0.5,1.5,0.7c0.6,0.3,1.3,0.5,2.1,0.8
			c0.8,0.2,1.7,0.4,2.7,0.4c0.6,0,1.2-0.1,1.7-0.2c0.5-0.1,0.9-0.3,1.3-0.6c0.4-0.2,0.6-0.5,0.9-0.9c0.2-0.4,0.3-0.8,0.3-1.3
			c0-0.6-0.2-1-0.5-1.4c-0.3-0.4-0.8-0.8-1.4-1.1c-0.6-0.3-1.2-0.6-1.9-0.8c-0.7-0.3-1.4-0.6-2.2-0.8c-0.7-0.3-1.5-0.7-2.2-1.1
			c-0.7-0.4-1.3-0.9-1.9-1.5c-0.6-0.6-1-1.3-1.4-2.1c-0.3-0.9-0.5-1.9-0.5-3c0-1.2,0.2-2.3,0.7-3.3c0.5-1,1.1-1.8,2-2.6
			c0.8-0.6,1.8-1.2,3-1.5v-1.6c0-0.3,0.2-0.6,0.6-0.8c0.4-0.2,1.2-0.3,2.2-0.3c0.5,0,1,0,1.4,0c0.4,0.1,0.7,0.1,0.9,0.2
			c0.2,0.1,0.4,0.2,0.5,0.3c0.1,0.1,0.1,0.3,0.1,0.5v0.9c0.4,0,0.7,0.1,1.1,0.1c0.7,0.1,1.4,0.3,2,0.4c0.6,0.2,1.1,0.4,1.5,0.5
			c0.4,0.2,0.7,0.3,0.9,0.5c0.2,0.1,0.3,0.2,0.4,0.4c0.1,0.1,0.1,0.3,0.2,0.5c0,0.2,0.1,0.4,0.1,0.8c0,0.2,0.1,0.6,0.1,1
			c0,0.5,0,0.9-0.1,1.2c0,0.3-0.1,0.6-0.1,0.8c0,0.2-0.1,0.3-0.3,0.4c-0.1,0.1-0.2,0.1-0.4,0.1c-0.2,0-0.4-0.1-0.8-0.3
			c-0.3-0.2-0.8-0.4-1.3-0.6c-0.5-0.2-1.1-0.4-1.8-0.6c-0.7-0.2-1.5-0.3-2.3-0.3c-0.6,0-1.2,0.1-1.7,0.2c-0.5,0.1-0.9,0.3-1.1,0.6
			c-0.3,0.2-0.5,0.5-0.7,0.8c-0.1,0.3-0.2,0.7-0.2,1c0,0.6,0.2,1.1,0.5,1.5c0.4,0.4,0.8,0.7,1.4,1c0.6,0.3,1.2,0.6,2,0.8
			c0.7,0.3,1.5,0.6,2.2,0.9c0.8,0.3,1.5,0.7,2.2,1.1c0.8,0.4,1.4,0.9,2,1.5c0.6,0.6,1,1.3,1.4,2.2c0.4,0.8,0.5,1.8,0.5,2.9
			C667.8,35.2,667.6,36.5,667,37.5z"/>
	</g>
</g>
</svg>
