<?xml version="1.0" encoding="utf-8"?>
<!-- Generator: Adobe Illustrator 19.1.0, SVG Export Plug-In . SVG Version: 6.00 Build 0)  -->
<svg version="1.1" id="Layer_1" xmlns="http://www.w3.org/2000/svg" xmlns:xlink="http://www.w3.org/1999/xlink" x="0px" y="0px"
	 viewBox="0 0 240.7 240.7" style="enable-background:new 0 0 240.7 240.7;" xml:space="preserve">
<style type="text/css">
	.st0{fill:#3B5799;stroke:#FFFFFF;stroke-width:6;stroke-miterlimit:10;}
	.st1{fill:#FFFFFF;}
</style>
<g>
	<path class="st0" d="M237.7,120.3c0,64.8-52.5,117.3-117.3,117.3S3,185.1,3,120.3C3,55.5,55.5,3,120.3,3S237.7,55.5,237.7,120.3"/>
	<path class="st1" d="M90.6,99.5h12.7v-5.8v-5.6v-0.9c0-5.4,0.1-13.9,4.1-19.1c4.2-5.5,9.9-9.3,19.7-9.3c16,0,22.8,2.3,22.8,2.3
		l-3.2,18.9c0,0-5.3-1.5-10.2-1.5c-4.9,0-9.4,1.8-9.4,6.7v2v6.6v5.8h20.3l-1.4,18.4h-18.9v64h-23.8v-64H90.6V99.5z"/>
</g>
</svg>
