<?xml version="1.0" encoding="utf-8"?>
<!-- Generator: Adobe Illustrator 19.1.0, SVG Export Plug-In . SVG Version: 6.00 Build 0)  -->
<svg version="1.1" id="Layer_1" xmlns="http://www.w3.org/2000/svg" xmlns:xlink="http://www.w3.org/1999/xlink" x="0px" y="0px"
	 viewBox="0 0 240.7 240.7" style="enable-background:new 0 0 240.7 240.7;" xml:space="preserve">
<style type="text/css">
	.st0{clip-path:url(#SVGID_2_);fill:url(#SVGID_3_);}
	.st1{fill:#FFFFFF;}
</style>
<g>
	<g>
		<defs>
			<path id="SVGID_1_" d="M3,120.3c0,64.8,52.5,117.3,117.3,117.3c64.8,0,117.3-52.5,117.3-117.3S185.1,3,120.3,3
				C55.5,3,3,55.5,3,120.3"/>
		</defs>
		<clipPath id="SVGID_2_">
			<use xlink:href="#SVGID_1_"  style="overflow:visible;"/>
		</clipPath>
		
			<linearGradient id="SVGID_3_" gradientUnits="userSpaceOnUse" x1="-4263.1445" y1="3426.0212" x2="-4260.2935" y2="3426.0212" gradientTransform="matrix(82.3057 0 0 -82.3057 350884.0625 282101.4062)">
			<stop  offset="0" style="stop-color:#D04428"/>
			<stop  offset="1" style="stop-color:#D8522F"/>
		</linearGradient>
		<rect x="3" y="3" class="st0" width="234.7" height="234.7"/>
		<use xlink:href="#SVGID_1_"  style="overflow:visible;fill:none;stroke:#FFFFFF;stroke-width:6;stroke-miterlimit:10;"/>
	</g>
	<g>
		<polygon class="st1" points="156.7,67.1 156.7,88.4 135.3,88.4 135.3,93.8 156.7,93.8 156.7,115.1 162,115.1 162,93.8 183.4,93.8 
			183.4,88.4 162,88.4 162,67.1 		"/>
		<path class="st1" d="M69.2,150.7c0-9.4,11.3-17.3,24-17.2c3,0,5.7,0.5,8.2,1.3c6.9,4.8,11.8,7.5,13.2,12.9
			c0.3,1.1,0.4,2.2,0.4,3.4c0,9.6-6.2,17.2-24,17.2C78.3,168.3,69.2,160.3,69.2,150.7 M94.3,111.9c-8.5-0.3-16.6-9.5-18-20.7
			C74.8,80,80.5,71.5,89,71.7c8.5,0.3,16.6,9.2,18.1,20.4c1.4,11-4.1,19.8-12.4,19.8C94.6,111.9,94.4,111.9,94.3,111.9 M93.1,67.1
			c-14.8,0-28.7,11.2-28.7,24.2c0,13.3,10.1,24,25.1,24c1,0,2.1,0,3.1-0.1c-1,1.9-1.7,4-1.7,6.2c0,3.7,2,6.7,4.5,9.1
			c-1.9,0-3.7,0.1-5.7,0.1c-18.3,0-32.4,11.7-32.4,23.8c0,11.9,15.5,19.4,33.8,19.4c20.9,0,32.4-11.9,32.4-23.8
			c0-9.5-2.8-15.3-11.5-21.4c-3-2.1-8.7-7.2-8.7-10.3c0-3.5,1-5.3,6.3-9.4c5.5-4.3,9.3-10.3,9.3-17.2c0-8.3-3.7-16.4-10.6-19.1h10.5
			l7.4-5.3H93.1z"/>
	</g>
</g>
</svg>
