<?xml version="1.0" encoding="utf-8"?>
<!-- Generator: Adobe Illustrator 19.1.0, SVG Export Plug-In . SVG Version: 6.00 Build 0)  -->
<svg version="1.1" id="Layer_1" xmlns="http://www.w3.org/2000/svg" xmlns:xlink="http://www.w3.org/1999/xlink" x="0px" y="0px"
	 viewBox="0 0 240.7 240.7" style="enable-background:new 0 0 240.7 240.7;" xml:space="preserve">
<style type="text/css">
	.st0{fill:#51AB39;stroke:#FFFFFF;stroke-width:6;stroke-miterlimit:10;}
	.st1{fill:#FFFFFF;}
</style>
<g>
	<path class="st0" d="M237.7,120.3c0,64.8-52.5,117.3-117.3,117.3S3,185.1,3,120.3C3,55.5,55.5,3,120.3,3S237.7,55.5,237.7,120.3"/>
	<path class="st1" d="M120.3,188.5c0-4.9-0.2-9.2,0.1-13.5c0.3-4.3-1.7-5.5-5.6-5.9c-26.6-2.9-46.4-20.9-52-47.1
		c-6.3-29.1,12.9-59.7,42.6-67.8c29-7.9,60.8,8.4,70.2,36.4c8.6,25.7,1.6,48.4-14.8,68.7c-9.8,12.2-22.4,21-36.4,28.1
		C123.3,187.8,122.2,187.9,120.3,188.5 M135.7,136.5c10-1.8,15.4-7.8,15.6-17.1c0.1-6.8,0-13.7,0.2-20.5c0.1-3.6-1.2-5.3-5-5.2
		c-5.3,0.1-10.7,0.1-16,0c-3.4-0.1-4.9,1.4-4.9,4.7c0.1,5.3,0.1,10.7,0,16c-0.1,4,1.9,5.4,5.7,5.2c3.7-0.2,7.4,0,11.1,0
		c0.3,0.6,0.6,1.3,0.9,1.9c-1.6,2-2.9,4.8-5,5.9C134.2,129.6,133.9,132.3,135.7,136.5 M99.4,136.3c9.1-1.1,15-7,15.3-15.5
		c0.3-7.4,0.1-14.8,0.3-22.2c0.1-3.3-1-5-4.5-5c-5.5,0.1-11,0.1-16.5,0c-3.1,0-4.5,1.3-4.5,4.4c0.1,5.5,0.1,11,0,16.5
		c-0.1,3.7,1.8,5,5.3,4.9c3.7-0.1,7.5,0,11.3,0c0.3,0.5,0.7,1,1,1.5c-1.5,2.1-2.6,5-4.6,6.1C98,129.4,97.7,132.3,99.4,136.3"/>
</g>
</svg>
