<?xml version="1.0" encoding="utf-8"?>
<!-- Generator: Adobe Illustrator 19.1.0, SVG Export Plug-In . SVG Version: 6.00 Build 0)  -->
<svg version="1.1" id="Layer_1" xmlns="http://www.w3.org/2000/svg" xmlns:xlink="http://www.w3.org/1999/xlink" x="0px" y="0px"
	 viewBox="0 0 240.7 240.7" style="enable-background:new 0 0 240.7 240.7;" xml:space="preserve">
<style type="text/css">
	.st0{filter:url(#Adobe_OpacityMaskFilter);}
	.st1{fill:#3DAE49;}
	.st2{opacity:0.3;mask:url(#SVGID_1_);}
	.st3{opacity:0;fill:#3DAE49;}
	.st4{opacity:3.225800e-02;fill:#3DAE49;}
	.st5{opacity:6.451600e-02;fill:#3DAE49;}
	.st6{opacity:9.677400e-02;fill:#3DAE49;}
	.st7{opacity:0.129;fill:#3DAE49;}
	.st8{opacity:0.1613;fill:#3DAE49;}
	.st9{opacity:0.1935;fill:#3DAE49;}
	.st10{opacity:0.2258;fill:#3DAE49;}
	.st11{opacity:0.2581;fill:#3DAE49;}
	.st12{opacity:0.2903;fill:#3DAE49;}
	.st13{opacity:0.3226;fill:#3DAE49;}
	.st14{opacity:0.3548;fill:#3DAE49;}
	.st15{opacity:0.3871;fill:#3DAE49;}
	.st16{opacity:0.4194;fill:#3DAE49;}
	.st17{opacity:0.4516;fill:#3DAE49;}
	.st18{opacity:0.4839;fill:#3DAE49;}
	.st19{opacity:0.5161;fill:#3DAE49;}
	.st20{opacity:0.5484;fill:#3DAE49;}
	.st21{opacity:0.5806;fill:#3DAE49;}
	.st22{opacity:0.6129;fill:#3DAE49;}
	.st23{opacity:0.6452;fill:#3DAE49;}
	.st24{opacity:0.6774;fill:#3DAE49;}
	.st25{opacity:0.7097;fill:#3DAE49;}
	.st26{opacity:0.7419;fill:#3DAE49;}
	.st27{opacity:0.7742;fill:#3DAE49;}
	.st28{opacity:0.8065;fill:#3DAE49;}
	.st29{opacity:0.8387;fill:#3DAE49;}
	.st30{opacity:0.871;fill:#3DAE49;}
	.st31{opacity:0.9032;fill:#3DAE49;}
	.st32{opacity:0.9355;fill:#3DAE49;}
	.st33{opacity:0.9677;fill:#3DAE49;}
	.st34{filter:url(#Adobe_OpacityMaskFilter_1_);}
	.st35{mask:url(#SVGID_2_);}
	.st36{opacity:0;}
	.st37{fill:#357842;}
	.st38{opacity:3.225800e-02;fill:#357842;}
	.st39{opacity:6.451600e-02;fill:#357842;}
	.st40{opacity:9.677400e-02;fill:#357842;}
	.st41{opacity:0.129;fill:#357842;}
	.st42{opacity:0.1613;fill:#357842;}
	.st43{opacity:0.1935;fill:#357842;}
	.st44{opacity:0.2258;fill:#357842;}
	.st45{opacity:0.2581;fill:#357842;}
	.st46{opacity:0.2903;fill:#357842;}
	.st47{opacity:0.3226;fill:#357842;}
	.st48{opacity:0.3548;fill:#357842;}
	.st49{opacity:0.3871;fill:#357842;}
	.st50{opacity:0.4194;fill:#357842;}
	.st51{opacity:0.4516;fill:#357842;}
	.st52{opacity:0.4839;fill:#357842;}
	.st53{opacity:0.5161;fill:#357842;}
	.st54{opacity:0.5484;fill:#357842;}
	.st55{opacity:0.5806;fill:#357842;}
	.st56{opacity:0.6129;fill:#357842;}
	.st57{opacity:0.6452;fill:#357842;}
	.st58{opacity:0.6774;fill:#357842;}
	.st59{opacity:0.7097;fill:#357842;}
	.st60{opacity:0.7419;fill:#357842;}
	.st61{opacity:0.7742;fill:#357842;}
	.st62{opacity:0.8065;fill:#357842;}
	.st63{opacity:0.8387;fill:#357842;}
	.st64{opacity:0.871;fill:#357842;}
	.st65{opacity:0.9032;fill:#357842;}
	.st66{opacity:0.9355;fill:#357842;}
	.st67{opacity:0.9677;fill:#357842;}
	.st68{fill:#50B748;stroke:#FFFFFF;stroke-width:6;stroke-miterlimit:10;}
	.st69{fill:#FFFFFF;}
	.st70{opacity:0.4;}
	.st71{fill:#4EB648;}
	.st72{opacity:0.8;}
	.st73{opacity:0.9677;fill:#4EB648;}
	.st74{opacity:0.9355;fill:#4EB648;}
	.st75{opacity:0.9032;fill:#4EB648;}
	.st76{opacity:0.871;fill:#4EB648;}
	.st77{opacity:0.8387;fill:#4EB648;}
	.st78{opacity:0.8065;fill:#4EB648;}
	.st79{opacity:0.7742;fill:#4EB648;}
	.st80{opacity:0.7419;fill:#4EB648;}
	.st81{opacity:0.7097;fill:#4EB648;}
	.st82{opacity:0.6774;fill:#4EB648;}
	.st83{opacity:0.6452;fill:#4EB648;}
	.st84{opacity:0.6129;fill:#4EB648;}
	.st85{opacity:0.5806;fill:#4EB648;}
	.st86{opacity:0.5484;fill:#4EB648;}
	.st87{opacity:0.5161;fill:#4EB648;}
	.st88{opacity:0.4839;fill:#4EB648;}
	.st89{opacity:0.4516;fill:#4EB648;}
	.st90{opacity:0.4194;fill:#4EB648;}
	.st91{opacity:0.3871;fill:#4EB648;}
	.st92{opacity:0.3548;fill:#4EB648;}
	.st93{opacity:0.3226;fill:#4EB648;}
	.st94{opacity:0.2903;fill:#4EB648;}
	.st95{opacity:0.2581;fill:#4EB648;}
	.st96{opacity:0.2258;fill:#4EB648;}
	.st97{opacity:0.1935;fill:#4EB648;}
	.st98{opacity:0.1613;fill:#4EB648;}
	.st99{opacity:0.129;fill:#4EB648;}
	.st100{opacity:9.677419e-02;fill:#4EB648;}
	.st101{opacity:6.451613e-02;fill:#4EB648;}
	.st102{opacity:3.225806e-02;fill:#4EB648;}
	.st103{opacity:0;fill:none;}
</style>
<symbol  id="shadow" viewBox="-65.2 -62.3 130.5 124.6">
	<defs>
		<filter id="Adobe_OpacityMaskFilter" filterUnits="userSpaceOnUse" x="-65.2" y="-62.3" width="130.5" height="124.6">
			<feColorMatrix  type="matrix" values="1 0 0 0 0  0 1 0 0 0  0 0 1 0 0  0 0 0 1 0"/>
		</filter>
	</defs>
	<mask maskUnits="userSpaceOnUse" x="-65.2" y="-62.3" width="130.5" height="124.6" id="SVGID_1_">
		<g class="st0">
			<path class="st1" d="M-85.7,86.8V-84.9H85.9V86.8H-85.7z M48.6-22.1C35.6-37.1,6.6-55.3,0-58c-6.6-2.8-5.6,1.8-5.4,3.3
				c0.2,0.9,0.9,5.3,0.9,5.3c0.2,1.6,0.4,4-0.2,5.6c-0.7,1.7-3.4,2.6-5.4,3c-29.7,3.9-51.7,24.7-51.7,49.5
				c0,27.7,27.7,50.2,61.8,50.2c34.1,0,61.8-22.5,61.8-50.2C61.8-2.3,57.5-12.3,48.6-22.1L48.6-22.1z"/>
		</g>
	</mask>
	<g class="st2">
		<path class="st3" d="M-3.4-62.3c-2.2,0-3.6,1-4.3,1.9c-1.8,2.1-1.3,4.9-1.1,6.2l0,0.1c0.1,0.9,0.8,4.7,0.9,5.2
			c0.3,2.3,0.1,3.3,0.1,3.7c-0.3,0.2-1.1,0.7-2.9,1.1c-31.6,4.2-54.5,26.4-54.5,52.9C-65.2,38.3-36,62.3,0,62.3s65.2-24,65.2-53.6
			c0-11.8-4.6-22.7-14.1-33.1c0,0,0,0,0,0C38-39.5,8.6-58.1,1.3-61.2C-0.5-61.9-2.1-62.3-3.4-62.3z"/>
		<path class="st4" d="M0,62.2c35.9,0,65.1-24,65.1-53.5c0-11.8-4.6-22.6-14-33c0,0,0,0,0,0C38-39.4,8.7-57.9,1.4-61
			c-1.8-0.8-3.4-1.2-4.7-1.2c-2.2,0-3.6,0.9-4.3,1.8c-1.1,1.3-1.3,2.8-1.3,4.1c0,0.8,0.1,1.6,0.2,2.1c0,0,0,0.1,0,0.1
			c0.1,0.5,0.3,2,0.5,3.2c0.2,0.9,0.3,1.8,0.3,2c0.3,2.3,0.1,3.3,0,3.7c-0.3,0.2-1.1,0.7-2.9,1.1c-1.1,0.2-2.3,0.3-3.4,0.5
			c-29.8,5.3-51.2,26.8-51.2,52.2C-65.1,38.2-35.9,62.2,0,62.2z"/>
		<path class="st5" d="M0,62.1c35.9,0,65-23.9,65-53.4c0-11.8-4.6-22.6-14-32.9c0,0,0,0,0,0C38-39.2,8.9-57.6,1.5-60.8
			C-0.3-61.6-1.9-62-3.2-62c-2.2-0.1-3.6,0.9-4.3,1.7c-1.1,1.2-1.3,2.8-1.3,4.1c0,0.8,0.2,1.6,0.2,2.1c0,0,0,0.1,0,0.1
			c0.1,0.6,0.3,2,0.5,3.2c0.2,0.9,0.3,1.8,0.3,2c0.3,2.2,0.1,3.3,0,3.7c-0.3,0.3-1.1,0.8-2.9,1.2c-1.1,0.2-2.3,0.4-3.4,0.6
			C-43.7-38.2-65-16.7-65,8.7C-65,38.2-35.9,62.1,0,62.1z"/>
		<path class="st6" d="M0,62c35.8,0,64.9-23.9,64.9-53.3c0-11.8-4.6-22.5-14-32.9c0,0,0,0,0,0C37.9-39.1,9.1-57.4,1.6-60.7
			c-1.8-0.8-3.3-1.2-4.6-1.2c-2.3-0.1-3.6,0.8-4.3,1.6c-1.1,1.2-1.3,2.8-1.2,4.1c0,0.8,0.2,1.5,0.2,2.1c0,0,0,0.1,0,0.1
			c0.1,0.6,0.3,2.1,0.5,3.2c0.2,0.9,0.3,1.8,0.3,2c0.3,2.2,0.1,3.3,0,3.7c-0.3,0.3-1.1,0.8-2.9,1.2c-1.1,0.2-2.3,0.4-3.4,0.6
			c-29.8,5.2-51.2,26.7-51.2,52.1C-64.9,38.1-35.8,62,0,62z"/>
		<path class="st7" d="M0,61.9c35.7,0,64.8-23.8,64.8-53.1c0-11.8-4.6-22.5-14-32.8c0,0,0,0,0,0C37.9-38.9,9.3-57.1,1.7-60.5
			c-1.8-0.8-3.3-1.2-4.6-1.3c-2.3-0.1-3.6,0.7-4.3,1.5c-1.1,1.2-1.3,2.8-1.2,4.1c0,0.8,0.2,1.5,0.3,2.1c0,0,0,0.1,0,0.1
			c0.1,0.6,0.4,2.1,0.5,3.2c0.1,0.9,0.3,1.7,0.3,2c0.3,2.2,0.1,3.2,0,3.7c-0.3,0.3-1.1,0.8-2.8,1.2c-1.1,0.2-2.3,0.4-3.4,0.6
			c-29.8,5.1-51.2,26.6-51.2,52C-64.8,38-35.7,61.9,0,61.9z"/>
		<path class="st8" d="M0,61.8c35.7,0,64.7-23.8,64.7-53C64.7-3,60.1-13.7,50.8-24c0,0,0,0,0,0C37.9-38.8,9.5-56.9,1.7-60.3
			c-1.8-0.8-3.3-1.2-4.6-1.3c-2.3-0.2-3.6,0.7-4.3,1.5c-1.1,1.2-1.3,2.8-1.2,4.1c0,0.8,0.2,1.5,0.3,2.1c0,0,0,0.1,0,0.1
			c0.1,0.7,0.4,2.1,0.5,3.2c0.1,0.9,0.3,1.7,0.3,2c0.3,2.1,0.1,3.2,0,3.7c-0.3,0.3-1.1,0.8-2.8,1.3c-1.1,0.2-2.3,0.4-3.4,0.6
			C-43.3-38-64.7-16.6-64.7,8.7C-64.7,38-35.7,61.8,0,61.8z"/>
		<path class="st9" d="M0,61.7c35.6,0,64.6-23.7,64.6-52.9C64.6-3,60-13.6,50.7-23.9c0,0,0,0,0,0C37.9-38.6,9.7-56.6,1.8-60.2
			C0-61-1.5-61.4-2.7-61.5c-2.3-0.2-3.6,0.6-4.3,1.4c-1.1,1.2-1.2,2.8-1.2,4.1c0,0.7,0.2,1.5,0.3,2.1c0,0,0,0.1,0,0.1
			c0.1,0.7,0.4,2.2,0.5,3.2c0.1,0.9,0.3,1.7,0.3,2c0.2,2.1,0.1,3.2,0,3.7c-0.3,0.3-1.2,0.9-2.8,1.3c-1.1,0.2-2.3,0.4-3.4,0.6
			c-29.8,5-51.2,26.5-51.2,51.8C-64.6,37.9-35.6,61.7,0,61.7z"/>
		<path class="st10" d="M0,61.6c35.5,0,64.5-23.7,64.5-52.8c0-11.7-4.5-22.3-13.9-32.6c0,0,0,0,0,0C37.9-38.5,9.9-56.4,1.9-60
			c-1.8-0.8-3.3-1.2-4.5-1.3c-2.3-0.2-3.6,0.5-4.3,1.3c-1.1,1.2-1.2,2.8-1.2,4.1c0,0.7,0.2,1.5,0.3,2.1c0,0,0,0.1,0,0.1
			c0.1,0.7,0.4,2.2,0.5,3.2c0.1,0.9,0.3,1.7,0.3,2c0.2,2.1,0.1,3.2,0,3.7c-0.3,0.4-1.2,0.9-2.8,1.3c-1.1,0.2-2.3,0.4-3.3,0.6
			C-43-38-64.5-16.6-64.5,8.7C-64.5,37.9-35.5,61.6,0,61.6z"/>
		<path class="st11" d="M0,61.4c35.5,0,64.4-23.6,64.4-52.7c0-11.6-4.5-22.3-13.9-32.5c0,0,0,0,0,0C37.8-38.3,10.1-56.1,2-59.8
			c-1.8-0.8-3.3-1.3-4.5-1.4c-2.3-0.3-3.6,0.5-4.4,1.2C-8-58.8-8.1-57.2-8-55.9c0,0.7,0.2,1.5,0.3,2.1c0,0,0,0.1,0,0.1
			c0.1,0.7,0.4,2.3,0.5,3.2c0.1,0.9,0.3,1.7,0.3,2c0.2,2,0.1,3.1-0.1,3.7c-0.3,0.4-1.2,0.9-2.8,1.3c-1.1,0.2-2.3,0.5-3.3,0.7
			c-29.8,5-51.3,26.3-51.3,51.6C-64.4,37.8-35.5,61.4,0,61.4z"/>
		<path class="st12" d="M0,61.3c35.4,0,64.2-23.6,64.2-52.6c0-11.6-4.5-22.2-13.8-32.4c0,0,0,0,0,0c-12.6-14.5-40.2-32.2-48.3-36
			c-1.8-0.8-3.3-1.3-4.5-1.4c-2.3-0.3-3.6,0.4-4.4,1.1c-1.2,1.1-1.2,2.8-1.1,4.1c0,0.7,0.2,1.5,0.3,2.1c0,0,0,0.1,0,0.1
			c0.1,0.8,0.4,2.3,0.5,3.2c0.1,0.8,0.3,1.6,0.3,2c0.2,2,0.1,3.1-0.1,3.7c-0.3,0.4-1.2,0.9-2.7,1.4c-1.1,0.2-2.2,0.5-3.3,0.7
			c-29.8,4.9-51.3,26.2-51.3,51.5C-64.2,37.7-35.4,61.3,0,61.3z"/>
		<path class="st13" d="M0,61.2c35.4,0,64.1-23.5,64.1-52.5c0-11.6-4.5-22.1-13.8-32.4c0,0,0,0,0,0c-12.5-14.4-39.9-32-48.2-35.9
			c-1.8-0.8-3.3-1.3-4.5-1.4c-2.3-0.3-3.6,0.3-4.4,1.1c-1.2,1.1-1.2,2.8-1.1,4c0,0.7,0.2,1.4,0.3,2.1c0,0,0,0.1,0,0.1
			c0.1,0.8,0.4,2.3,0.5,3.2c0.1,0.8,0.2,1.6,0.3,2c0.2,2,0.1,3.1-0.1,3.7c-0.3,0.4-1.2,1-2.7,1.4c-1.1,0.3-2.2,0.5-3.3,0.7
			c-29.8,4.9-51.3,26.2-51.3,51.4C-64.1,37.7-35.4,61.2,0,61.2z"/>
		<path class="st14" d="M0,61.1c35.3,0,64-23.5,64-52.4c0-11.6-4.5-22.1-13.8-32.3c0,0,0,0,0,0c-12.5-14.3-39.6-31.8-48-35.8
			c-1.8-0.8-3.2-1.3-4.4-1.4c-2.3-0.4-3.6,0.3-4.4,1c-1.2,1.1-1.2,2.9-1.1,4c0,0.7,0.2,1.4,0.3,2.1c0,0,0,0.1,0,0.1
			c0.1,0.8,0.4,2.4,0.5,3.2c0.1,0.8,0.2,1.6,0.3,2c0.2,1.9,0.1,3.1-0.1,3.6c-0.3,0.5-1.2,1-2.7,1.4c-1.1,0.3-2.2,0.5-3.3,0.7
			C-42.5-37.8-64-16.5-64,8.7C-64,37.6-35.3,61.1,0,61.1z"/>
		<path class="st15" d="M0,61c35.2,0,63.9-23.4,63.9-52.3c0-11.5-4.5-22-13.8-32.2c0,0,0,0,0,0C37.8-37.8,10.8-55.1,2.3-59.2
			c-1.8-0.8-3.2-1.3-4.4-1.5c-2.3-0.4-3.6,0.2-4.4,0.9c-1.2,1.1-1.2,2.9-1.1,4c0,0.6,0.2,1.4,0.3,2.1c0,0,0,0.1,0,0.1
			c0.1,0.9,0.4,2.4,0.5,3.2c0.1,0.8,0.2,1.6,0.3,2c0.2,1.9,0.1,3-0.1,3.6c-0.3,0.5-1.2,1-2.7,1.5c-1.1,0.3-2.2,0.5-3.3,0.7
			c-29.8,4.8-51.4,26-51.4,51.2C-63.9,37.6-35.2,61,0,61z"/>
		<path class="st16" d="M0,60.9c35.2,0,63.8-23.4,63.8-52.2c0-11.5-4.5-22-13.7-32.2c0,0,0,0,0,0C37.7-37.6,11-54.9,2.4-59
			c-1.8-0.8-3.2-1.3-4.4-1.5c-2.3-0.4-3.7,0.2-4.4,0.8c-1.2,1.1-1.1,2.9-1.1,4c0,0.6,0.2,1.4,0.3,2.1c0,0,0,0.1,0,0.1
			c0.2,0.9,0.4,2.5,0.5,3.2c0.1,0.8,0.2,1.6,0.3,2c0.2,1.9,0.1,3-0.1,3.6c-0.3,0.5-1.2,1-2.6,1.5c-1.1,0.3-2.2,0.5-3.3,0.7
			c-29.8,4.7-51.4,26-51.4,51.1C-63.8,37.5-35.2,60.9,0,60.9z"/>
		<path class="st17" d="M0,60.8c35.1,0,63.7-23.3,63.7-52c0-11.5-4.5-21.9-13.7-32.1c0,0,0,0,0,0C37.7-37.5,11.2-54.6,2.5-58.9
			c-1.8-0.9-3.2-1.4-4.4-1.5c-2.3-0.5-3.7,0.1-4.4,0.7c-1.2,1.1-1.1,2.9-1.1,4c0,0.6,0.2,1.4,0.3,2.1c0,0,0,0.1,0,0.1
			c0.2,0.9,0.4,2.5,0.5,3.2c0.1,0.8,0.2,1.6,0.3,2c0.2,1.8,0.1,3-0.1,3.6c-0.3,0.5-1.2,1.1-2.6,1.5c-1.1,0.3-2.2,0.5-3.3,0.8
			c-29.8,4.7-51.4,25.9-51.4,51.1C-63.7,37.4-35.1,60.8,0,60.8z"/>
		<path class="st18" d="M0,60.7c35.1,0,63.6-23.3,63.6-51.9c0-11.5-4.5-21.9-13.7-32c0,0,0,0,0,0c-12.2-14-38.5-31.1-47.3-35.4
			c-1.7-0.9-3.2-1.4-4.3-1.6c-2.3-0.5-3.7,0-4.4,0.7c-1.2,1-1.1,2.9-1,4c0,0.6,0.2,1.4,0.3,2.1c0,0,0,0.1,0,0.1
			c0.2,1,0.4,2.5,0.5,3.2c0.1,0.8,0.2,1.5,0.3,2c0.2,1.8,0.1,3-0.2,3.6C-6.6-44-7.5-43.4-8.9-43c-1.1,0.3-2.2,0.6-3.3,0.8
			c-29.8,4.6-51.4,25.8-51.4,51C-63.6,37.4-35.1,60.7,0,60.7z"/>
		<path class="st19" d="M0,60.6c35,0,63.5-23.2,63.5-51.8c0-11.4-4.4-21.8-13.6-31.9c0,0,0,0,0,0c-12.1-14-38.3-30.9-47.2-35.3
			c-1.7-0.9-3.2-1.4-4.3-1.6c-2.3-0.5-3.7,0-4.4,0.6c-1.2,1-1.1,2.9-1,4c0,0.6,0.2,1.4,0.3,2.1c0,0,0,0.1,0,0.1
			c0.2,1,0.4,2.6,0.5,3.2c0.1,0.8,0.2,1.5,0.3,2c0.2,1.8,0.1,2.9-0.2,3.6c-0.3,0.6-1.2,1.1-2.6,1.6c-1.1,0.3-2.2,0.6-3.3,0.8
			c-29.8,4.6-51.4,25.8-51.4,50.9C-63.5,37.3-35,60.6,0,60.6z"/>
		<path class="st20" d="M0,60.5c34.9,0,63.4-23.2,63.4-51.7c0-11.4-4.4-21.8-13.6-31.9c0,0,0,0,0,0c-12.1-13.9-38-30.7-47-35.2
			C1-59.2-0.4-59.8-1.5-60c-2.3-0.6-3.7-0.1-4.4,0.5c-1.2,1-1.1,2.9-1,4c0,0.6,0.2,1.3,0.3,2.1c0,0,0,0.1,0,0.1
			c0.2,1,0.4,2.6,0.5,3.2c0.1,0.8,0.2,1.5,0.3,2c0.1,1.7,0.1,2.9-0.2,3.6c-0.3,0.6-1.2,1.2-2.6,1.6c-1.1,0.3-2.2,0.6-3.3,0.8
			c-29.8,4.6-51.5,25.7-51.5,50.8C-63.4,37.3-34.9,60.5,0,60.5z"/>
		<path class="st21" d="M0,60.3c34.9,0,63.3-23.2,63.3-51.6c0-11.4-4.4-21.7-13.6-31.8c0,0,0,0,0,0c-12-13.8-37.7-30.6-46.8-35.1
			c-1.7-0.9-3.2-1.4-4.3-1.6c-2.3-0.6-3.7-0.2-4.5,0.4c-1.3,1-1.1,2.9-1,4c0,0.6,0.2,1.3,0.3,2.1c0,0,0,0.1,0,0.1
			c0.2,1.1,0.4,2.7,0.5,3.2c0.1,0.7,0.2,1.5,0.3,2c0.1,1.7,0.1,2.9-0.2,3.6c-0.3,0.6-1.2,1.2-2.5,1.6c-1.1,0.3-2.2,0.6-3.3,0.8
			c-29.8,4.5-51.5,25.6-51.5,50.7C-63.3,37.2-34.9,60.3,0,60.3z"/>
		<path class="st22" d="M0,60.2c34.8,0,63.2-23.1,63.2-51.5c0-11.4-4.4-21.7-13.6-31.7c0,0,0,0,0,0C37.6-36.7,12.1-53.4,2.9-58
			c-1.7-0.9-3.2-1.4-4.2-1.7c-2.3-0.6-3.7-0.2-4.5,0.3c-1.3,1-1.1,2.9-1,4c0,0.5,0.2,1.3,0.3,2.1c0,0,0,0.1,0,0.1
			c0.2,1.1,0.4,2.7,0.5,3.2c0.1,0.7,0.2,1.5,0.2,2c0.1,1.7,0.1,2.9-0.2,3.6c-0.3,0.6-1.2,1.2-2.5,1.7c-1.1,0.4-2.2,0.6-3.3,0.8
			c-29.8,4.5-51.5,25.5-51.5,50.6C-63.2,37.1-34.8,60.2,0,60.2z"/>
		<path class="st23" d="M0,60.1c34.8,0,63-23.1,63-51.4c0-11.3-4.4-21.6-13.5-31.7c0,0,0,0,0,0C37.6-36.6,12.3-53.1,3-57.9
			c-1.7-0.9-3.1-1.4-4.2-1.7c-2.3-0.7-3.7-0.3-4.5,0.3c-1.3,1-1.1,2.9-1,4c0,0.5,0.2,1.3,0.3,2.1c0,0,0,0.1,0,0.1
			c0.2,1.1,0.5,2.7,0.5,3.2c0.1,0.7,0.2,1.5,0.2,2c0.1,1.6,0.1,2.9-0.2,3.6c-0.3,0.6-1.2,1.2-2.5,1.7c-1.1,0.4-2.2,0.6-3.3,0.9
			C-41.3-37.3-63-16.3-63,8.7C-63,37.1-34.8,60.1,0,60.1z"/>
		<path class="st24" d="M0,60c34.7,0,62.9-23,62.9-51.3c0-11.3-4.4-21.6-13.5-31.6c0,0,0,0,0,0c-11.8-13.6-36.9-30-46.3-34.8
			c-1.7-0.9-3.1-1.5-4.2-1.7c-2.3-0.7-3.7-0.4-4.5,0.2c-1.3,0.9-1,2.9-0.9,4c0.1,0.5,0.2,1.3,0.3,2.1c0,0,0,0.1,0,0.1
			c0.2,1.2,0.5,2.8,0.5,3.2c0.1,0.7,0.2,1.4,0.2,2c0.1,1.6,0,2.8-0.2,3.6C-6-43.6-6.9-43-8.1-42.5c-1.1,0.4-2.2,0.7-3.3,0.9
			c-29.8,4.4-51.5,25.4-51.5,50.4C-62.9,37-34.7,60,0,60z"/>
		<path class="st25" d="M0,59.9c34.6,0,62.8-23,62.8-51.2c0-11.3-4.4-21.5-13.5-31.5c0,0,0,0,0,0C37.6-36.3,12.7-52.6,3.2-57.5
			C1.5-58.4,0.1-59-1-59.3c-2.4-0.7-3.7-0.4-4.5,0.1c-1.3,0.9-1,2.9-0.9,4c0.1,0.5,0.2,1.3,0.3,2.1c0,0,0,0.1,0,0.1
			c0.2,1.2,0.5,2.8,0.5,3.2c0.1,0.7,0.2,1.4,0.2,2c0.1,1.6,0,2.8-0.3,3.6c-0.3,0.7-1.2,1.3-2.4,1.8c-1.1,0.4-2.2,0.7-3.3,0.9
			C-41-37.3-62.8-16.3-62.8,8.7C-62.8,37-34.6,59.9,0,59.9z"/>
		<path class="st26" d="M0,59.8c34.6,0,62.7-22.9,62.7-51.1c0-11.3-4.4-21.5-13.5-31.4c0,0,0,0,0,0c-11.7-13.5-36.4-29.6-46-34.7
			c-1.7-0.9-3.1-1.5-4.1-1.8c-2.4-0.7-3.7-0.5-4.5,0c-1.3,0.9-1,2.9-0.9,4c0.1,0.5,0.2,1.3,0.3,2c0,0,0,0.1,0,0.1
			c0.2,1.2,0.5,2.9,0.5,3.2c0.1,0.7,0.2,1.4,0.2,2c0.1,1.5,0,2.8-0.3,3.6c-0.3,0.7-1.2,1.3-2.4,1.8c-1,0.4-2.2,0.7-3.2,0.9
			c-29.7,4.3-51.6,25.3-51.6,50.2C-62.7,36.9-34.6,59.8,0,59.8z"/>
		<path class="st27" d="M0,59.7c34.5,0,62.6-22.9,62.6-50.9c0-11.2-4.4-21.4-13.4-31.4c0,0,0,0,0,0C37.5-36,13-52.1,3.3-57.2
			c-1.7-0.9-3.1-1.5-4.1-1.8c-2.4-0.8-3.7-0.6-4.5-0.1c-1.3,0.9-1,2.9-0.9,4c0.1,0.5,0.2,1.2,0.3,2c0,0,0,0.1,0,0.1
			c0.2,1.3,0.5,2.9,0.5,3.2c0.1,0.7,0.2,1.4,0.2,2c0.1,1.5,0,2.8-0.3,3.6c-0.3,0.7-1.2,1.3-2.4,1.8c-1,0.4-2.2,0.7-3.2,0.9
			c-29.7,4.2-51.6,25.2-51.6,50.1C-62.6,36.8-34.5,59.7,0,59.7z"/>
		<path class="st28" d="M0,59.6c34.5,0,62.5-22.8,62.5-50.8c0-11.2-4.4-21.4-13.4-31.3c0,0,0,0,0,0C37.5-35.9,13.2-51.8,3.4-57
			c-1.7-0.9-3.1-1.5-4.1-1.8C-3-59.7-4.4-59.5-5.2-59c-1.3,0.9-1,2.9-0.9,4c0.1,0.4,0.2,1.2,0.3,2c0,0,0,0.1,0,0.1
			c0.2,1.3,0.5,2.9,0.5,3.2c0.1,0.7,0.2,1.4,0.2,2c0.1,1.5,0,2.7-0.3,3.6c-0.3,0.7-1.2,1.4-2.4,1.8c-1,0.4-2.2,0.7-3.2,0.9
			c-29.7,4.2-51.6,25.1-51.6,50.1C-62.5,36.8-34.5,59.6,0,59.6z"/>
		<path class="st29" d="M0,59.5c34.4,0,62.4-22.8,62.4-50.7C62.4-2.5,58-12.6,49-22.5c0,0,0,0,0,0C37.5-35.7,13.4-51.6,3.5-56.9
			c-1.7-0.9-3.1-1.5-4.1-1.9c-2.4-0.8-3.8-0.7-4.5-0.2c-1.3,0.8-1,2.9-0.9,4c0.1,0.4,0.2,1.2,0.3,2c0,0,0,0.1,0,0.1
			c0.2,1.3,0.5,3,0.5,3.2c0.1,0.6,0.2,1.4,0.2,2c0.1,1.4,0,2.7-0.3,3.6c-0.3,0.8-1.2,1.4-2.4,1.9c-1,0.4-2.2,0.7-3.2,1
			c-29.7,4.2-51.6,25.1-51.6,50C-62.4,36.7-34.4,59.5,0,59.5z"/>
		<path class="st30" d="M0,59.4c34.3,0,62.3-22.7,62.3-50.6c0-11.2-4.3-21.3-13.4-31.2c0,0,0,0,0,0C37.5-35.6,13.6-51.3,3.6-56.7
			c-1.7-0.9-3.1-1.5-4-1.9c-2.4-0.9-3.8-0.8-4.6-0.3c-1.3,0.8-1,2.9-0.8,4c0.1,0.4,0.2,1.2,0.3,2c0,0,0,0.1,0,0.1
			c0.2,1.4,0.5,3,0.5,3.2c0.1,0.6,0.2,1.3,0.2,2c0.1,1.4,0,2.7-0.3,3.6c-0.3,0.8-1.2,1.4-2.3,1.9c-1,0.4-2.2,0.8-3.2,1
			c-29.7,4.1-51.6,25-51.6,49.9C-62.3,36.6-34.3,59.4,0,59.4z"/>
		<path class="st31" d="M0,59.2c34.3,0,62.2-22.7,62.2-50.5c0-11.1-4.3-21.2-13.3-31.1c0,0,0,0,0,0C37.5-35.4,13.8-51,3.7-56.5
			c-1.7-0.9-3-1.6-4-1.9c-2.4-0.9-3.8-0.9-4.6-0.4c-1.4,0.8-1,2.9-0.8,4c0.1,0.4,0.2,1.2,0.3,2c0,0,0,0.1,0,0.1
			c0.2,1.4,0.5,3.1,0.5,3.2c0.1,0.6,0.2,1.3,0.2,2c0.1,1.4,0,2.7-0.3,3.6c-0.3,0.8-1.2,1.4-2.3,1.9c-1,0.5-2.2,0.8-3.2,1
			C-40.2-37-62.2-16.1-62.2,8.7C-62.2,36.6-34.3,59.2,0,59.2z"/>
		<path class="st32" d="M0,59.1c34.2,0,62.1-22.6,62.1-50.4c0-11.1-4.3-21.2-13.3-31c0,0,0,0,0,0c-11.3-13-34.8-28.5-45-34.1
			c-1.7-0.9-3-1.6-4-1.9c-2.4-0.9-3.8-0.9-4.6-0.5c-1.4,0.8-1,2.9-0.8,4c0.1,0.4,0.2,1.2,0.3,2c0,0,0,0.1,0,0.1
			c0.2,1.4,0.5,3.1,0.5,3.2c0.1,0.6,0.2,1.3,0.2,2c0.1,1.3,0,2.6-0.4,3.6c-0.3,0.8-1.2,1.5-2.3,2c-1,0.5-2.2,0.8-3.2,1
			c-29.7,4-51.7,24.8-51.7,49.7C-62.1,36.5-34.2,59.1,0,59.1z"/>
		<path class="st33" d="M0,59c34.2,0,61.9-22.6,61.9-50.3c0-11.1-4.3-21.1-13.3-30.9c0,0,0,0,0,0c-11.2-12.9-34.5-28.3-44.8-34
			c-1.7-0.9-3-1.6-3.9-2c-2.4-1-3.8-1-4.6-0.5c-1.4,0.8-0.9,3-0.8,4c0.1,0.4,0.2,1.2,0.3,2c0,0,0,0.1,0,0.1c0.2,1.5,0.5,3.1,0.5,3.2
			c0.1,0.6,0.2,1.3,0.2,2c0.1,1.3,0,2.6-0.4,3.6C-5.1-43-6-42.4-7-41.9c-1,0.5-2.2,0.8-3.2,1c-29.7,4-51.7,24.8-51.7,49.6
			C-61.9,36.5-34.2,59,0,59z"/>
		<g>
			<g>
				<path class="st1" d="M61.8,8.7c0,27.7-27.7,50.2-61.8,50.2c-34.1,0-61.8-22.5-61.8-50.2c0-24.8,22-45.6,51.7-49.5
					c2-0.4,4.8-1.3,5.4-3c0.6-1.6,0.4-4,0.2-5.6c0,0-0.7-4.4-0.9-5.3C-5.6-56.3-6.6-60.8,0-58c6.6,2.8,35.6,21,48.6,35.9h0
					C57.5-12.3,61.8-2.3,61.8,8.7z"/>
			</g>
		</g>
	</g>
	<defs>
		<filter id="Adobe_OpacityMaskFilter_1_" filterUnits="userSpaceOnUse" x="-61.8" y="-58.9" width="123.7" height="120.7">
			<feColorMatrix  type="matrix" values="1 0 0 0 0  0 1 0 0 0  0 0 1 0 0  0 0 0 1 0"/>
		</filter>
	</defs>
	<mask maskUnits="userSpaceOnUse" x="-61.8" y="-58.9" width="123.7" height="120.7" id="SVGID_2_">
		<g class="st34">
			<path class="st1" d="M-85.7,86.8V-84.9H85.9V86.8H-85.7z M48.6-22.1C35.6-37.1,6.6-55.3,0-58c-6.6-2.8-5.6,1.8-5.4,3.3
				c0.2,0.9,0.9,5.3,0.9,5.3c0.2,1.6,0.4,4-0.2,5.6c-0.7,1.7-3.4,2.6-5.4,3c-29.7,3.9-51.7,24.7-51.7,49.5
				c0,27.7,27.7,50.2,61.8,50.2c34.1,0,61.8-22.5,61.8-50.2C61.8-2.3,57.5-12.3,48.6-22.1L48.6-22.1z"/>
		</g>
	</mask>
	<g class="st35">
		<g class="st36">
			<g>
				<path class="st37" d="M61.8,5.8C61.8,33.5,34.1,56,0,56c-34.1,0-61.8-22.5-61.8-50.2c0-24.8,22-45.6,51.7-49.5
					c2-0.4,4.8-1.3,5.4-3c0.6-1.6,0.4-4,0.2-5.6c0,0-0.7-4.4-0.9-5.3c-0.3-1.6-1.2-6.1,5.4-3.3C6.6-58.2,35.6-40,48.6-25l0,0
					C57.5-15.2,61.8-5.2,61.8,5.8z"/>
			</g>
		</g>
		<path class="st38" d="M61.8,5.9c0,27.7-27.7,50.2-61.8,50.2c-34.1,0-61.8-22.5-61.8-50.2c0-24.8,22-45.6,51.7-49.5
			c2-0.4,4.8-1.3,5.4-3c0.6-1.6,0.4-4,0.2-5.6c0,0-0.7-4.4-0.9-5.3c-0.3-1.6-1.2-6.1,5.4-3.3c6.6,2.8,35.6,21,48.6,35.9l0,0
			C57.5-15.1,61.8-5.1,61.8,5.9z"/>
		<path class="st39" d="M61.8,6c0,27.7-27.7,50.2-61.8,50.2c-34.1,0-61.8-22.5-61.8-50.2c0-24.8,22-45.6,51.7-49.5
			c2-0.4,4.8-1.3,5.4-3c0.6-1.6,0.4-4,0.2-5.6c0,0-0.7-4.4-0.9-5.3C-5.6-59-6.6-63.5,0-60.8c6.6,2.8,35.6,21,48.6,35.9l0,0
			C57.5-15,61.8-5.1,61.8,6z"/>
		<path class="st40" d="M61.8,6.1c0,27.7-27.7,50.2-61.8,50.2c-34.1,0-61.8-22.5-61.8-50.2c0-24.8,22-45.6,51.7-49.5
			c2-0.4,4.8-1.3,5.4-3c0.6-1.6,0.4-4,0.2-5.6c0,0-0.7-4.4-0.9-5.3c-0.3-1.6-1.2-6.1,5.4-3.3c6.6,2.8,35.6,21,48.6,35.9l0,0
			C57.5-14.9,61.8-5,61.8,6.1z"/>
		<path class="st41" d="M61.8,6.2c0,27.7-27.7,50.2-61.8,50.2c-34.1,0-61.8-22.5-61.8-50.2c0-24.8,22-45.6,51.7-49.5
			c2-0.4,4.8-1.3,5.4-3c0.6-1.6,0.4-4,0.2-5.6c0,0-0.7-4.4-0.9-5.3c-0.3-1.6-1.2-6.1,5.4-3.3c6.6,2.8,35.6,21,48.6,35.9l0,0
			C57.5-14.8,61.8-4.9,61.8,6.2z"/>
		<path class="st42" d="M61.8,6.3C61.8,34,34.1,56.5,0,56.5c-34.1,0-61.8-22.5-61.8-50.2c0-24.8,22-45.6,51.7-49.5
			c2-0.4,4.8-1.3,5.4-3c0.6-1.6,0.4-4,0.2-5.6c0,0-0.7-4.4-0.9-5.3c-0.3-1.6-1.2-6.1,5.4-3.3c6.6,2.8,35.6,21,48.6,35.9l0,0
			C57.5-14.7,61.8-4.8,61.8,6.3z"/>
		<path class="st43" d="M61.8,6.4c0,27.7-27.7,50.2-61.8,50.2c-34.1,0-61.8-22.5-61.8-50.2c0-24.8,22-45.6,51.7-49.5
			c2-0.4,4.8-1.3,5.4-3c0.6-1.6,0.4-4,0.2-5.6c0,0-0.7-4.4-0.9-5.3c-0.3-1.6-1.2-6.1,5.4-3.3c6.6,2.8,35.6,21,48.6,35.9l0,0
			C57.5-14.7,61.8-4.7,61.8,6.4z"/>
		<path class="st44" d="M61.8,6.5c0,27.7-27.7,50.2-61.8,50.2c-34.1,0-61.8-22.5-61.8-50.2c0-24.8,22-45.6,51.7-49.5
			c2-0.4,4.8-1.3,5.4-3c0.6-1.6,0.4-4,0.2-5.6c0,0-0.7-4.4-0.9-5.3c-0.3-1.6-1.2-6.1,5.4-3.3c6.6,2.8,35.6,21,48.6,35.9l0,0
			C57.5-14.6,61.8-4.6,61.8,6.5z"/>
		<path class="st45" d="M61.8,6.6c0,27.7-27.7,50.2-61.8,50.2c-34.1,0-61.8-22.5-61.8-50.2c0-24.8,22-45.6,51.7-49.5
			c2-0.4,4.8-1.3,5.4-3c0.6-1.6,0.4-4,0.2-5.6c0,0-0.7-4.4-0.9-5.3C-5.6-58.4-6.6-63,0-60.2c6.6,2.8,35.6,21,48.6,35.9h0
			C57.5-14.5,61.8-4.5,61.8,6.6z"/>
		<path class="st46" d="M61.8,6.7c0,27.7-27.7,50.2-61.8,50.2c-34.1,0-61.8-22.5-61.8-50.2c0-24.8,22-45.6,51.7-49.5
			c2-0.4,4.8-1.3,5.4-3c0.6-1.6,0.4-4,0.2-5.6c0,0-0.7-4.4-0.9-5.3c-0.3-1.6-1.2-6.1,5.4-3.3c6.6,2.8,35.6,21,48.6,35.9h0
			C57.5-14.4,61.8-4.4,61.8,6.7z"/>
		<path class="st47" d="M61.8,6.8C61.8,34.4,34.1,57,0,57c-34.1,0-61.8-22.5-61.8-50.2c0-24.8,22-45.6,51.7-49.5
			c2-0.4,4.8-1.3,5.4-3c0.6-1.6,0.4-4,0.2-5.6c0,0-0.7-4.4-0.9-5.3C-5.6-58.2-6.6-62.8,0-60c6.6,2.8,35.6,21,48.6,35.9h0
			C57.5-14.3,61.8-4.3,61.8,6.8z"/>
		<path class="st48" d="M61.8,6.9C61.8,34.5,34.1,57,0,57c-34.1,0-61.8-22.5-61.8-50.2c0-24.8,22-45.6,51.7-49.5
			c2-0.4,4.8-1.3,5.4-3c0.6-1.6,0.4-4,0.2-5.6c0,0-0.7-4.4-0.9-5.3c-0.3-1.6-1.2-6.1,5.4-3.3c6.6,2.8,35.6,21,48.6,35.9h0
			C57.5-14.2,61.8-4.2,61.8,6.9z"/>
		<path class="st49" d="M61.8,7c0,27.7-27.7,50.2-61.8,50.2c-34.1,0-61.8-22.5-61.8-50.2c0-24.8,22-45.6,51.7-49.5
			c2-0.4,4.8-1.3,5.4-3c0.6-1.6,0.4-4,0.2-5.6c0,0-0.7-4.4-0.9-5.3C-5.6-58-6.6-62.6,0-59.8c6.6,2.8,35.6,21,48.6,35.9h0
			C57.5-14.1,61.8-4.1,61.8,7z"/>
		<path class="st50" d="M61.8,7.1c0,27.7-27.7,50.2-61.8,50.2c-34.1,0-61.8-22.5-61.8-50.2c0-24.8,22-45.6,51.7-49.5
			c2-0.4,4.8-1.3,5.4-3c0.6-1.6,0.4-4,0.2-5.6c0,0-0.7-4.4-0.9-5.3C-5.6-58-6.6-62.5,0-59.7c6.6,2.8,35.6,21,48.6,35.9h0
			C57.5-14,61.8-4,61.8,7.1z"/>
		<path class="st51" d="M61.8,7.1c0,27.7-27.7,50.2-61.8,50.2c-34.1,0-61.8-22.5-61.8-50.2c0-24.8,22-45.6,51.7-49.5
			c2-0.4,4.8-1.3,5.4-3c0.6-1.6,0.4-4,0.2-5.6c0,0-0.7-4.4-0.9-5.3c-0.3-1.6-1.2-6.1,5.4-3.3c6.6,2.8,35.6,21,48.6,35.9h0
			C57.5-13.9,61.8-3.9,61.8,7.1z"/>
		<path class="st52" d="M61.8,7.2c0,27.7-27.7,50.2-61.8,50.2c-34.1,0-61.8-22.5-61.8-50.2c0-24.8,22-45.6,51.7-49.5
			c2-0.4,4.8-1.3,5.4-3c0.6-1.6,0.4-4,0.2-5.6c0,0-0.7-4.4-0.9-5.3c-0.3-1.6-1.2-6.1,5.4-3.3c6.6,2.8,35.6,21,48.6,35.9h0
			C57.5-13.8,61.8-3.8,61.8,7.2z"/>
		<path class="st53" d="M61.8,7.3C61.8,35,34.1,57.5,0,57.5c-34.1,0-61.8-22.5-61.8-50.2c0-24.8,22-45.6,51.7-49.5
			c2-0.4,4.8-1.3,5.4-3c0.6-1.6,0.4-4,0.2-5.6c0,0-0.7-4.4-0.9-5.3c-0.3-1.6-1.2-6.1,5.4-3.3c6.6,2.8,35.6,21,48.6,35.9h0
			C57.5-13.7,61.8-3.7,61.8,7.3z"/>
		<path class="st54" d="M61.8,7.4c0,27.7-27.7,50.2-61.8,50.2c-34.1,0-61.8-22.5-61.8-50.2c0-24.8,22-45.6,51.7-49.5
			c2-0.4,4.8-1.3,5.4-3c0.6-1.6,0.4-4,0.2-5.6c0,0-0.7-4.4-0.9-5.3c-0.3-1.6-1.2-6.1,5.4-3.3c6.6,2.8,35.6,21,48.6,35.9h0
			C57.5-13.6,61.8-3.6,61.8,7.4z"/>
		<path class="st55" d="M61.8,7.5c0,27.7-27.7,50.2-61.8,50.2c-34.1,0-61.8-22.5-61.8-50.2c0-24.8,22-45.6,51.7-49.5
			c2-0.4,4.8-1.3,5.4-3c0.6-1.6,0.4-4,0.2-5.6c0,0-0.7-4.4-0.9-5.3C-5.6-57.5-6.6-62,0-59.3c6.6,2.8,35.6,21,48.6,35.9h0
			C57.5-13.5,61.8-3.6,61.8,7.5z"/>
		<path class="st56" d="M61.8,7.6c0,27.7-27.7,50.2-61.8,50.2c-34.1,0-61.8-22.5-61.8-50.2c0-24.8,22-45.6,51.7-49.5
			c2-0.4,4.8-1.3,5.4-3c0.6-1.6,0.4-4,0.2-5.6c0,0-0.7-4.4-0.9-5.3c-0.3-1.6-1.2-6.1,5.4-3.3c6.6,2.8,35.6,21,48.6,35.9l0,0
			C57.5-13.4,61.8-3.5,61.8,7.6z"/>
		<path class="st57" d="M61.8,7.7c0,27.7-27.7,50.2-61.8,50.2c-34.1,0-61.8-22.5-61.8-50.2c0-24.8,22-45.6,51.7-49.5
			c2-0.4,4.8-1.3,5.4-3c0.6-1.6,0.4-4,0.2-5.6c0,0-0.7-4.4-0.9-5.3c-0.3-1.6-1.2-6.1,5.4-3.3c6.6,2.8,35.6,21,48.6,35.9l0,0
			C57.5-13.3,61.8-3.4,61.8,7.7z"/>
		<path class="st58" d="M61.8,7.8C61.8,35.5,34.1,58,0,58c-34.1,0-61.8-22.5-61.8-50.2c0-24.8,22-45.6,51.7-49.5
			c2-0.4,4.8-1.3,5.4-3c0.6-1.6,0.4-4,0.2-5.6c0,0-0.7-4.4-0.9-5.3C-5.6-57.2-6.6-61.8,0-59c6.6,2.8,35.6,21,48.6,35.9l0,0
			C57.5-13.2,61.8-3.3,61.8,7.8z"/>
		<path class="st59" d="M61.8,7.9c0,27.7-27.7,50.2-61.8,50.2c-34.1,0-61.8-22.5-61.8-50.2c0-24.8,22-45.6,51.7-49.5
			c2-0.4,4.8-1.3,5.4-3c0.6-1.6,0.4-4,0.2-5.6c0,0-0.7-4.4-0.9-5.3c-0.3-1.6-1.2-6.1,5.4-3.3c6.6,2.8,35.6,21,48.6,35.9l0,0
			C57.5-13.2,61.8-3.2,61.8,7.9z"/>
		<path class="st60" d="M61.8,8c0,27.7-27.7,50.2-61.8,50.2c-34.1,0-61.8-22.5-61.8-50.2c0-24.8,22-45.6,51.7-49.5
			c2-0.4,4.8-1.3,5.4-3c0.6-1.6,0.4-4,0.2-5.6c0,0-0.7-4.4-0.9-5.3C-5.6-57-6.6-61.6,0-58.8c6.6,2.8,35.6,21,48.6,35.9l0,0
			C57.5-13.1,61.8-3.1,61.8,8z"/>
		<path class="st61" d="M61.8,8.1c0,27.7-27.7,50.2-61.8,50.2c-34.1,0-61.8-22.5-61.8-50.2c0-24.8,22-45.6,51.7-49.5
			c2-0.4,4.8-1.3,5.4-3c0.6-1.6,0.4-4,0.2-5.6c0,0-0.7-4.4-0.9-5.3c-0.3-1.6-1.2-6.1,5.4-3.3s35.6,21,48.6,35.9l0,0
			C57.5-13,61.8-3,61.8,8.1z"/>
		<path class="st62" d="M61.8,8.2c0,27.7-27.7,50.2-61.8,50.2c-34.1,0-61.8-22.5-61.8-50.2c0-24.8,22-45.6,51.7-49.5
			c2-0.4,4.8-1.3,5.4-3c0.6-1.6,0.4-4,0.2-5.6c0,0-0.7-4.4-0.9-5.3c-0.3-1.6-1.2-6.1,5.4-3.3c6.6,2.8,35.6,21,48.6,35.9l0,0
			C57.5-12.9,61.8-2.9,61.8,8.2z"/>
		<path class="st63" d="M61.8,8.3c0,27.7-27.7,50.2-61.8,50.2c-34.1,0-61.8-22.5-61.8-50.2c0-24.8,22-45.6,51.7-49.5
			c2-0.4,4.8-1.3,5.4-3c0.6-1.6,0.4-4,0.2-5.6c0,0-0.7-4.4-0.9-5.3c-0.3-1.6-1.2-6.1,5.4-3.3s35.6,21,48.6,35.9l0,0
			C57.5-12.8,61.8-2.8,61.8,8.3z"/>
		<path class="st64" d="M61.8,8.4C61.8,36,34.1,58.5,0,58.5c-34.1,0-61.8-22.5-61.8-50.2c0-24.8,22-45.6,51.7-49.5
			c2-0.4,4.8-1.3,5.4-3c0.6-1.6,0.4-4,0.2-5.6c0,0-0.7-4.4-0.9-5.3c-0.3-1.6-1.2-6.1,5.4-3.3c6.6,2.8,35.6,21,48.6,35.9l0,0
			C57.5-12.7,61.8-2.7,61.8,8.4z"/>
		<path class="st65" d="M61.8,8.5c0,27.7-27.7,50.2-61.8,50.2c-34.1,0-61.8-22.5-61.8-50.2c0-24.8,22-45.6,51.7-49.5
			c2-0.4,4.8-1.3,5.4-3c0.6-1.6,0.4-4,0.2-5.6c0,0-0.7-4.4-0.9-5.3c-0.3-1.6-1.2-6.1,5.4-3.3s35.6,21,48.6,35.9l0,0
			C57.5-12.6,61.8-2.6,61.8,8.5z"/>
		<path class="st66" d="M61.8,8.6c0,27.7-27.7,50.2-61.8,50.2c-34.1,0-61.8-22.5-61.8-50.2c0-24.8,22-45.6,51.7-49.5
			c2-0.4,4.8-1.3,5.4-3c0.6-1.6,0.4-4,0.2-5.6c0,0-0.7-4.4-0.9-5.3C-5.6-56.5-6.6-61,0-58.2c6.6,2.8,35.6,21,48.6,35.9h0
			C57.5-12.5,61.8-2.5,61.8,8.6z"/>
		<path class="st67" d="M61.8,8.6c0,27.7-27.7,50.2-61.8,50.2c-34.1,0-61.8-22.5-61.8-50.2c0-24.8,22-45.6,51.7-49.5
			c2-0.4,4.8-1.3,5.4-3c0.6-1.6,0.4-4,0.2-5.6c0,0-0.7-4.4-0.9-5.3c-0.3-1.6-1.2-6.1,5.4-3.3s35.6,21,48.6,35.9h0
			C57.5-12.4,61.8-2.4,61.8,8.6z"/>
		<g>
			<g>
				<path class="st37" d="M61.8,8.7c0,27.7-27.7,50.2-61.8,50.2c-34.1,0-61.8-22.5-61.8-50.2c0-24.8,22-45.6,51.7-49.5
					c2-0.4,4.8-1.3,5.4-3c0.6-1.6,0.4-4,0.2-5.6c0,0-0.7-4.4-0.9-5.3C-5.6-56.3-6.6-60.8,0-58c6.6,2.8,35.6,21,48.6,35.9h0
					C57.5-12.3,61.8-2.3,61.8,8.7z"/>
			</g>
		</g>
	</g>
</symbol>
<g>
	<path class="st68" d="M237.7,120.3c0,64.8-52.5,117.3-117.3,117.3S3,185.1,3,120.3C3,55.5,55.5,3,120.3,3S237.7,55.5,237.7,120.3"
		/>
	<g>
		
			<use xlink:href="#shadow"  width="130.5" height="124.6" id="XMLID_129_" x="-65.2" y="-62.3" transform="matrix(1.1465 0 0 -1.1466 120.3326 120.3339)" style="overflow:visible;"/>
		<g>
			<g>
				<path class="st69" d="M191.2,110.3c0-31.7-31.8-57.5-70.9-57.5c-39.1,0-70.9,25.8-70.9,57.5c0,28.4,25.2,52.3,59.3,56.8
					c2.3,0.5,5.4,1.5,6.2,3.5c0.7,1.8,0.5,4.6,0.2,6.4c0,0-0.8,5-1,6.1c-0.3,1.8-1.4,7,6.1,3.8c7.6-3.2,40.8-24,55.7-41.2l0,0
					C186.3,134.4,191.2,123,191.2,110.3z M92.6,129.2H78.5c-2,0-3.7-1.7-3.7-3.7V97.3c0-2.1,1.7-3.7,3.7-3.7c2.1,0,3.7,1.7,3.7,3.7
					v24.5h10.4c2.1,0,3.7,1.7,3.7,3.7C96.3,127.5,94.6,129.2,92.6,129.2z M107.1,125.5c0,2.1-1.7,3.7-3.7,3.7c-2,0-3.7-1.7-3.7-3.7
					V97.3c0-2.1,1.7-3.7,3.7-3.7c2.1,0,3.7,1.7,3.7,3.7V125.5z M141.1,125.5c0,1.6-1,3-2.5,3.5c-0.4,0.1-0.8,0.2-1.2,0.2
					c-1.2,0-2.3-0.6-3-1.5L119.9,108v17.4c0,2.1-1.7,3.7-3.7,3.7c-2.1,0-3.7-1.7-3.7-3.7V97.3c0-1.6,1-3,2.5-3.5
					c0.4-0.1,0.8-0.2,1.2-0.2c1.2,0,2.3,0.6,3,1.5l14.4,19.7V97.3c0-2.1,1.7-3.7,3.7-3.7c2,0,3.7,1.7,3.7,3.7V125.5z M163.9,107.7
					c2,0,3.7,1.7,3.7,3.7c0,2-1.7,3.7-3.7,3.7h-10.4v6.7h10.4c2,0,3.7,1.7,3.7,3.7c0,2.1-1.7,3.7-3.7,3.7h-14.1
					c-2,0-3.7-1.7-3.7-3.7v-14.1c0,0,0,0,0,0c0,0,0,0,0,0V97.3c0,0,0,0,0,0c0-2.1,1.7-3.7,3.7-3.7h14.1c2,0,3.7,1.7,3.7,3.7
					c0,2-1.7,3.7-3.7,3.7h-10.4v6.7H163.9z"/>
			</g>
		</g>
		<g class="st70">
			<g>
				<path class="st71" d="M92.6,121.8H82.2V97.3c0-2.1-1.7-3.7-3.7-3.7c-2,0-3.7,1.7-3.7,3.7v28.2c0,2.1,1.7,3.7,3.7,3.7h14.1
					c2.1,0,3.7-1.7,3.7-3.7C96.3,123.4,94.6,121.8,92.6,121.8z M103.4,93.6c-2,0-3.7,1.7-3.7,3.7v28.2c0,2.1,1.7,3.7,3.7,3.7
					c2.1,0,3.7-1.7,3.7-3.7V97.3C107.1,95.2,105.5,93.6,103.4,93.6z M163.9,115.1c2,0,3.7-1.7,3.7-3.7c0-2.1-1.7-3.7-3.7-3.7h-10.4
					V101h10.4c2,0,3.7-1.7,3.7-3.7c0-2.1-1.7-3.7-3.7-3.7h-14.1c-2.1,0-3.7,1.7-3.7,3.7c0,0,0,0,0,0v14.1c0,0,0,0,0,0c0,0,0,0,0,0
					v14.1c0,2.1,1.7,3.7,3.7,3.7h14.1c2,0,3.7-1.7,3.7-3.7c0-2-1.7-3.7-3.7-3.7h-10.4v-6.7H163.9z M137.3,93.6
					c-2.1,0-3.7,1.7-3.7,3.7v17.4l-14.4-19.7c-0.7-0.9-1.8-1.5-3-1.5c-0.4,0-0.8,0.1-1.2,0.2c-1.5,0.5-2.5,1.9-2.5,3.5v28.2
					c0,2.1,1.7,3.7,3.7,3.7c2.1,0,3.7-1.7,3.7-3.7V108l14.4,19.7c0.7,0.9,1.8,1.5,3,1.5c0.4,0,0.8-0.1,1.2-0.2
					c1.5-0.5,2.5-1.9,2.5-3.5V97.3C141.1,95.2,139.4,93.6,137.3,93.6z"/>
			</g>
		</g>
		<g class="st72">
			<g>
				<path class="st71" d="M163.9,115.1c2,0,3.7-1.7,3.7-3.7c0-2.1-1.7-3.7-3.7-3.7h-10.4V101h10.4c2,0,3.7-1.7,3.7-3.7
					c0-2.1-1.7-3.7-3.7-3.7h-14.1c-2.1,0-3.7,1.7-3.7,3.7v28.2c0,2.1,1.7,3.7,3.7,3.7h14.1c2,0,3.7-1.7,3.7-3.7c0-2-1.7-3.7-3.7-3.7
					h-10.4v-6.7H163.9z"/>
				<path class="st73" d="M149.8,93.6h14.1c1.9,0,3.4,1.4,3.7,3.2c0,0.2,0,0.4,0,0.5c0,1.7-1.1,3.1-2.6,3.5
					c-0.3,0.1-0.7,0.2-1.1,0.2h-10.4c0,0,0,0.4,0,0.4v6.3l0,0c0,0,0.3,0,0.3,0h10.1c0.1,0,0.1,0,0.2,0c2,0.1,3.5,1.7,3.5,3.7
					c0,1.6-1.1,3-2.5,3.5c-0.4,0.1-0.8,0.2-1.2,0.2h-9.9c0,0-0.4,0-0.4,0c0,0,0,0.1,0,0.1v6.3c0,0,0,0.3,0,0.3h10.4
					c0.1,0,0.2,0,0.3,0c1.9,0.2,3.4,1.7,3.4,3.7c0,0.1,0,0.1,0,0.2c-0.1,2-1.7,3.5-3.7,3.5h-14.1c-1.8,0-3.3-1.3-3.6-2.9
					c-0.1-0.2-0.1-0.5-0.1-0.8V97.3c0,0,0-0.1,0-0.1C146.1,95.2,147.8,93.6,149.8,93.6z"/>
				<path class="st74" d="M149.8,93.7h14.1c1.9,0,3.4,1.4,3.6,3.2c0,0.2,0,0.4,0,0.5c0,1.7-1.1,3-2.6,3.5c-0.3,0.1-0.7,0.2-1,0.2
					h-10.4c0,0,0,0.4,0,0.4v6.3l0,0c0,0,0.3,0,0.3,0h10.1c0.1,0,0.1,0,0.2,0c1.9,0.1,3.5,1.7,3.5,3.7c0,1.6-1.1,3-2.5,3.5
					c-0.4,0.1-0.8,0.2-1.2,0.2h-9.9c0,0-0.4,0-0.4,0c0,0,0,0.1,0,0.1v6.3c0,0,0,0.3,0,0.3h10.4c0.1,0,0.2,0,0.3,0
					c1.9,0.1,3.4,1.7,3.4,3.7c0,0.1,0,0.1,0,0.2c-0.1,2-1.7,3.5-3.7,3.5h-14.1c-1.8,0-3.3-1.3-3.6-2.9c-0.1-0.2-0.1-0.5-0.1-0.7
					V97.3c0,0,0-0.1,0-0.1C146.1,95.3,147.8,93.7,149.8,93.7z"/>
				<path class="st75" d="M149.8,93.7h14.1c1.8,0,3.4,1.4,3.6,3.2c0,0.2,0,0.4,0,0.5c0,1.6-1.1,3-2.7,3.5c-0.3,0.1-0.7,0.1-1,0.1
					h-10.3c0,0-0.1,0.4-0.1,0.4v6.3l0,0c0,0,0.3,0.1,0.3,0.1h10.1c0.1,0,0.1,0,0.2,0c1.9,0.1,3.5,1.7,3.5,3.7c0,1.6-1.1,3-2.5,3.5
					c-0.3,0.1-0.8,0.2-1.2,0.2h-9.9c0,0-0.4,0-0.5,0c0,0,0,0.1,0,0.1v6.3c0,0,0,0.4,0.1,0.4h10.3c0.1,0,0.2,0,0.3,0
					c1.9,0.1,3.4,1.7,3.4,3.6c0,0.1,0,0.1,0,0.2c-0.1,1.9-1.7,3.5-3.7,3.5h-14.1c-1.8,0-3.3-1.3-3.6-3c0-0.2-0.1-0.5-0.1-0.7V97.4
					c0,0,0-0.1,0-0.1C146.2,95.3,147.8,93.7,149.8,93.7z"/>
				<path class="st76" d="M149.8,93.7h14.1c1.8,0,3.4,1.4,3.6,3.2c0,0.2,0,0.4,0,0.5c0,1.6-1.2,3-2.7,3.4c-0.3,0.1-0.7,0.1-1,0.1
					h-10.3c0,0-0.1,0.4-0.1,0.4v6.3l0,0c0,0,0.3,0.1,0.3,0.1h10.1c0.1,0,0.1,0,0.2,0c1.9,0.1,3.5,1.7,3.5,3.6c0,1.6-1.1,3-2.6,3.4
					c-0.3,0.1-0.8,0.2-1.1,0.2h-9.9c0,0-0.4,0-0.5,0c0,0,0,0.1,0,0.1v6.3c0,0,0,0.4,0.1,0.4h10.3c0.1,0,0.2,0,0.3,0
					c1.9,0.1,3.4,1.7,3.4,3.6c0,0.1,0,0.1,0,0.2c-0.1,1.9-1.7,3.5-3.6,3.5h-14.1c-1.8,0-3.2-1.3-3.6-3c0-0.2-0.1-0.5-0.1-0.7V97.4
					c0,0,0-0.1,0-0.1C146.2,95.3,147.8,93.7,149.8,93.7z"/>
				<path class="st77" d="M149.8,93.8h14.1c1.8,0,3.4,1.4,3.6,3.2c0,0.2,0,0.4,0,0.5c0,1.6-1.2,3-2.7,3.4c-0.3,0.1-0.6,0.1-1,0.1
					h-10.3c-0.1,0-0.1,0.4-0.1,0.4v6.3l0,0c0,0.1,0.3,0.1,0.3,0.1h10.1c0.1,0,0.1,0,0.2,0c1.9,0.1,3.5,1.7,3.5,3.6
					c0,1.6-1.1,3-2.6,3.4c-0.3,0.1-0.7,0.2-1.1,0.2h-9.9c0,0-0.4,0-0.5,0c0,0,0,0.1,0,0.1v6.3c0,0.1,0,0.4,0.1,0.4h10.3
					c0.1,0,0.2,0,0.3,0c1.9,0.1,3.3,1.7,3.4,3.6c0,0.1,0,0.1,0,0.2c-0.1,1.9-1.7,3.5-3.6,3.5h-14.1c-1.8,0-3.2-1.3-3.5-3
					c0-0.2-0.1-0.4-0.1-0.7V97.4c0,0,0-0.1,0-0.1C146.2,95.4,147.8,93.8,149.8,93.8z"/>
				<path class="st78" d="M149.8,93.8h14.1c1.8,0,3.3,1.4,3.6,3.2c0,0.2,0,0.4,0,0.5c0,1.6-1.2,3-2.7,3.4c-0.3,0.1-0.6,0.1-0.9,0.1
					h-10.3c-0.1,0-0.1,0.4-0.1,0.4v6.3l0,0c0,0.1,0.3,0.1,0.4,0.1h10.1c0.1,0,0.1,0,0.2,0c1.9,0.1,3.4,1.7,3.4,3.6
					c0,1.6-1.1,3-2.6,3.4c-0.3,0.1-0.7,0.2-1.1,0.2h-9.9c0,0-0.4,0-0.5,0c0,0,0,0.1,0,0.1v6.3c0,0.1,0.1,0.4,0.1,0.4h10.3
					c0.1,0,0.2,0,0.3,0c1.9,0.1,3.3,1.7,3.3,3.6c0,0.1,0,0.1,0,0.2c-0.1,1.9-1.7,3.5-3.6,3.5h-14.1c-1.8,0-3.2-1.3-3.5-3
					c0-0.2-0.1-0.4-0.1-0.6V97.4c0,0,0-0.1,0-0.1C146.2,95.4,147.8,93.8,149.8,93.8z"/>
				<path class="st79" d="M149.8,93.9h14.1c1.8,0,3.3,1.4,3.5,3.1c0,0.2,0,0.4,0,0.5c-0.1,1.6-1.2,3-2.7,3.3
					c-0.3,0.1-0.6,0.1-0.9,0.1h-10.3c-0.1,0-0.1,0.4-0.1,0.4v6.3l0,0c0,0.1,0.3,0.1,0.4,0.1h10.1c0,0,0.1,0,0.2,0
					c1.9,0.1,3.4,1.6,3.4,3.6c0,1.6-1.1,3-2.6,3.4c-0.3,0.1-0.7,0.2-1.1,0.2h-9.9c0,0-0.4,0-0.5,0c0,0,0,0.1,0,0.1v6.4
					c0,0.1,0.1,0.4,0.1,0.4h10.3c0.1,0,0.2,0,0.3,0c1.8,0.1,3.3,1.7,3.3,3.5c0,0.1,0,0.1,0,0.2c-0.1,1.9-1.6,3.4-3.6,3.4h-14.1
					c-1.8,0-3.2-1.3-3.5-3c0-0.2-0.1-0.4-0.1-0.6V97.5c0,0,0-0.1,0-0.1C146.2,95.4,147.8,93.9,149.8,93.9z"/>
				<path class="st80" d="M149.8,93.9h14.1c1.8,0,3.3,1.4,3.5,3.1c0,0.2,0,0.4,0,0.5c-0.1,1.6-1.2,2.9-2.7,3.3
					c-0.3,0.1-0.6,0.1-0.9,0.1h-10.3c-0.1,0-0.2,0.4-0.2,0.5v6.4l0,0c0,0.1,0.3,0.2,0.4,0.2h10.1c0,0,0.1,0,0.2,0
					c1.9,0.1,3.4,1.6,3.4,3.5c0,1.6-1.1,3-2.6,3.4c-0.3,0.1-0.7,0.2-1,0.2h-9.9c0,0-0.4,0-0.5,0.1c0,0,0,0.1,0,0.2v6.4
					c0,0.1,0.1,0.4,0.2,0.4h10.3c0.1,0,0.2,0,0.3,0c1.8,0.1,3.3,1.6,3.3,3.5c0,0.1,0,0.1,0,0.2c-0.1,1.9-1.6,3.4-3.5,3.4h-14.1
					c-1.8,0-3.2-1.3-3.5-3c0-0.2-0.1-0.4-0.1-0.6V97.5c0,0,0-0.1,0-0.1C146.3,95.5,147.8,93.9,149.8,93.9z"/>
				<path class="st81" d="M149.8,93.9h14.1c1.8,0,3.3,1.4,3.5,3.1c0,0.2,0,0.4,0,0.5c-0.1,1.6-1.2,2.9-2.7,3.3
					c-0.2,0.1-0.6,0.1-0.9,0.1h-10.3c-0.1,0-0.2,0.4-0.2,0.5v6.4l0,0c0,0.1,0.3,0.2,0.4,0.2h10.1c0,0,0.1,0,0.2,0
					c1.9,0.1,3.4,1.6,3.4,3.5c0,1.6-1.1,3-2.7,3.4c-0.3,0.1-0.7,0.1-1,0.1h-9.9c-0.1,0-0.4,0-0.5,0.1c0,0,0,0.1,0,0.2v6.4
					c0,0.1,0.1,0.4,0.2,0.4h10.3c0.1,0,0.2,0,0.3,0c1.8,0.1,3.3,1.6,3.3,3.5c0,0.1,0,0.1,0,0.2c-0.1,1.9-1.6,3.4-3.5,3.4h-14.1
					c-1.8,0-3.2-1.3-3.5-3c0-0.2-0.1-0.4-0.1-0.6V97.5c0,0,0-0.1,0-0.1C146.3,95.5,147.8,93.9,149.8,93.9z"/>
				<path class="st82" d="M149.8,94h14.1c1.8,0,3.3,1.4,3.5,3.1c0,0.2,0,0.4,0,0.5c-0.1,1.6-1.2,2.9-2.8,3.2
					c-0.2,0.1-0.6,0.1-0.8,0.1h-10.3c-0.1,0-0.2,0.4-0.2,0.5v6.4l0,0c0,0.1,0.3,0.2,0.4,0.2h10.1c0,0,0.1,0,0.2,0
					c1.9,0.1,3.4,1.6,3.4,3.5c0,1.6-1.1,3-2.7,3.4c-0.3,0.1-0.7,0.1-1,0.1h-9.9c-0.1,0-0.4,0-0.5,0.1c0,0-0.1,0.1-0.1,0.2v6.4
					c0,0.1,0.1,0.4,0.2,0.4h10.3c0.1,0,0.2,0,0.3,0c1.8,0.1,3.3,1.6,3.3,3.5c0,0.1,0,0.1,0,0.2c-0.1,1.9-1.6,3.4-3.5,3.4h-14.1
					c-1.8,0-3.2-1.3-3.5-3c0-0.2-0.1-0.4-0.1-0.5V97.5c0,0,0-0.1,0-0.1C146.3,95.5,147.9,94,149.8,94z"/>
				<path class="st83" d="M149.8,94h14.1c1.8,0,3.3,1.4,3.5,3.1c0,0.2,0,0.4,0,0.5c-0.1,1.6-1.2,2.9-2.8,3.2
					c-0.2,0.1-0.6,0.1-0.8,0.1h-10.3c-0.1,0-0.2,0.4-0.2,0.5v6.4l0,0c0,0.1,0.3,0.2,0.4,0.2h10.1c0,0,0.1,0,0.2,0
					c1.9,0.1,3.4,1.6,3.4,3.5c0,1.6-1.2,3-2.7,3.4c-0.2,0.1-0.7,0.1-1,0.1h-9.9c-0.1,0-0.4,0-0.5,0.1c0,0-0.1,0.1-0.1,0.2v6.4
					c0,0.1,0.1,0.4,0.2,0.4h10.3c0.1,0,0.2,0,0.3,0c1.8,0.1,3.3,1.6,3.3,3.4c0,0.1,0,0.1,0,0.2c-0.1,1.9-1.6,3.4-3.5,3.4h-14.1
					c-1.7,0-3.2-1.3-3.4-3c0-0.2-0.1-0.4-0.1-0.5V97.5c0,0,0-0.1,0-0.1C146.3,95.6,147.9,94,149.8,94z"/>
				<path class="st84" d="M149.8,94.1h14.1c1.8,0,3.3,1.4,3.4,3.1c0,0.2,0,0.4,0,0.5c-0.1,1.6-1.3,2.9-2.8,3.2
					c-0.2,0.1-0.5,0.1-0.8,0.1h-10.3c-0.1,0-0.3,0.4-0.3,0.5v6.4l0,0c0,0.1,0.3,0.3,0.4,0.3h10.1c0,0,0.1,0,0.2,0
					c1.9,0.1,3.3,1.6,3.3,3.5c0,1.6-1.2,3-2.7,3.3c-0.2,0.1-0.7,0.1-0.9,0.1h-9.9c-0.1,0-0.4,0-0.5,0.1c0,0-0.1,0.1-0.1,0.2v6.4
					c0,0.1,0.1,0.4,0.3,0.4h10.3c0.1,0,0.2,0,0.3,0c1.8,0.1,3.2,1.6,3.3,3.4c0,0.1,0,0.1,0,0.2c-0.1,1.9-1.6,3.4-3.5,3.4h-14.1
					c-1.7,0-3.2-1.3-3.4-3c0-0.2-0.1-0.3-0.1-0.5V97.6c0,0,0-0.1,0-0.1C146.3,95.6,147.9,94.1,149.8,94.1z"/>
				<path class="st85" d="M149.8,94.1h14.1c1.8,0,3.3,1.4,3.4,3.1c0,0.2,0,0.4,0,0.5c-0.1,1.6-1.3,2.9-2.8,3.1
					c-0.2,0.1-0.5,0.1-0.8,0.1h-10.3c-0.2,0-0.3,0.3-0.3,0.5v6.4l0,0c0,0.2,0.3,0.3,0.4,0.3h10.1c0,0,0.1,0,0.2,0
					c1.8,0.1,3.3,1.6,3.3,3.4c0,1.6-1.2,3-2.7,3.3c-0.2,0.1-0.7,0.1-0.9,0.1h-9.9c-0.1,0-0.4,0-0.5,0.1c0,0-0.1,0.1-0.1,0.2v6.4
					c0,0.2,0.1,0.5,0.3,0.5h10.3c0.1,0,0.2,0,0.3,0c1.8,0.1,3.2,1.6,3.3,3.4c0,0.1,0,0.1,0,0.2c-0.1,1.9-1.6,3.3-3.4,3.3h-14.1
					c-1.7,0-3.2-1.3-3.4-3c0-0.1,0-0.3,0-0.5V97.6c0,0,0-0.1,0-0.1C146.3,95.6,147.9,94.1,149.8,94.1z"/>
				<path class="st86" d="M149.8,94.1h14.1c1.8,0,3.3,1.4,3.4,3.1c0,0.2,0,0.4,0,0.5c-0.1,1.6-1.3,2.8-2.8,3.1
					c-0.2,0.1-0.5,0.1-0.7,0.1h-10.2c-0.2,0-0.3,0.3-0.3,0.5v6.4l0,0c0,0.2,0.3,0.3,0.4,0.3h10.1c0,0,0.1,0,0.2,0
					c1.8,0.1,3.3,1.6,3.3,3.4c0,1.7-1.2,3-2.7,3.3c-0.2,0.1-0.6,0.1-0.9,0.1h-9.9c-0.1,0-0.4,0-0.5,0.1c0,0.1-0.1,0.2-0.1,0.2v6.4
					c0,0.2,0.1,0.5,0.3,0.5h10.3c0.1,0,0.2,0,0.3,0c1.8,0.1,3.2,1.6,3.3,3.4c0,0.1,0,0.1,0,0.2c0,1.8-1.6,3.3-3.4,3.3h-14.1
					c-1.7,0-3.2-1.3-3.4-3c0-0.1,0-0.3,0-0.5V97.6c0,0,0-0.1,0-0.1C146.4,95.6,147.9,94.1,149.8,94.1z"/>
				<path class="st87" d="M149.8,94.2h14.1c1.8,0,3.2,1.4,3.4,3.1c0,0.2,0,0.4,0,0.5c-0.1,1.6-1.3,2.8-2.8,3.1
					c-0.2,0.1-0.5,0.1-0.7,0.1h-10.2c-0.2,0-0.3,0.3-0.3,0.5v6.4l0,0c0,0.2,0.3,0.3,0.5,0.3h10.1c0,0,0.1,0,0.2,0
					c1.8,0.1,3.3,1.6,3.3,3.4c0,1.7-1.2,3-2.8,3.3c-0.2,0.1-0.6,0.1-0.9,0.1h-9.9c-0.1,0-0.4,0-0.5,0.1c0,0.1-0.1,0.2-0.1,0.2v6.5
					c0,0.2,0.1,0.5,0.3,0.5h10.2c0.1,0,0.2,0,0.3,0c1.8,0.1,3.2,1.5,3.2,3.3c0,0.1,0,0.1,0,0.2c0,1.8-1.6,3.3-3.4,3.3h-14.1
					c-1.7,0-3.2-1.3-3.4-3c0-0.1,0-0.3,0-0.4V97.6c0,0,0-0.1,0-0.1C146.4,95.7,147.9,94.2,149.8,94.2z"/>
				<path class="st88" d="M149.8,94.2h14.1c1.8,0,3.2,1.4,3.4,3.1c0,0.2,0,0.4,0,0.5c-0.1,1.6-1.3,2.8-2.8,3
					c-0.2,0.1-0.5,0.1-0.7,0.1h-10.2c-0.2,0-0.3,0.3-0.3,0.5v6.4l0,0c0,0.2,0.3,0.3,0.5,0.3h10.2c0,0,0.1,0,0.2,0
					c1.8,0,3.3,1.5,3.3,3.4c0,1.7-1.2,3-2.8,3.3c-0.2,0.1-0.6,0.1-0.8,0.1h-9.9c-0.1,0-0.4,0-0.5,0.1c-0.1,0.1-0.1,0.2-0.1,0.3v6.5
					c0,0.2,0.1,0.5,0.3,0.5h10.2c0.1,0,0.2,0,0.3,0c1.8,0.1,3.2,1.5,3.2,3.3c0,0.1,0,0.1,0,0.2c0,1.8-1.5,3.3-3.4,3.3h-14.1
					c-1.7,0-3.2-1.3-3.3-3c0-0.1,0-0.3,0-0.4V97.6c0,0,0-0.1,0-0.1C146.4,95.7,147.9,94.2,149.8,94.2z"/>
				<path class="st89" d="M149.8,94.3h14.1c1.8,0,3.2,1.4,3.3,3.1c0,0.2,0,0.4,0,0.5c-0.1,1.5-1.3,2.8-2.8,3c-0.2,0-0.5,0.1-0.6,0.1
					h-10.2c-0.2,0-0.4,0.3-0.4,0.5v6.5l0,0c0,0.2,0.3,0.4,0.5,0.4h10.2c0,0,0.1,0,0.2,0c1.8,0,3.3,1.5,3.3,3.4c0,1.7-1.2,3-2.8,3.3
					c-0.2,0.1-0.6,0.1-0.8,0.1h-9.9c-0.1,0-0.4,0-0.5,0.1c-0.1,0.1-0.1,0.2-0.1,0.3v6.5c0,0.2,0.2,0.5,0.4,0.5h10.2c0,0,0.2,0,0.3,0
					c1.8,0.1,3.2,1.5,3.2,3.3c0,0.1,0,0.1,0,0.2c0,1.8-1.5,3.3-3.4,3.3h-14.1c-1.7,0-3.2-1.3-3.3-3c0-0.1,0-0.3,0-0.4V97.7
					c0,0,0-0.1,0-0.1C146.4,95.7,147.9,94.3,149.8,94.3z"/>
				<path class="st90" d="M149.8,94.3h14.1c1.8,0,3.2,1.4,3.3,3.1c0,0.2,0,0.4,0,0.5c-0.1,1.5-1.3,2.8-2.9,3c-0.1,0-0.5,0.1-0.6,0.1
					h-10.2c-0.2,0-0.4,0.3-0.4,0.5v6.5l0,0c0,0.2,0.3,0.4,0.5,0.4h10.2c0,0,0.1,0,0.2,0c1.8,0,3.3,1.5,3.3,3.3c0,1.7-1.2,3-2.8,3.3
					c-0.2,0.1-0.6,0.1-0.8,0.1h-9.9c-0.1,0-0.4,0-0.5,0.1c-0.1,0.1-0.1,0.2-0.1,0.3v6.5c0,0.2,0.2,0.5,0.4,0.5h10.2c0,0,0.2,0,0.3,0
					c1.8,0.1,3.2,1.5,3.2,3.3c0,0.1,0,0.1,0,0.2c0,1.8-1.5,3.3-3.3,3.3h-14.1c-1.7,0-3.2-1.3-3.3-3c0-0.1,0-0.2,0-0.4V97.7
					c0,0,0-0.1,0-0.1C146.4,95.8,147.9,94.3,149.8,94.3z"/>
				<path class="st91" d="M149.8,94.3h14.1c1.8,0,3.2,1.4,3.3,3.1c0,0.2,0,0.4,0,0.5c-0.2,1.5-1.4,2.8-2.9,2.9
					c-0.1,0-0.4,0.1-0.6,0.1h-10.2c-0.2,0-0.4,0.3-0.4,0.5v6.5l0,0c0,0.2,0.3,0.4,0.5,0.4h10.2c0,0,0.1,0,0.2,0
					c1.8,0,3.2,1.5,3.2,3.3c0,1.7-1.2,3-2.8,3.2c-0.1,0.1-0.6,0.1-0.8,0.1h-9.9c-0.1,0-0.4,0.1-0.5,0.1c-0.1,0.1-0.1,0.2-0.1,0.3
					v6.5c0,0.2,0.2,0.5,0.4,0.5h10.2c0,0,0.2,0,0.3,0c1.7,0.1,3.2,1.5,3.2,3.2c0,0.1,0,0.1,0,0.2c0,1.8-1.5,3.3-3.3,3.3h-14.1
					c-1.7,0-3.1-1.3-3.3-3c0-0.1,0-0.2,0-0.3V97.7c0,0,0-0.1,0-0.1C146.5,95.8,147.9,94.3,149.8,94.3z"/>
				<path class="st92" d="M149.8,94.4h14.1c1.8,0,3.2,1.4,3.3,3.1c0,0.2,0,0.4,0,0.5c-0.2,1.5-1.4,2.7-2.9,2.9
					c-0.1,0-0.4,0.1-0.6,0.1h-10.2c-0.2,0-0.4,0.3-0.4,0.6v6.5l0,0c0,0.2,0.3,0.4,0.5,0.4h10.2c0,0,0.1,0,0.2,0
					c1.8,0,3.2,1.5,3.2,3.3c0,1.7-1.3,3-2.9,3.2c-0.1,0-0.6,0.1-0.7,0.1h-9.9c-0.1,0-0.4,0.1-0.5,0.1c-0.1,0.1-0.1,0.2-0.1,0.3v6.5
					c0,0.2,0.2,0.5,0.4,0.5h10.2c0,0,0.2,0,0.3,0c1.7,0.1,3.1,1.5,3.2,3.2c0,0.1,0,0.1,0,0.2c0,1.8-1.5,3.2-3.3,3.2h-14.1
					c-1.7,0-3.1-1.3-3.3-3c0-0.1,0-0.2,0-0.3V97.7c0,0,0-0.1,0-0.1C146.5,95.8,148,94.4,149.8,94.4z"/>
				<path class="st93" d="M149.8,94.4h14.1c1.7,0,3.2,1.4,3.3,3.1c0,0.2,0,0.4,0,0.5c-0.2,1.5-1.4,2.7-2.9,2.9
					c-0.1,0-0.4,0.1-0.5,0.1h-10.2c-0.2,0-0.4,0.3-0.4,0.6v6.5l0,0c0,0.2,0.3,0.4,0.5,0.4h10.2c0,0,0.1,0,0.2,0
					c1.8,0,3.2,1.5,3.2,3.3c0,1.7-1.3,3-2.9,3.2c-0.1,0-0.6,0.1-0.7,0.1h-9.9c-0.1,0-0.4,0.1-0.5,0.1c-0.1,0.1-0.1,0.2-0.1,0.3v6.5
					c0,0.2,0.2,0.5,0.4,0.5h10.2c0,0,0.2,0,0.3,0c1.7,0.1,3.1,1.4,3.2,3.2c0,0,0,0.1,0,0.1c0,1.8-1.5,3.2-3.3,3.2h-14.1
					c-1.7,0-3.1-1.3-3.2-3c0-0.1,0-0.2,0-0.3V97.8c0,0,0-0.1,0-0.1C146.5,95.9,148,94.4,149.8,94.4z"/>
				<path class="st94" d="M149.8,94.5h14.1c1.7,0,3.2,1.4,3.2,3.1c0,0.2,0,0.4,0,0.5c-0.2,1.5-1.4,2.7-2.9,2.8c-0.1,0-0.4,0-0.5,0
					h-10.2c-0.3,0-0.5,0.3-0.5,0.6v6.5l0,0c0,0.3,0.3,0.5,0.5,0.5h10.2c0,0,0.1,0,0.2,0c1.8,0,3.2,1.5,3.2,3.3c0,1.7-1.3,3-2.9,3.2
					c-0.1,0-0.6,0.1-0.7,0.1h-9.9c-0.1,0-0.4,0.1-0.5,0.2c-0.1,0.1-0.1,0.2-0.1,0.3v6.5c0,0.3,0.2,0.6,0.5,0.6h10.2c0,0,0.2,0,0.3,0
					c1.7,0,3.1,1.4,3.2,3.2c0,0,0,0.1,0,0.1c0,1.8-1.5,3.2-3.3,3.2h-14.1c-1.7,0-3.1-1.3-3.2-3c0-0.1,0-0.2,0-0.3V97.8
					c0,0,0-0.1,0-0.1C146.5,95.9,148,94.5,149.8,94.5z"/>
				<path class="st95" d="M149.8,94.5h14.1c1.7,0,3.2,1.4,3.2,3.1c0,0.2,0,0.4,0,0.5c-0.2,1.5-1.4,2.7-2.9,2.8c-0.1,0-0.4,0-0.5,0
					h-10.2c-0.3,0-0.5,0.3-0.5,0.6v6.5l0,0c0,0.3,0.3,0.5,0.6,0.5h10.2c0,0,0.1,0,0.2,0c1.8,0,3.2,1.5,3.2,3.2c0,1.7-1.3,3-2.9,3.2
					c-0.1,0-0.5,0.1-0.7,0.1h-9.9c-0.1,0-0.4,0.1-0.5,0.2c-0.1,0.1-0.1,0.2-0.1,0.3v6.6c0,0.3,0.2,0.6,0.5,0.6h10.2c0,0,0.2,0,0.3,0
					c1.7,0,3.1,1.4,3.2,3.1c0,0,0,0.1,0,0.1c0,1.8-1.5,3.2-3.2,3.2h-14.1c-1.7,0-3.1-1.3-3.2-3c0-0.1,0-0.2,0-0.2V97.8
					c0,0,0-0.1,0-0.1C146.5,95.9,148,94.5,149.8,94.5z"/>
				<path class="st96" d="M149.8,94.5h14.1c1.7,0,3.1,1.4,3.2,3.1c0,0.2,0,0.4,0,0.5c-0.2,1.5-1.4,2.7-2.9,2.8c-0.1,0-0.4,0-0.5,0
					h-10.2c-0.3,0-0.5,0.3-0.5,0.6v6.5l0,0c0,0.3,0.3,0.5,0.6,0.5h10.2c0,0,0.1,0,0.2,0c1.8,0,3.2,1.5,3.2,3.2
					c0,1.7-1.3,3.1-2.9,3.2c-0.1,0-0.5,0-0.6,0h-9.9c-0.1,0-0.4,0.1-0.5,0.2c-0.1,0.1-0.1,0.2-0.1,0.3v6.6c0,0.3,0.2,0.6,0.5,0.6
					h10.2c0,0,0.2,0,0.3,0c1.7,0,3.1,1.4,3.1,3.1c0,0,0,0.1,0,0.1c0,1.8-1.5,3.2-3.2,3.2h-14.1c-1.7,0-3.1-1.4-3.2-3
					c0-0.1,0-0.2,0-0.2V97.8c0,0,0-0.1,0-0.1C146.6,96,148,94.5,149.8,94.5z"/>
				<path class="st97" d="M149.8,94.6h14.1c1.7,0,3.1,1.4,3.2,3.1c0,0.2,0,0.3,0,0.5c-0.2,1.5-1.4,2.7-2.9,2.7c-0.1,0-0.4,0-0.4,0
					h-10.1c-0.3,0-0.5,0.3-0.5,0.6v6.6l0,0c0,0.3,0.3,0.5,0.6,0.5h10.2c0,0,0.1,0,0.2,0c1.7,0,3.2,1.4,3.2,3.2c0,1.7-1.3,3.1-3,3.2
					c-0.1,0-0.5,0-0.6,0h-9.9c-0.2,0-0.4,0.1-0.5,0.2c-0.1,0.1-0.1,0.2-0.1,0.4v6.6c0,0.3,0.2,0.6,0.5,0.6h10.2c0,0,0.2,0,0.3,0
					c1.7,0,3.1,1.4,3.1,3.1c0,0,0,0.1,0,0.1c0,1.7-1.4,3.2-3.2,3.2h-14.1c-1.7,0-3.1-1.4-3.2-3c0,0,0-0.1,0-0.2V97.8
					c0,0,0-0.1,0-0.1C146.6,96,148,94.6,149.8,94.6z"/>
				<path class="st98" d="M149.8,94.6h14.1c1.7,0,3.1,1.4,3.2,3.1c0,0.2,0,0.3,0,0.5c-0.2,1.5-1.4,2.6-3,2.7c-0.1,0-0.3,0-0.4,0
					h-10.1c-0.3,0-0.5,0.3-0.5,0.6v6.6l0,0c0,0.3,0.3,0.5,0.6,0.5h10.2c0,0,0.2,0,0.2,0c1.7,0,3.1,1.4,3.1,3.2c0,1.7-1.3,3.1-3,3.1
					c-0.1,0-0.5,0-0.6,0h-9.9c-0.2,0-0.4,0.1-0.5,0.2c-0.1,0.1-0.1,0.2-0.1,0.4v6.6c0,0.3,0.2,0.6,0.5,0.6h10.2c0,0,0.2,0,0.3,0
					c1.7,0,3.1,1.4,3.1,3.1c0,0,0,0.1,0,0.1c0,1.7-1.4,3.1-3.2,3.1h-14.1c-1.7,0-3.1-1.4-3.2-3c0,0,0-0.1,0-0.2V97.9
					c0,0,0-0.1,0-0.1C146.6,96,148,94.6,149.8,94.6z"/>
				<path class="st99" d="M149.8,94.7h14.1c1.7,0,3.1,1.4,3.1,3.1c0,0.2,0,0.3,0,0.5c-0.2,1.5-1.5,2.6-3,2.7c0,0-0.3,0-0.4,0h-10.1
					c-0.3,0-0.6,0.3-0.6,0.6v6.6l0,0c0,0.3,0.3,0.6,0.6,0.6h10.2c0,0,0.2,0,0.2,0c1.7,0,3.1,1.4,3.1,3.2c0,1.7-1.3,3.1-3,3.1
					c0,0-0.5,0-0.6,0h-9.9c-0.2,0-0.4,0.1-0.5,0.2c-0.1,0.1-0.1,0.2-0.1,0.4v6.6c0,0.3,0.3,0.6,0.6,0.6h10.2c0,0,0.2,0,0.3,0
					c1.7,0,3,1.4,3.1,3c0,0,0,0.1,0,0.1c0,1.7-1.4,3.1-3.2,3.1h-14.1c-1.7,0-3.1-1.4-3.1-3.1c0,0,0-0.1,0-0.2v-28c0,0,0-0.1,0-0.1
					C146.6,96.1,148,94.7,149.8,94.7z"/>
				<path class="st100" d="M149.8,94.7h14.1c1.7,0,3.1,1.4,3.1,3.1c0,0.2,0,0.3,0,0.5c-0.2,1.5-1.5,2.6-3,2.6c0,0-0.3,0-0.4,0h-10.1
					c-0.3,0-0.6,0.3-0.6,0.6v6.6l0,0c0,0.3,0.3,0.6,0.6,0.6h10.2c0,0,0.2,0,0.2,0c1.7,0,3.1,1.4,3.1,3.1c0,1.7-1.3,3.1-3,3.1
					c0,0-0.5,0-0.5,0h-9.9c-0.2,0-0.4,0.1-0.5,0.2c-0.1,0.1-0.1,0.2-0.1,0.4v6.6c0,0.3,0.3,0.6,0.6,0.6h10.1c0,0,0.2,0,0.3,0
					c1.7,0,3,1.3,3.1,3c0,0,0,0.1,0,0.1c0,1.7-1.4,3.1-3.1,3.1h-14.1c-1.7,0-3.1-1.4-3.1-3.1c0,0,0-0.1,0-0.1v-28c0,0,0-0.1,0-0.1
					C146.6,96.1,148,94.7,149.8,94.7z"/>
				<path class="st101" d="M149.8,94.7h14.1c1.7,0,3.1,1.4,3.1,3.1c0,0.2,0,0.3,0,0.5c-0.2,1.5-1.5,2.6-3,2.6c0,0-0.3,0-0.3,0h-10.1
					c-0.3,0-0.6,0.3-0.6,0.6v6.6l0,0c0,0.3,0.3,0.6,0.6,0.6h10.2c0,0,0.2,0,0.2,0c1.7,0,3.1,1.4,3.1,3.1c0,1.7-1.4,3.1-3,3.1
					c0,0-0.5,0-0.5,0h-9.9c-0.2,0-0.4,0.1-0.5,0.2c-0.1,0.1-0.2,0.3-0.2,0.4v6.6c0,0.3,0.3,0.6,0.6,0.6h10.1c0,0,0.2,0,0.3,0
					c1.7,0,3,1.3,3.1,3c0,0,0,0.1,0,0.1c0,1.7-1.4,3.1-3.1,3.1h-14.1c-1.7,0-3.1-1.4-3.1-3.1c0,0,0-0.1,0-0.1v-28c0,0,0-0.1,0-0.1
					C146.7,96.1,148.1,94.7,149.8,94.7z"/>
				<path class="st102" d="M149.8,94.8h14.1c1.7,0,3.1,1.4,3.1,3.1c0,0.2,0,0.3,0,0.5c-0.2,1.5-1.5,2.6-3,2.6c0,0-0.3,0-0.3,0h-10.1
					c-0.3,0-0.6,0.3-0.6,0.6v6.6l0,0c0,0.3,0.3,0.6,0.6,0.6h10.2c0,0,0.2,0,0.2,0c1.7,0,3.1,1.4,3.1,3.1c0,1.7-1.4,3.1-3,3.1
					c0,0-0.5,0-0.5,0h-9.9c-0.2,0-0.4,0.1-0.5,0.2c-0.1,0.1-0.2,0.3-0.2,0.4v6.6c0,0.3,0.3,0.6,0.6,0.6h10.1c0,0,0.2,0,0.3,0
					c1.7,0,3,1.3,3.1,3c0,0,0,0.1,0,0.1c0,1.7-1.4,3.1-3.1,3.1h-14.1c-1.7,0-3.1-1.4-3.1-3.1c0,0,0-0.1,0-0.1V98c0,0,0-0.1,0-0.1
					C146.7,96.2,148.1,94.8,149.8,94.8z"/>
				<path class="st103" d="M149.8,129.1c-1.7,0-3.1-1.4-3.1-3.1V97.9c0-1.7,1.4-3.1,3.1-3.1h14.1c1.7,0,3.1,1.4,3.1,3.1
					c0,1.7-1.4,3.1-3.1,3.1h-10.4c-0.4,0-0.6,0.3-0.6,0.7v6.7c0,0.4,0.3,0.6,0.6,0.6h10.4c1.7,0,3.1,1.4,3.1,3.1
					c0,1.7-1.4,3.1-3.1,3.1h-10.4c-0.4,0-0.6,0.3-0.6,0.6v6.7c0,0.4,0.3,0.7,0.6,0.7h10.4c1.7,0,3.1,1.4,3.1,3.1
					c0,1.7-1.4,3.1-3.1,3.1H149.8z"/>
			</g>
			<g>
				<path class="st71" d="M137.3,93.6c-2.1,0-3.7,1.7-3.7,3.7v17.4l-14.4-19.7c-0.7-0.9-1.8-1.5-3-1.5c-0.4,0-0.8,0.1-1.2,0.2
					c-1.5,0.5-2.5,1.9-2.5,3.5v28.2c0,2.1,1.7,3.7,3.7,3.7c2.1,0,3.7-1.7,3.7-3.7V108l14.4,19.7c0.7,0.9,1.8,1.5,3,1.5
					c0.4,0,0.8-0.1,1.2-0.2c1.5-0.5,2.5-1.9,2.5-3.5V97.3C141.1,95.2,139.4,93.6,137.3,93.6z"/>
				<path class="st73" d="M115,93.8c0.4-0.1,0.8-0.2,1.2-0.2c0.9,0,1.8,0.4,2.5,1c0.2,0.2,0.3,0.3,0.5,0.5l14,19
					c0,0,0.2,0.2,0.2,0.2c0,0,0,0,0,0c0,0,0.3,0.4,0.3,0.4V97.3c0,0,0-0.1,0-0.1c0.1-2,1.7-3.6,3.7-3.6c1.8,0,3.3,1.3,3.6,2.9
					c0.1,0.2,0.1,0.5,0.1,0.8v28.2c0,0,0,0,0,0.1c0,1.6-1,2.9-2.5,3.4c-0.4,0.1-0.8,0.2-1.2,0.2c-0.9,0-1.8-0.4-2.5-1
					c-0.2-0.2-0.3-0.3-0.5-0.5l-14-19c0,0-0.2-0.2-0.2-0.2c0,0,0,0,0,0c0,0-0.3-0.4-0.3-0.4v17.4c0,0,0,0.1,0,0.1
					c-0.1,2-1.7,3.6-3.7,3.6c-1.8,0-3.3-1.3-3.6-2.9c-0.1-0.2-0.1-0.5-0.1-0.8V97.3c0,0,0,0,0-0.1C112.5,95.7,113.6,94.3,115,93.8z"
					/>
				<path class="st74" d="M115,93.8c0.4-0.1,0.8-0.2,1.2-0.2c0.9,0,1.8,0.4,2.5,1c0.2,0.1,0.3,0.3,0.4,0.5l14,19
					c0,0,0.2,0.2,0.2,0.2c0,0,0,0,0,0c0,0,0.3,0.4,0.3,0.4V97.3c0,0,0-0.1,0-0.1c0.1-2,1.7-3.6,3.7-3.6c1.8,0,3.2,1.3,3.6,2.9
					c0.1,0.2,0.1,0.5,0.1,0.8v28.2c0,0,0,0,0,0.1c0,1.6-1,2.9-2.5,3.4c-0.4,0.1-0.8,0.2-1.2,0.2c-0.9,0-1.8-0.4-2.5-1
					c-0.2-0.1-0.3-0.3-0.4-0.5l-14-19c0,0-0.2-0.2-0.2-0.2c0,0,0,0,0,0c0,0-0.3-0.4-0.3-0.4v17.4c0,0,0,0.1,0,0.1
					c-0.1,2-1.7,3.6-3.7,3.6c-1.8,0-3.3-1.3-3.6-2.9c-0.1-0.2-0.1-0.5-0.1-0.8V97.3c0,0,0,0,0-0.1C112.6,95.7,113.6,94.3,115,93.8z"
					/>
				<path class="st75" d="M115.1,93.9c0.4-0.1,0.8-0.2,1.2-0.2c0.9,0,1.8,0.4,2.5,1c0.2,0.1,0.3,0.3,0.4,0.5l14,19
					c0,0,0.2,0.2,0.2,0.2c0,0,0,0,0.1,0c0,0,0.3,0.3,0.3,0.3V97.4c0,0,0-0.1,0-0.1c0.1-2,1.7-3.5,3.7-3.5c1.8,0,3.2,1.3,3.6,2.9
					c0.1,0.2,0.1,0.5,0.1,0.7v28.2c0,0,0,0,0,0.1c0,1.6-1,2.9-2.5,3.4c-0.4,0.1-0.8,0.2-1.2,0.2c-0.9,0-1.8-0.4-2.5-1
					c-0.2-0.1-0.3-0.3-0.4-0.5l-14-19c0,0-0.2-0.2-0.2-0.2c0,0,0,0-0.1,0c0,0-0.3-0.3-0.3-0.3v17.4c0,0,0,0.1,0,0.1
					c-0.1,2-1.7,3.5-3.7,3.5c-1.8,0-3.2-1.3-3.6-2.9c-0.1-0.2-0.1-0.5-0.1-0.7V97.4c0,0,0,0,0-0.1C112.6,95.7,113.6,94.4,115.1,93.9
					z"/>
				<path class="st76" d="M115.1,93.9c0.4-0.1,0.8-0.2,1.2-0.2c0.9,0,1.8,0.4,2.5,1c0.2,0.1,0.3,0.3,0.4,0.5l14,19.1
					c0,0,0.2,0.2,0.2,0.2c0,0,0,0,0.1,0c0,0,0.3,0.3,0.3,0.3V97.4c0,0,0-0.1,0-0.1c0.1-2,1.7-3.5,3.6-3.5c1.8,0,3.2,1.3,3.6,2.9
					c0,0.2,0.1,0.5,0.1,0.7v28.2c0,0,0,0,0,0.1c0,1.5-1,2.9-2.5,3.4c-0.4,0.1-0.8,0.2-1.2,0.2c-0.9,0-1.8-0.4-2.5-1
					c-0.2-0.1-0.3-0.3-0.4-0.5l-14-19.1c0,0-0.2-0.2-0.2-0.2c0,0,0,0-0.1,0c0,0-0.3-0.3-0.3-0.3v17.4c0,0,0,0.1,0,0.1
					c-0.1,2-1.7,3.5-3.6,3.5c-1.8,0-3.2-1.3-3.6-2.9c0-0.2-0.1-0.5-0.1-0.7V97.4c0,0,0,0,0-0.1C112.6,95.8,113.6,94.4,115.1,93.9z"
					/>
				<path class="st77" d="M115.1,94c0.4-0.1,0.8-0.2,1.1-0.2c0.9,0,1.8,0.4,2.5,1c0.1,0.1,0.3,0.3,0.4,0.4l14,19.1
					c0,0,0.2,0.2,0.2,0.2c0,0,0.1,0,0.1,0c0,0,0.3,0.3,0.3,0.3V97.4c0,0,0-0.1,0-0.1c0.1-1.9,1.7-3.5,3.6-3.5c1.8,0,3.2,1.3,3.5,2.9
					c0,0.2,0.1,0.5,0.1,0.7v28.2c0,0,0,0,0,0.1c0,1.5-1,2.9-2.5,3.4c-0.4,0.1-0.8,0.2-1.1,0.2c-0.9,0-1.8-0.4-2.5-1
					c-0.1-0.1-0.3-0.3-0.4-0.4l-14-19.1c0,0-0.2-0.2-0.2-0.2c0,0-0.1,0-0.1,0c0,0-0.3-0.3-0.3-0.3v17.4c0,0,0,0.1,0,0.1
					c-0.1,1.9-1.7,3.5-3.6,3.5c-1.8,0-3.2-1.3-3.5-2.9c0-0.2-0.1-0.5-0.1-0.7V97.4c0,0,0,0,0-0.1C112.6,95.8,113.6,94.5,115.1,94z"
					/>
				<path class="st78" d="M115.1,94c0.4-0.1,0.8-0.2,1.1-0.2c0.9,0,1.8,0.4,2.5,1c0.1,0.1,0.3,0.3,0.4,0.4l14,19.1
					c0,0,0.2,0.2,0.2,0.2c0,0,0.1,0,0.1,0c0.1,0,0.3,0.3,0.3,0.2V97.4c0,0,0-0.1,0-0.1c0.1-1.9,1.6-3.5,3.6-3.5
					c1.8,0,3.2,1.3,3.5,2.9c0,0.2,0.1,0.4,0.1,0.7v28.1c0,0,0,0,0,0.1c0,1.5-1,2.9-2.5,3.4c-0.4,0.1-0.8,0.2-1.1,0.2
					c-0.9,0-1.8-0.4-2.5-1c-0.1-0.1-0.3-0.3-0.4-0.4l-14-19.1c0,0-0.2-0.2-0.2-0.2c0,0-0.1,0-0.1,0c-0.1,0-0.3-0.3-0.3-0.2v17.4
					c0,0,0,0.1,0,0.1c-0.1,1.9-1.6,3.5-3.6,3.5c-1.8,0-3.2-1.3-3.5-2.9c0-0.2-0.1-0.4-0.1-0.7V97.4c0,0,0,0,0-0.1
					C112.6,95.8,113.6,94.5,115.1,94z"/>
				<path class="st79" d="M115.1,94c0.4-0.1,0.8-0.2,1.1-0.2c0.9,0,1.8,0.4,2.5,1c0.1,0.1,0.3,0.3,0.4,0.4l14,19.1
					c0,0,0.2,0.2,0.2,0.2c0,0,0.1,0,0.1,0c0.1,0,0.3,0.2,0.3,0.2V97.5c0,0,0-0.1,0-0.1c0.1-1.9,1.6-3.5,3.6-3.5c1.8,0,3.2,1.3,3.5,3
					c0,0.2,0.1,0.4,0.1,0.6v28.1c0,0,0,0,0,0.1c0,1.5-1,2.9-2.4,3.3c-0.4,0.1-0.7,0.2-1.1,0.2c-0.9,0-1.8-0.4-2.5-1
					c-0.1-0.1-0.3-0.3-0.4-0.4l-14-19.1c0,0-0.2-0.2-0.2-0.2c0,0-0.1,0-0.1,0c-0.1,0-0.3-0.2-0.3-0.2v17.4c0,0,0,0.1,0,0.1
					c-0.1,1.9-1.6,3.5-3.6,3.5c-1.8,0-3.2-1.3-3.5-3c0-0.2-0.1-0.4-0.1-0.6V97.4c0,0,0,0,0-0.1C112.7,95.9,113.6,94.5,115.1,94z"/>
				<path class="st80" d="M115.1,94.1c0.4-0.1,0.7-0.2,1.1-0.2c0.9,0,1.8,0.4,2.5,1c0.1,0.1,0.3,0.3,0.4,0.4l14.1,19.1
					c0,0,0.2,0.2,0.3,0.2c0,0,0.1,0,0.1,0c0.1,0,0.3,0.2,0.3,0.2V97.5c0,0,0-0.1,0-0.1c0-1.9,1.6-3.5,3.5-3.5c1.8,0,3.2,1.3,3.5,3
					c0,0.2,0.1,0.4,0.1,0.6v28.1c0,0,0,0,0,0.1c0,1.5-1,2.8-2.4,3.3c-0.4,0.1-0.7,0.2-1.1,0.2c-0.9,0-1.8-0.4-2.5-1
					c-0.1-0.1-0.3-0.3-0.4-0.4l-14.1-19.1c0,0-0.2-0.2-0.3-0.2c0,0-0.1,0-0.1,0c-0.1,0-0.3-0.2-0.3-0.2v17.4c0,0,0,0.1,0,0.1
					c0,1.9-1.6,3.5-3.5,3.5c-1.8,0-3.2-1.3-3.5-3c0-0.2-0.1-0.4-0.1-0.6V97.5c0,0,0,0,0-0.1C112.7,95.9,113.7,94.6,115.1,94.1z"/>
				<path class="st81" d="M115.1,94.1c0.4-0.1,0.7-0.2,1.1-0.2c0.9,0,1.8,0.4,2.5,1c0.1,0.1,0.2,0.3,0.4,0.4l14.1,19.2
					c0,0,0.2,0.2,0.3,0.2c0,0,0.1,0,0.1,0c0.1,0,0.3,0.2,0.3,0.1V97.5c0,0,0-0.1,0-0.1c0-1.9,1.6-3.4,3.5-3.4c1.8,0,3.2,1.3,3.5,3
					c0,0.2,0.1,0.4,0.1,0.6v28.1c0,0,0,0,0,0.1c0,1.5-1,2.8-2.4,3.3c-0.4,0.1-0.7,0.2-1.1,0.2c-0.9,0-1.8-0.4-2.5-1
					c-0.1-0.1-0.2-0.3-0.3-0.4l-14.1-19.2c0,0-0.2-0.2-0.3-0.2c0,0-0.1,0-0.1,0c-0.1,0-0.3-0.2-0.3-0.1v17.4c0,0,0,0.1,0,0.1
					c0,1.9-1.6,3.4-3.5,3.4c-1.8,0-3.2-1.3-3.5-3c0-0.2-0.1-0.4-0.1-0.6V97.5c0,0,0,0,0-0.1C112.7,95.9,113.7,94.6,115.1,94.1z"/>
				<path class="st82" d="M115.1,94.2c0.4-0.1,0.7-0.2,1.1-0.2c0.9,0,1.8,0.4,2.5,1c0.1,0.1,0.2,0.2,0.3,0.4l14.1,19.2
					c0,0.1,0.2,0.2,0.3,0.2c0,0,0.1,0,0.1,0c0.1,0,0.4,0.2,0.4,0.1V97.5c0,0,0-0.1,0-0.1c0-1.9,1.6-3.4,3.5-3.4c1.7,0,3.2,1.3,3.4,3
					c0,0.2,0.1,0.4,0.1,0.6v28.1c0,0,0,0,0,0.1c0,1.5-1,2.8-2.4,3.3c-0.4,0.1-0.7,0.2-1.1,0.2c-0.9,0-1.8-0.4-2.5-1.1
					c-0.1-0.1-0.2-0.2-0.3-0.4l-14.1-19.2c0-0.1-0.2-0.2-0.3-0.2c0,0-0.1,0-0.1,0c-0.1,0-0.4-0.2-0.4-0.1v17.4c0,0,0,0.1,0,0.1
					c0,1.9-1.6,3.4-3.5,3.4c-1.7,0-3.2-1.3-3.4-3c0-0.2-0.1-0.4-0.1-0.6V97.5c0,0,0,0,0-0.1C112.7,96,113.7,94.6,115.1,94.2z"/>
				<path class="st83" d="M115.1,94.2c0.4-0.1,0.7-0.2,1.1-0.2c0.9,0,1.8,0.4,2.5,1.1c0.1,0.1,0.2,0.2,0.3,0.4l14.1,19.2
					c0,0.1,0.2,0.2,0.3,0.2c0,0,0.1,0,0.1,0c0.1,0,0.4,0.2,0.4,0.1V97.5c0,0,0-0.1,0-0.1c0-1.9,1.6-3.4,3.5-3.4c1.7,0,3.2,1.3,3.4,3
					c0,0.2,0.1,0.4,0.1,0.5v28.1c0,0,0,0,0,0.1c0,1.5-1,2.8-2.4,3.3c-0.4,0.1-0.7,0.2-1.1,0.2c-0.9,0-1.8-0.4-2.5-1.1
					c-0.1-0.1-0.2-0.2-0.3-0.4l-14.1-19.2c0-0.1-0.2-0.2-0.3-0.2c0,0-0.1,0-0.1,0c-0.1,0-0.4-0.1-0.4-0.1v17.4c0,0,0,0.1,0,0.1
					c0,1.9-1.6,3.4-3.5,3.4c-1.7,0-3.2-1.3-3.4-3c0-0.2-0.1-0.4-0.1-0.5V97.5c0,0,0,0,0-0.1C112.7,96,113.7,94.7,115.1,94.2z"/>
				<path class="st84" d="M115.1,94.2c0.4-0.1,0.7-0.2,1.1-0.2c0.9,0,1.8,0.4,2.5,1.1c0.1,0.1,0.2,0.2,0.3,0.3l14.1,19.2
					c0,0.1,0.2,0.2,0.3,0.2c0,0,0.1,0,0.1,0c0.1,0,0.4,0.1,0.4,0V97.6c0,0,0-0.1,0-0.1c0-1.9,1.6-3.4,3.5-3.4c1.7,0,3.2,1.3,3.4,3
					c0,0.2,0.1,0.3,0.1,0.5v28.1c0,0,0,0,0,0.1c0,1.5-1,2.8-2.4,3.2c-0.4,0.1-0.7,0.2-1.1,0.2c-0.9,0-1.8-0.4-2.5-1.1
					c-0.1-0.1-0.2-0.2-0.3-0.3l-14.1-19.2c0-0.1-0.2-0.2-0.3-0.2c0,0-0.1,0-0.1,0c-0.1,0-0.4-0.1-0.4,0v17.4c0,0,0,0.1,0,0.1
					c0,1.9-1.6,3.4-3.5,3.4c-1.7,0-3.2-1.3-3.4-3c0-0.2-0.1-0.3-0.1-0.5V97.5c0,0,0,0,0-0.1C112.8,96,113.7,94.7,115.1,94.2z"/>
				<path class="st85" d="M115.1,94.3c0.4-0.1,0.7-0.2,1.1-0.2c0.9,0,1.8,0.4,2.5,1.1c0.1,0.1,0.2,0.2,0.3,0.3l14.1,19.2
					c0.1,0.1,0.2,0.2,0.3,0.2c0,0,0.1,0,0.1,0c0.1,0,0.4,0.1,0.4,0V97.6c0,0,0-0.1,0-0.1c0-1.9,1.6-3.4,3.4-3.4c1.7,0,3.2,1.3,3.4,3
					c0,0.1,0.1,0.3,0.1,0.5v28.1c0,0,0,0,0,0.1c0,1.5-1,2.8-2.4,3.2c-0.4,0.1-0.7,0.2-1.1,0.2c-0.9,0-1.8-0.4-2.5-1.1
					c-0.1-0.1-0.2-0.2-0.3-0.3l-14.1-19.2c-0.1-0.1-0.2-0.2-0.3-0.2c0,0-0.1,0-0.1,0c-0.1,0-0.4-0.1-0.4,0v17.4c0,0,0,0.1,0,0.1
					c0,1.9-1.6,3.4-3.4,3.4c-1.7,0-3.2-1.3-3.4-3c0-0.1-0.1-0.3-0.1-0.5V97.6c0,0,0,0,0-0.1C112.8,96,113.7,94.7,115.1,94.3z"/>
				<path class="st86" d="M115.1,94.3c0.4-0.1,0.7-0.2,1.1-0.2c0.9,0,1.8,0.4,2.5,1.1c0.1,0.1,0.2,0.2,0.3,0.3l14.1,19.3
					c0.1,0.1,0.2,0.2,0.3,0.2c0,0,0.1,0,0.1,0c0.1,0,0.4,0.1,0.4-0.1V97.6c0,0,0-0.1,0-0.1c0-1.9,1.6-3.4,3.4-3.4
					c1.7,0,3.2,1.3,3.4,3c0,0.1,0,0.3,0,0.5v28.1c0,0,0,0,0,0.1c0,1.5-0.9,2.8-2.3,3.2c-0.4,0.1-0.7,0.2-1.1,0.2
					c-0.9,0-1.8-0.4-2.5-1.1c-0.1-0.1-0.2-0.2-0.3-0.3l-14.1-19.3c-0.1-0.1-0.2-0.2-0.3-0.2c0,0-0.1,0-0.1,0c-0.1,0-0.4-0.1-0.4,0.1
					v17.4c0,0,0,0.1,0,0.1c0,1.9-1.6,3.4-3.4,3.4c-1.7,0-3.2-1.3-3.4-3c0-0.1,0-0.3,0-0.5V97.6c0,0,0,0,0-0.1
					C112.8,96.1,113.7,94.8,115.1,94.3z"/>
				<path class="st87" d="M115.1,94.4c0.3-0.1,0.7-0.2,1.1-0.2c0.9,0,1.8,0.4,2.5,1.1c0.1,0.1,0.2,0.2,0.3,0.3l14.2,19.3
					c0.1,0.1,0.2,0.2,0.3,0.2c0,0,0.1,0,0.1,0c0.1,0,0.4,0.1,0.4-0.1V97.6c0,0,0-0.1,0-0.1c0-1.8,1.5-3.3,3.4-3.3
					c1.7,0,3.2,1.3,3.4,3c0,0.1,0,0.3,0,0.4v28.1c0,0,0,0,0,0.1c0,1.5-0.9,2.7-2.3,3.2c-0.3,0.1-0.7,0.2-1.1,0.2
					c-0.9,0-1.8-0.4-2.5-1.1c-0.1-0.1-0.2-0.2-0.3-0.3l-14.2-19.3c-0.1-0.1-0.2-0.2-0.3-0.2c0,0-0.1,0-0.1,0c-0.1,0-0.4-0.1-0.4,0.1
					v17.4c0,0,0,0.1,0,0.1c0,1.8-1.5,3.3-3.4,3.3c-1.7,0-3.2-1.3-3.4-3c0-0.1,0-0.3,0-0.4V97.6c0,0,0,0,0-0.1
					C112.8,96.1,113.8,94.8,115.1,94.4z"/>
				<path class="st88" d="M115.1,94.4c0.3-0.1,0.7-0.2,1.1-0.2c0.9,0,1.8,0.4,2.5,1.1c0.1,0.1,0.2,0.2,0.3,0.3l14.2,19.3
					c0.1,0.1,0.2,0.2,0.3,0.2c0,0,0.1,0,0.1,0c0.1,0,0.4,0,0.4-0.1V97.7c0,0,0-0.1,0-0.1c0-1.8,1.5-3.3,3.4-3.3c1.7,0,3.2,1.3,3.3,3
					c0,0.1,0,0.3,0,0.4v28.1c0,0,0,0,0,0.1c0,1.4-0.9,2.7-2.3,3.2c-0.3,0.1-0.7,0.2-1.1,0.2c-0.9,0-1.8-0.4-2.5-1.1
					c-0.1-0.1-0.2-0.2-0.3-0.3l-14.2-19.3c-0.1-0.1-0.2-0.2-0.3-0.2c0,0-0.1,0-0.1,0c-0.1,0-0.4,0-0.4,0.1v17.4c0,0,0,0.1,0,0.1
					c0,1.8-1.5,3.3-3.4,3.3c-1.7,0-3.2-1.3-3.3-3c0-0.1,0-0.3,0-0.4V97.6c0,0,0,0,0-0.1C112.8,96.1,113.8,94.9,115.1,94.4z"/>
				<path class="st89" d="M115.1,94.4c0.3-0.1,0.7-0.2,1.1-0.2c0.9,0,1.8,0.4,2.5,1.1c0.1,0.1,0.2,0.2,0.2,0.3l14.2,19.3
					c0.1,0.1,0.2,0.2,0.4,0.2c0,0,0.1,0,0.1,0c0.1,0,0.4,0,0.4-0.2V97.7c0,0,0-0.1,0-0.1c0-1.8,1.5-3.3,3.4-3.3c1.7,0,3.2,1.3,3.3,3
					c0,0.1,0,0.3,0,0.4v28.1c0,0,0,0,0,0.1c0,1.4-0.9,2.7-2.3,3.2c-0.3,0.1-0.7,0.2-1.1,0.2c-0.9,0-1.8-0.4-2.5-1.1
					c-0.1-0.1-0.2-0.2-0.2-0.3l-14.2-19.3c-0.1-0.1-0.2-0.2-0.4-0.2c0,0-0.1,0-0.1,0c-0.1,0-0.4,0-0.4,0.2v17.4c0,0,0,0.1,0,0.1
					c0,1.8-1.5,3.3-3.4,3.3c-1.7,0-3.2-1.3-3.3-3c0-0.1,0-0.3,0-0.4V97.6c0,0,0,0,0-0.1C112.9,96.2,113.8,94.9,115.1,94.4z"/>
				<path class="st90" d="M115.2,94.5c0.3-0.1,0.7-0.2,1.1-0.2c0.9,0,1.9,0.4,2.5,1.1c0.1,0.1,0.2,0.2,0.2,0.3l14.2,19.3
					c0.1,0.1,0.3,0.2,0.4,0.2c0,0,0.1,0,0.1,0c0.2-0.1,0.4,0,0.4-0.2V97.7c0,0,0-0.1,0-0.1c0-1.8,1.5-3.3,3.3-3.3
					c1.7,0,3.1,1.3,3.3,3c0,0.1,0,0.3,0,0.4v28.1c0,0,0,0,0,0.1c0,1.4-0.9,2.7-2.3,3.1c-0.3,0.1-0.7,0.2-1.1,0.2
					c-0.9,0-1.8-0.4-2.5-1.1c-0.1-0.1-0.2-0.2-0.2-0.2l-14.2-19.3c-0.1-0.1-0.3-0.2-0.4-0.2c0,0-0.1,0-0.1,0c-0.2,0-0.4,0-0.4,0.2
					v17.4c0,0,0,0.1,0,0.1c0,1.8-1.5,3.3-3.3,3.3c-1.7,0-3.1-1.3-3.3-3c0-0.1,0-0.3,0-0.4V97.7c0,0,0,0,0-0.1
					C112.9,96.2,113.8,94.9,115.2,94.5z"/>
				<path class="st91" d="M115.2,94.5c0.3-0.1,0.7-0.2,1.1-0.2c0.9,0,1.9,0.4,2.5,1.1c0.1,0.1,0.2,0.2,0.2,0.2l14.2,19.4
					c0.1,0.1,0.3,0.2,0.4,0.2c0,0,0.1,0,0.1,0c0.2-0.1,0.4,0,0.4-0.2V97.7c0,0,0-0.1,0-0.1c0-1.8,1.5-3.3,3.3-3.3
					c1.7,0,3.1,1.3,3.3,3c0,0.1,0,0.2,0,0.3v28.1c0,0,0,0,0,0.1c0,1.4-0.9,2.7-2.3,3.1c-0.3,0.1-0.7,0.2-1.1,0.2
					c-0.9,0-1.8-0.4-2.5-1.1c-0.1-0.1-0.2-0.2-0.2-0.2l-14.2-19.4c-0.1-0.1-0.3-0.2-0.4-0.2c0,0-0.1,0-0.1,0c-0.2,0.1-0.4,0-0.4,0.2
					v17.4c0,0,0,0.1,0,0.1c0,1.8-1.5,3.3-3.3,3.3c-1.7,0-3.1-1.3-3.3-3c0-0.1,0-0.2,0-0.3V97.7c0,0,0,0,0-0.1
					C112.9,96.2,113.8,95,115.2,94.5z"/>
				<path class="st92" d="M115.2,94.5c0.3-0.1,0.7-0.2,1-0.2c0.9,0,1.9,0.4,2.5,1.1c0.1,0.1,0.1,0.2,0.2,0.2l14.2,19.4
					c0.1,0.1,0.3,0.2,0.4,0.2c0,0,0.1,0,0.1,0c0.2-0.1,0.4-0.1,0.4-0.3V97.7c0,0,0-0.1,0-0.1c0-1.8,1.5-3.3,3.3-3.3
					c1.7,0,3.1,1.3,3.3,3c0,0.1,0,0.2,0,0.3v28.1c0,0,0,0,0,0.1c0,1.4-0.9,2.7-2.3,3.1c-0.3,0.1-0.7,0.2-1.1,0.2
					c-0.9,0-1.8-0.4-2.5-1.1c-0.1-0.1-0.1-0.2-0.2-0.2l-14.2-19.4c-0.1-0.1-0.3-0.2-0.4-0.2c0,0-0.1,0-0.1,0
					c-0.2,0.1-0.4,0.1-0.4,0.3v17.4c0,0,0,0.1,0,0.1c0,1.8-1.5,3.3-3.3,3.3c-1.7,0-3.1-1.3-3.3-3c0-0.1,0-0.2,0-0.3V97.7
					c0,0,0,0,0-0.1C112.9,96.2,113.8,95,115.2,94.5z"/>
				<path class="st93" d="M115.2,94.6c0.3-0.1,0.7-0.2,1-0.2c0.9,0,1.9,0.4,2.5,1.1c0.1,0.1,0.1,0.1,0.2,0.2l14.2,19.4
					c0.1,0.1,0.3,0.2,0.4,0.2c0,0,0.1,0,0.2,0c0.2-0.1,0.4-0.1,0.4-0.3V97.8c0,0,0-0.1,0-0.1c0-1.8,1.5-3.2,3.3-3.2
					c1.7,0,3.1,1.3,3.2,3c0,0.1,0,0.2,0,0.3v28.1c0,0,0,0,0,0.1c0,1.4-0.9,2.6-2.2,3.1c-0.3,0.1-0.7,0.2-1,0.2
					c-0.9,0-1.9-0.4-2.5-1.1c-0.1-0.1-0.1-0.1-0.2-0.2l-14.2-19.4c-0.1-0.1-0.3-0.2-0.4-0.2c0,0-0.1,0-0.2,0
					c-0.2,0.1-0.4,0.1-0.4,0.3v17.4c0,0,0,0.1,0,0.1c0,1.8-1.5,3.2-3.3,3.2c-1.7,0-3.1-1.3-3.2-3c0-0.1,0-0.2,0-0.3V97.7
					c0,0,0,0,0-0.1C112.9,96.3,113.8,95,115.2,94.6z"/>
				<path class="st94" d="M115.2,94.6c0.3-0.1,0.7-0.2,1-0.2c1,0,1.9,0.4,2.5,1.2c0.1,0,0.1,0.1,0.2,0.2l14.3,19.4
					c0.1,0.1,0.3,0.3,0.4,0.3c0,0,0.1,0,0.2,0c0.2-0.1,0.4-0.1,0.4-0.3V97.8c0,0,0-0.1,0-0.1c0-1.8,1.5-3.2,3.3-3.2
					c1.7,0,3.1,1.3,3.2,3c0,0.1,0,0.2,0,0.3v28.1c0,0,0,0,0,0.1c0,1.4-0.9,2.6-2.2,3.1c-0.3,0.1-0.7,0.2-1,0.2
					c-0.9,0-1.9-0.4-2.5-1.2c-0.1,0-0.1-0.1-0.2-0.2l-14.3-19.4c-0.1-0.1-0.3-0.3-0.4-0.3c0,0-0.1,0-0.2,0c-0.2,0.1-0.4,0.1-0.4,0.3
					v17.4c0,0,0,0.1,0,0.1c0,1.8-1.5,3.2-3.3,3.2c-1.7,0-3.1-1.3-3.2-3c0-0.1,0-0.2,0-0.3V97.8c0,0,0,0,0-0.1
					C113,96.3,113.9,95.1,115.2,94.6z"/>
				<path class="st95" d="M115.2,94.7c0.3-0.1,0.7-0.2,1-0.2c1,0,1.9,0.4,2.5,1.2c0,0,0.1,0.1,0.2,0.2l14.3,19.4
					c0.1,0.1,0.3,0.3,0.4,0.3c0.1,0,0.1,0,0.2,0c0.2-0.1,0.4-0.1,0.4-0.4V97.8c0,0,0-0.1,0-0.1c0-1.8,1.5-3.2,3.2-3.2
					c1.7,0,3.1,1.3,3.2,3c0,0.1,0,0.2,0,0.3v28.1c0,0,0,0,0,0.1c0,1.4-0.9,2.6-2.2,3.1c-0.3,0.1-0.7,0.2-1,0.2
					c-0.9,0-1.9-0.4-2.5-1.2c0,0-0.1-0.1-0.2-0.2l-14.3-19.4c-0.1-0.1-0.3-0.3-0.4-0.3c-0.1,0-0.1,0-0.2,0c-0.2,0.1-0.4,0.1-0.4,0.4
					v17.4c0,0,0,0.1,0,0.1c0,1.8-1.5,3.2-3.2,3.2c-1.7,0-3.1-1.3-3.2-3c0-0.1,0-0.2,0-0.3V97.8c0,0,0,0,0-0.1
					C113,96.3,113.9,95.1,115.2,94.7z"/>
				<path class="st96" d="M115.2,94.7c0.3-0.1,0.7-0.2,1-0.2c1,0,1.9,0.4,2.5,1.2c0,0,0.1,0.1,0.1,0.2l14.3,19.5
					c0.1,0.1,0.3,0.3,0.4,0.3c0.1,0,0.1,0,0.2,0c0.2-0.1,0.4-0.2,0.4-0.4V97.8c0,0,0-0.1,0-0.1c0-1.8,1.4-3.2,3.2-3.2
					c1.7,0,3.1,1.3,3.2,3c0,0.1,0,0.2,0,0.2v28.1c0,0,0,0,0,0.1c0,1.4-0.9,2.6-2.2,3c-0.3,0.1-0.7,0.2-1,0.2c-0.9,0-1.9-0.4-2.5-1.2
					c0,0-0.1-0.1-0.1-0.2l-14.3-19.5c-0.1-0.1-0.3-0.3-0.4-0.3c-0.1,0-0.1,0-0.2,0c-0.2,0.1-0.4,0.2-0.4,0.4v17.4c0,0,0,0.1,0,0.1
					c0,1.8-1.5,3.2-3.2,3.2c-1.7,0-3.1-1.3-3.2-3c0-0.1,0-0.2,0-0.2V97.8c0,0,0,0,0-0.1C113,96.4,113.9,95.1,115.2,94.7z"/>
				<path class="st97" d="M115.2,94.7c0.3-0.1,0.7-0.2,1-0.2c1,0,1.9,0.4,2.5,1.2c0,0,0.1,0.1,0.1,0.1l14.3,19.5
					c0.1,0.1,0.3,0.3,0.5,0.3c0.1,0,0.1,0,0.2,0c0.2-0.1,0.4-0.2,0.4-0.4V97.9c0,0,0-0.1,0-0.1c0-1.8,1.4-3.2,3.2-3.2
					c1.7,0,3.1,1.4,3.2,3c0,0,0,0.2,0,0.2v28.1c0,0,0,0,0,0.1c0,1.4-0.9,2.6-2.2,3c-0.3,0.1-0.7,0.2-1,0.2c-0.9,0-1.9-0.4-2.5-1.2
					c0,0-0.1-0.1-0.1-0.1l-14.3-19.5c-0.1-0.1-0.3-0.3-0.5-0.3c-0.1,0-0.1,0-0.2,0c-0.2,0.1-0.4,0.2-0.4,0.4v17.3c0,0,0,0.1,0,0.1
					c0,1.8-1.4,3.2-3.2,3.2c-1.7,0-3.1-1.4-3.2-3c0,0,0-0.2,0-0.2V97.8c0,0,0,0,0-0.1C113,96.4,113.9,95.2,115.2,94.7z"/>
				<path class="st98" d="M115.2,94.8c0.3-0.1,0.7-0.2,1-0.2c1,0,1.9,0.4,2.5,1.2c0,0,0.1,0.1,0.1,0.1l14.3,19.5
					c0.1,0.1,0.3,0.3,0.5,0.3c0.1,0,0.1,0,0.2,0c0.2-0.1,0.4-0.2,0.4-0.5V97.9c0,0,0-0.1,0-0.1c0-1.7,1.4-3.2,3.2-3.2
					c1.7,0,3.1,1.4,3.2,3c0,0,0,0.1,0,0.2v28.1c0,0,0,0,0,0.1c0,1.4-0.9,2.6-2.2,3c-0.3,0.1-0.7,0.2-1,0.2c-0.9,0-1.9-0.4-2.5-1.2
					c0,0-0.1-0.1-0.1-0.1l-14.3-19.5c-0.1-0.1-0.3-0.3-0.5-0.3c-0.1,0-0.1,0-0.2,0c-0.2,0.1-0.4,0.2-0.4,0.5v17.3c0,0,0,0.1,0,0.1
					c0,1.7-1.4,3.2-3.2,3.2c-1.7,0-3.1-1.4-3.2-3c0,0,0-0.1,0-0.2V97.8c0,0,0,0,0-0.1C113,96.4,113.9,95.2,115.2,94.8z"/>
				<path class="st99" d="M115.2,94.8c0.3-0.1,0.7-0.2,1-0.2c1,0,1.9,0.4,2.5,1.2c0,0,0.1,0.1,0.1,0.1l14.3,19.5
					c0.1,0.1,0.3,0.3,0.5,0.3c0.1,0,0.1,0,0.2,0c0.2-0.1,0.4-0.2,0.4-0.5V97.9c0,0,0-0.1,0-0.1c0-1.7,1.4-3.1,3.2-3.1
					c1.7,0,3.1,1.4,3.1,3c0,0,0,0.1,0,0.2v28.1c0,0,0,0,0,0.1c0,1.4-0.9,2.6-2.2,3c-0.3,0.1-0.7,0.2-1,0.2c-1,0-1.9-0.4-2.5-1.2
					c0,0-0.1-0.1-0.1-0.1l-14.3-19.5c-0.1-0.1-0.3-0.3-0.5-0.3c-0.1,0-0.1,0-0.2,0c-0.2,0.1-0.4,0.2-0.4,0.5v17.3c0,0,0,0.1,0,0.1
					c0,1.7-1.4,3.1-3.2,3.1c-1.7,0-3.1-1.4-3.1-3c0,0,0-0.1,0-0.2V97.9c0,0,0,0,0-0.1C113.1,96.4,113.9,95.3,115.2,94.8z"/>
				<path class="st100" d="M115.2,94.9c0.3-0.1,0.7-0.2,1-0.2c1,0,1.9,0.4,2.5,1.2c0,0,0.1,0.1,0.1,0.1l14.4,19.5
					c0.1,0.2,0.3,0.3,0.5,0.3c0.1,0,0.1,0,0.2,0c0.2-0.1,0.4-0.3,0.4-0.5V97.9c0,0,0-0.1,0-0.1c0-1.7,1.4-3.1,3.1-3.1
					c1.7,0,3.1,1.4,3.1,3.1c0,0,0,0.1,0,0.1V126c0,0,0,0,0,0.1c0,1.3-0.9,2.5-2.1,3c-0.3,0.1-0.7,0.2-1,0.2c-1,0-1.9-0.4-2.5-1.2
					c0,0-0.1-0.1-0.1-0.1l-14.3-19.5c-0.1-0.2-0.3-0.3-0.5-0.3c-0.1,0-0.1,0-0.2,0c-0.2,0.1-0.4,0.3-0.4,0.5v17.3c0,0,0,0.1,0,0.1
					c0,1.7-1.4,3.1-3.1,3.1c-1.7,0-3.1-1.4-3.1-3.1c0,0,0-0.1,0-0.1V97.9c0,0,0,0,0-0.1C113.1,96.5,113.9,95.3,115.2,94.9z"/>
				<path class="st101" d="M115.2,94.9c0.3-0.1,0.7-0.2,1-0.2c1,0,1.9,0.5,2.5,1.2c0,0,0.1,0.1,0.1,0.1l14.4,19.6
					c0.1,0.2,0.3,0.3,0.5,0.3c0.1,0,0.1,0,0.2,0c0.2-0.1,0.4-0.3,0.4-0.6V97.9c0,0,0-0.1,0-0.1c0-1.7,1.4-3.1,3.1-3.1
					c1.7,0,3.1,1.4,3.1,3.1c0,0,0,0.1,0,0.1V126c0,0,0,0,0,0.1c0,1.3-0.9,2.5-2.1,2.9c-0.3,0.1-0.7,0.2-1,0.2c-1,0-1.9-0.5-2.5-1.2
					c0,0-0.1-0.1-0.1-0.1l-14.4-19.6c-0.1-0.2-0.3-0.3-0.5-0.3c-0.1,0-0.1,0-0.2,0c-0.3,0.1-0.4,0.3-0.4,0.6v17.3c0,0,0,0.1,0,0.1
					c0,1.7-1.4,3.1-3.1,3.1c-1.7,0-3.1-1.4-3.1-3.1c0,0,0-0.1,0-0.1V97.9c0,0,0,0,0-0.1C113.1,96.5,114,95.3,115.2,94.9z"/>
				<path class="st102" d="M115.2,94.9c0.3-0.1,0.6-0.2,1-0.2c1,0,1.9,0.5,2.4,1.2c0,0,0,0.1,0.1,0.1l14.4,19.6
					c0.1,0.2,0.3,0.3,0.5,0.3c0.1,0,0.1,0,0.2,0c0.3-0.1,0.4-0.3,0.4-0.6V98c0,0,0-0.1,0-0.1c0-1.7,1.4-3.1,3.1-3.1
					c1.7,0,3.1,1.4,3.1,3.1c0,0,0,0.1,0,0.1V126c0,0,0,0,0,0.1c0,1.3-0.8,2.5-2.1,2.9c-0.3,0.1-0.6,0.2-1,0.2c-1,0-1.9-0.5-2.4-1.2
					c0,0,0-0.1-0.1-0.1l-14.4-19.6c-0.1-0.2-0.3-0.3-0.5-0.3c-0.1,0-0.1,0-0.2,0c-0.3,0.1-0.4,0.3-0.4,0.6v17.3c0,0,0,0.1,0,0.1
					c0,1.7-1.4,3.1-3.1,3.1c-1.7,0-3.1-1.4-3.1-3.1c0,0,0-0.1,0-0.1V97.9c0,0,0,0,0,0C113.1,96.5,114,95.4,115.2,94.9z"/>
				<path class="st103" d="M137.3,129.1c-1,0-1.9-0.5-2.4-1.2l-14.4-19.7c-0.1-0.2-0.3-0.3-0.5-0.3c-0.1,0-0.1,0-0.2,0
					c-0.3,0.1-0.4,0.3-0.4,0.6v17.4c0,1.7-1.4,3.1-3.1,3.1c-1.7,0-3.1-1.4-3.1-3.1V97.9c0-1.3,0.8-2.5,2.1-2.9
					c0.3-0.1,0.6-0.2,1-0.2c1,0,1.9,0.5,2.4,1.2l14.4,19.7c0.1,0.2,0.3,0.3,0.5,0.3c0.1,0,0.1,0,0.2,0c0.3-0.1,0.4-0.3,0.4-0.6V97.9
					c0-1.7,1.4-3.1,3.1-3.1c1.7,0,3.1,1.4,3.1,3.1v28.2c0,1.3-0.8,2.5-2.1,2.9C138,129.1,137.7,129.1,137.3,129.1z"/>
			</g>
			<g>
				<path class="st71" d="M103.4,93.6c-2,0-3.7,1.7-3.7,3.7v28.2c0,2.1,1.7,3.7,3.7,3.7c2.1,0,3.7-1.7,3.7-3.7V97.3
					C107.1,95.2,105.5,93.6,103.4,93.6z"/>
				<path class="st73" d="M103.4,129.2c-2,0-3.7-1.7-3.7-3.7V97.3c0-2,1.7-3.7,3.7-3.7c2,0,3.7,1.7,3.7,3.7v28.2
					C107.1,127.5,105.5,129.2,103.4,129.2z"/>
				<path class="st74" d="M103.4,129.2c-2,0-3.7-1.6-3.7-3.7V97.3c0-2,1.6-3.7,3.7-3.7c2,0,3.7,1.6,3.7,3.7v28.2
					C107.1,127.5,105.5,129.2,103.4,129.2z"/>
				<path class="st75" d="M103.4,129.2c-2,0-3.7-1.6-3.7-3.7V97.4c0-2,1.6-3.7,3.7-3.7c2,0,3.7,1.6,3.7,3.7v28.2
					C107.1,127.5,105.4,129.2,103.4,129.2z"/>
				<path class="st76" d="M103.4,129.2c-2,0-3.6-1.6-3.6-3.6V97.4c0-2,1.6-3.6,3.6-3.6c2,0,3.6,1.6,3.6,3.6v28.2
					C107.1,127.6,105.4,129.2,103.4,129.2z"/>
				<path class="st77" d="M103.4,129.2c-2,0-3.6-1.6-3.6-3.6V97.4c0-2,1.6-3.6,3.6-3.6c2,0,3.6,1.6,3.6,3.6v28.2
					C107,127.6,105.4,129.2,103.4,129.2z"/>
				<path class="st78" d="M103.4,129.2c-2,0-3.6-1.6-3.6-3.6V97.4c0-2,1.6-3.6,3.6-3.6c2,0,3.6,1.6,3.6,3.6v28.2
					C107,127.6,105.4,129.2,103.4,129.2z"/>
				<path class="st79" d="M103.4,129.2c-2,0-3.6-1.6-3.6-3.6V97.4c0-2,1.6-3.6,3.6-3.6c2,0,3.6,1.6,3.6,3.6v28.2
					C107,127.6,105.4,129.2,103.4,129.2z"/>
				<path class="st80" d="M103.4,129.2c-2,0-3.5-1.6-3.5-3.6V97.5c0-2,1.6-3.6,3.5-3.6c2,0,3.5,1.6,3.5,3.6v28.2
					C107,127.6,105.4,129.2,103.4,129.2z"/>
				<path class="st81" d="M103.4,129.2c-1.9,0-3.5-1.6-3.5-3.5V97.5c0-1.9,1.6-3.5,3.5-3.5c1.9,0,3.5,1.6,3.5,3.5v28.2
					C107,127.6,105.4,129.2,103.4,129.2z"/>
				<path class="st82" d="M103.4,129.2c-1.9,0-3.5-1.6-3.5-3.5V97.5c0-1.9,1.6-3.5,3.5-3.5c1.9,0,3.5,1.6,3.5,3.5v28.2
					C106.9,127.6,105.4,129.2,103.4,129.2z"/>
				<path class="st83" d="M103.4,129.2c-1.9,0-3.5-1.6-3.5-3.5V97.5c0-1.9,1.6-3.5,3.5-3.5c1.9,0,3.5,1.6,3.5,3.5v28.2
					C106.9,127.6,105.4,129.2,103.4,129.2z"/>
				<path class="st84" d="M103.4,129.2c-1.9,0-3.5-1.6-3.5-3.5V97.5c0-1.9,1.6-3.5,3.5-3.5c1.9,0,3.5,1.6,3.5,3.5v28.2
					C106.9,127.6,105.3,129.2,103.4,129.2z"/>
				<path class="st85" d="M103.4,129.2c-1.9,0-3.4-1.5-3.4-3.4V97.5c0-1.9,1.5-3.4,3.4-3.4c1.9,0,3.4,1.5,3.4,3.4v28.2
					C106.9,127.6,105.3,129.2,103.4,129.2z"/>
				<path class="st86" d="M103.4,129.2c-1.9,0-3.4-1.5-3.4-3.4V97.6c0-1.9,1.5-3.4,3.4-3.4c1.9,0,3.4,1.5,3.4,3.4v28.2
					C106.9,127.6,105.3,129.2,103.4,129.2z"/>
				<path class="st87" d="M103.4,129.2c-1.9,0-3.4-1.5-3.4-3.4V97.6c0-1.9,1.5-3.4,3.4-3.4c1.9,0,3.4,1.5,3.4,3.4v28.2
					C106.8,127.6,105.3,129.2,103.4,129.2z"/>
				<path class="st88" d="M103.4,129.2c-1.9,0-3.4-1.5-3.4-3.4V97.6c0-1.9,1.5-3.4,3.4-3.4c1.9,0,3.4,1.5,3.4,3.4v28.2
					C106.8,127.6,105.3,129.2,103.4,129.2z"/>
				<path class="st89" d="M103.4,129.2c-1.9,0-3.4-1.5-3.4-3.4V97.6c0-1.9,1.5-3.4,3.4-3.4c1.9,0,3.4,1.5,3.4,3.4v28.2
					C106.8,127.6,105.3,129.2,103.4,129.2z"/>
				<path class="st90" d="M103.4,129.2c-1.8,0-3.3-1.5-3.3-3.3V97.6c0-1.8,1.5-3.3,3.3-3.3c1.8,0,3.3,1.5,3.3,3.3v28.2
					C106.8,127.7,105.3,129.2,103.4,129.2z"/>
				<path class="st91" d="M103.4,129.2c-1.8,0-3.3-1.5-3.3-3.3V97.7c0-1.8,1.5-3.3,3.3-3.3c1.8,0,3.3,1.5,3.3,3.3v28.2
					C106.8,127.7,105.3,129.2,103.4,129.2z"/>
				<path class="st92" d="M103.4,129.2c-1.8,0-3.3-1.5-3.3-3.3V97.7c0-1.8,1.5-3.3,3.3-3.3c1.8,0,3.3,1.5,3.3,3.3v28.2
					C106.7,127.7,105.3,129.2,103.4,129.2z"/>
				<path class="st93" d="M103.4,129.1c-1.8,0-3.3-1.5-3.3-3.3V97.7c0-1.8,1.5-3.3,3.3-3.3c1.8,0,3.3,1.5,3.3,3.3v28.2
					C106.7,127.7,105.2,129.1,103.4,129.1z"/>
				<path class="st94" d="M103.4,129.1c-1.8,0-3.3-1.5-3.3-3.3V97.7c0-1.8,1.5-3.3,3.3-3.3c1.8,0,3.3,1.5,3.3,3.3v28.2
					C106.7,127.7,105.2,129.1,103.4,129.1z"/>
				<path class="st95" d="M103.4,129.1c-1.8,0-3.2-1.5-3.2-3.2V97.7c0-1.8,1.5-3.2,3.2-3.2c1.8,0,3.2,1.5,3.2,3.2v28.2
					C106.7,127.7,105.2,129.1,103.4,129.1z"/>
				<path class="st96" d="M103.4,129.1c-1.8,0-3.2-1.4-3.2-3.2V97.8c0-1.8,1.4-3.2,3.2-3.2c1.8,0,3.2,1.4,3.2,3.2v28.2
					C106.6,127.7,105.2,129.1,103.4,129.1z"/>
				<path class="st97" d="M103.4,129.1c-1.8,0-3.2-1.4-3.2-3.2V97.8c0-1.8,1.4-3.2,3.2-3.2c1.8,0,3.2,1.4,3.2,3.2v28.2
					C106.6,127.7,105.2,129.1,103.4,129.1z"/>
				<path class="st98" d="M103.4,129.1c-1.7,0-3.2-1.4-3.2-3.2V97.8c0-1.7,1.4-3.2,3.2-3.2c1.7,0,3.2,1.4,3.2,3.2V126
					C106.6,127.7,105.2,129.1,103.4,129.1z"/>
				<path class="st99" d="M103.4,129.1c-1.7,0-3.1-1.4-3.1-3.2V97.8c0-1.7,1.4-3.2,3.1-3.2c1.7,0,3.1,1.4,3.1,3.2V126
					C106.6,127.7,105.2,129.1,103.4,129.1z"/>
				<path class="st100" d="M103.4,129.1c-1.7,0-3.1-1.4-3.1-3.1V97.8c0-1.7,1.4-3.1,3.1-3.1c1.7,0,3.1,1.4,3.1,3.1V126
					C106.6,127.7,105.2,129.1,103.4,129.1z"/>
				<path class="st101" d="M103.4,129.1c-1.7,0-3.1-1.4-3.1-3.1V97.8c0-1.7,1.4-3.1,3.1-3.1c1.7,0,3.1,1.4,3.1,3.1V126
					C106.5,127.7,105.1,129.1,103.4,129.1z"/>
				<path class="st102" d="M103.4,129.1c-1.7,0-3.1-1.4-3.1-3.1V97.9c0-1.7,1.4-3.1,3.1-3.1c1.7,0,3.1,1.4,3.1,3.1V126
					C106.5,127.7,105.1,129.1,103.4,129.1z"/>
				<path class="st103" d="M103.4,129.1c-1.7,0-3.1-1.4-3.1-3.1V97.9c0-1.7,1.4-3.1,3.1-3.1c1.7,0,3.1,1.4,3.1,3.1v28.2
					C106.5,127.8,105.1,129.1,103.4,129.1z"/>
			</g>
			<g>
				<path class="st71" d="M92.6,121.8H82.2V97.3c0-2.1-1.7-3.7-3.7-3.7c-2,0-3.7,1.7-3.7,3.7v28.2c0,2.1,1.7,3.7,3.7,3.7h14.1
					c2.1,0,3.7-1.7,3.7-3.7C96.3,123.4,94.6,121.8,92.6,121.8z"/>
				<path class="st73" d="M78.5,93.6c1.7,0,3.1,1.1,3.6,2.7c0.1,0.3,0.1,0.7,0.1,1v24.3c0,0,0,0.1,0,0.1h10.4c0.1,0,0.2,0,0.3,0
					c1.9,0.2,3.4,1.7,3.4,3.7c0,0.1,0,0.1,0,0.2c-0.1,2-1.7,3.5-3.7,3.5H78.5c-1.8,0-3.3-1.3-3.6-2.9c-0.1-0.2-0.1-0.5-0.1-0.8V97.3
					c0,0,0-0.1,0-0.1C74.8,95.2,76.5,93.6,78.5,93.6z"/>
				<path class="st74" d="M78.5,93.7c1.7,0,3.1,1.2,3.5,2.7c0.1,0.3,0.1,0.6,0.1,1v24.3c0,0,0,0.2,0,0.2h10.4c0.1,0,0.2,0,0.3,0
					c1.9,0.1,3.4,1.7,3.4,3.7c0,0.1,0,0.1,0,0.2c-0.1,2-1.7,3.5-3.7,3.5H78.5c-1.8,0-3.3-1.3-3.6-2.9c-0.1-0.2-0.1-0.5-0.1-0.7V97.3
					c0,0,0-0.1,0-0.1C74.9,95.3,76.5,93.7,78.5,93.7z"/>
				<path class="st75" d="M78.5,93.7c1.7,0,3.1,1.2,3.5,2.7c0.1,0.3,0.1,0.6,0.1,0.9v24.3c0,0,0,0.2,0.1,0.2h10.3c0.1,0,0.2,0,0.3,0
					c1.9,0.1,3.4,1.7,3.4,3.6c0,0.1,0,0.1,0,0.2c-0.1,1.9-1.7,3.5-3.6,3.5H78.5c-1.8,0-3.3-1.3-3.6-3c0-0.2-0.1-0.5-0.1-0.7V97.4
					c0,0,0-0.1,0-0.1C74.9,95.3,76.5,93.7,78.5,93.7z"/>
				<path class="st76" d="M78.5,93.7c1.7,0,3.1,1.2,3.5,2.7c0.1,0.3,0.1,0.6,0.1,0.9v24.3c0,0,0,0.2,0.1,0.2h10.3c0.1,0,0.2,0,0.3,0
					c1.9,0.1,3.4,1.7,3.4,3.6c0,0.1,0,0.1,0,0.2c-0.1,1.9-1.7,3.5-3.6,3.5H78.5c-1.8,0-3.2-1.3-3.6-3c0-0.2-0.1-0.5-0.1-0.7V97.4
					c0,0,0-0.1,0-0.1C74.9,95.3,76.5,93.7,78.5,93.7z"/>
				<path class="st77" d="M78.5,93.8c1.7,0,3.1,1.2,3.5,2.7c0.1,0.3,0.1,0.6,0.1,0.9v24.3c0,0.1,0,0.2,0.1,0.2h10.3
					c0.1,0,0.2,0,0.3,0c1.9,0.1,3.3,1.7,3.3,3.6c0,0.1,0,0.1,0,0.2c-0.1,1.9-1.7,3.5-3.6,3.5H78.5c-1.8,0-3.2-1.3-3.5-3
					c0-0.2-0.1-0.4-0.1-0.7V97.4c0,0,0-0.1,0-0.1C74.9,95.4,76.5,93.8,78.5,93.8z"/>
				<path class="st78" d="M78.5,93.8c1.7,0,3.1,1.2,3.5,2.8c0.1,0.3,0.1,0.6,0.1,0.9v24.3c0,0.1,0.1,0.2,0.1,0.2h10.3
					c0.1,0,0.2,0,0.3,0c1.9,0.1,3.3,1.7,3.3,3.6c0,0.1,0,0.1,0,0.2c-0.1,1.9-1.7,3.5-3.6,3.5H78.5c-1.8,0-3.2-1.3-3.5-3
					c0-0.2-0.1-0.4-0.1-0.6V97.4c0,0,0-0.1,0-0.1C74.9,95.4,76.5,93.8,78.5,93.8z"/>
				<path class="st79" d="M78.5,93.9c1.7,0,3.1,1.2,3.5,2.8c0.1,0.3,0.1,0.6,0.1,0.8v24.3c0,0.1,0.1,0.2,0.1,0.2h10.3
					c0.1,0,0.2,0,0.3,0c1.8,0.1,3.3,1.7,3.3,3.5c0,0.1,0,0.1,0,0.2c-0.1,1.9-1.6,3.4-3.6,3.4H78.5c-1.8,0-3.2-1.3-3.5-3
					c0-0.2-0.1-0.4-0.1-0.6V97.4c0,0,0-0.1,0-0.1C75,95.4,76.5,93.9,78.5,93.9z"/>
				<path class="st80" d="M78.5,93.9c1.7,0,3.1,1.2,3.4,2.8c0.1,0.2,0.1,0.5,0.1,0.8v24.3c0,0.1,0.1,0.3,0.2,0.3h10.3
					c0.1,0,0.2,0,0.3,0c1.8,0.1,3.3,1.6,3.3,3.5c0,0.1,0,0.1,0,0.2c-0.1,1.9-1.6,3.4-3.5,3.4H78.5c-1.8,0-3.2-1.3-3.5-3
					c0-0.2-0.1-0.4-0.1-0.6V97.5c0,0,0-0.1,0-0.1C75,95.5,76.6,93.9,78.5,93.9z"/>
				<path class="st81" d="M78.5,93.9c1.7,0,3.1,1.2,3.4,2.8C82,97,82,97.3,82,97.5v24.3c0,0.1,0.1,0.3,0.2,0.3h10.3
					c0.1,0,0.2,0,0.3,0c1.8,0.1,3.3,1.6,3.3,3.5c0,0.1,0,0.1,0,0.2c-0.1,1.9-1.6,3.4-3.5,3.4H78.5c-1.8,0-3.2-1.3-3.5-3
					c0-0.2-0.1-0.4-0.1-0.6V97.5c0,0,0-0.1,0-0.1C75,95.5,76.6,93.9,78.5,93.9z"/>
				<path class="st82" d="M78.5,94c1.7,0,3.1,1.2,3.4,2.8C82,97,82,97.3,82,97.5v24.3c0,0.1,0.1,0.3,0.2,0.3h10.3c0.1,0,0.2,0,0.3,0
					c1.8,0.1,3.3,1.6,3.3,3.5c0,0.1,0,0.1,0,0.2c-0.1,1.9-1.6,3.4-3.5,3.4H78.5c-1.8,0-3.2-1.3-3.5-3c0-0.2-0.1-0.4-0.1-0.5V97.5
					c0,0,0-0.1,0-0.1C75,95.5,76.6,94,78.5,94z"/>
				<path class="st83" d="M78.5,94c1.7,0,3.1,1.2,3.4,2.8c0.1,0.2,0.1,0.5,0.1,0.7v24.3c0,0.1,0.1,0.3,0.2,0.3h10.3
					c0.1,0,0.2,0,0.3,0c1.8,0.1,3.3,1.6,3.3,3.4c0,0.1,0,0.1,0,0.2c-0.1,1.9-1.6,3.4-3.5,3.4H78.5c-1.8,0-3.2-1.3-3.4-3
					c0-0.2-0.1-0.4-0.1-0.5V97.5c0,0,0-0.1,0-0.1C75,95.6,76.6,94,78.5,94z"/>
				<path class="st84" d="M78.5,94.1c1.7,0,3.1,1.2,3.4,2.8c0.1,0.2,0.1,0.5,0.1,0.7v24.3c0,0.1,0.1,0.3,0.3,0.3h10.3
					c0.1,0,0.2,0,0.3,0c1.8,0.1,3.2,1.6,3.3,3.4c0,0.1,0,0.1,0,0.2c-0.1,1.9-1.6,3.4-3.5,3.4H78.5c-1.7,0-3.2-1.3-3.4-3
					c0-0.2-0.1-0.3-0.1-0.5V97.6c0,0,0-0.1,0-0.1C75.1,95.6,76.6,94.1,78.5,94.1z"/>
				<path class="st85" d="M78.5,94.1c1.7,0,3.1,1.2,3.4,2.8c0.1,0.2,0.1,0.4,0.1,0.7v24.3c0,0.2,0.1,0.3,0.3,0.3h10.3
					c0.1,0,0.2,0,0.3,0c1.8,0.1,3.2,1.6,3.3,3.4c0,0.1,0,0.1,0,0.2c-0.1,1.9-1.6,3.3-3.4,3.3H78.5c-1.7,0-3.2-1.3-3.4-3
					c0-0.1,0-0.3,0-0.5V97.6c0,0,0-0.1,0-0.1C75.1,95.6,76.6,94.1,78.5,94.1z"/>
				<path class="st86" d="M78.5,94.1c1.7,0,3.1,1.2,3.3,2.9c0.1,0.2,0.1,0.4,0.1,0.6V122c0,0.2,0.1,0.4,0.3,0.4h10.3
					c0.1,0,0.2,0,0.3,0c1.8,0.1,3.2,1.6,3.2,3.4c0,0.1,0,0.1,0,0.2c0,1.8-1.6,3.3-3.4,3.3H78.5c-1.7,0-3.2-1.3-3.4-3
					c0-0.1,0-0.3,0-0.5V97.6c0,0,0-0.1,0-0.1C75.1,95.6,76.6,94.1,78.5,94.1z"/>
				<path class="st87" d="M78.5,94.2c1.7,0,3.1,1.3,3.3,2.9c0,0.2,0.1,0.4,0.1,0.6V122c0,0.2,0.1,0.4,0.3,0.4h10.2
					c0.1,0,0.2,0,0.3,0c1.8,0.1,3.2,1.5,3.2,3.3c0,0.1,0,0.1,0,0.2c0,1.8-1.6,3.3-3.4,3.3H78.5c-1.7,0-3.2-1.3-3.4-3
					c0-0.1,0-0.3,0-0.4V97.6c0,0,0-0.1,0-0.1C75.1,95.7,76.6,94.2,78.5,94.2z"/>
				<path class="st88" d="M78.5,94.2c1.7,0,3.1,1.3,3.3,2.9c0,0.2,0.1,0.4,0.1,0.6V122c0,0.2,0.1,0.4,0.3,0.4h10.2
					c0.1,0,0.2,0,0.3,0c1.8,0.1,3.2,1.5,3.2,3.3c0,0.1,0,0.1,0,0.2c0,1.8-1.5,3.3-3.4,3.3H78.5c-1.7,0-3.2-1.3-3.3-3
					c0-0.1,0-0.3,0-0.4V97.6c0,0,0-0.1,0-0.1C75.1,95.7,76.6,94.2,78.5,94.2z"/>
				<path class="st89" d="M78.5,94.3c1.7,0,3.1,1.3,3.3,2.9c0,0.1,0.1,0.4,0.1,0.5V122c0,0.2,0.2,0.4,0.4,0.4h10.2c0,0,0.2,0,0.3,0
					c1.8,0.1,3.2,1.5,3.2,3.3c0,0.1,0,0.1,0,0.2c0,1.8-1.5,3.3-3.4,3.3H78.5c-1.7,0-3.2-1.3-3.3-3c0-0.1,0-0.3,0-0.4V97.7
					c0,0,0-0.1,0-0.1C75.2,95.7,76.7,94.3,78.5,94.3z"/>
				<path class="st90" d="M78.5,94.3c1.7,0,3.1,1.3,3.3,2.9c0,0.1,0.1,0.4,0.1,0.5V122c0,0.2,0.2,0.4,0.4,0.4h10.2c0,0,0.2,0,0.3,0
					c1.8,0.1,3.2,1.5,3.2,3.3c0,0.1,0,0.1,0,0.2c0,1.8-1.5,3.3-3.3,3.3H78.5c-1.7,0-3.2-1.3-3.3-3c0-0.1,0-0.2,0-0.4V97.7
					c0,0,0-0.1,0-0.1C75.2,95.8,76.7,94.3,78.5,94.3z"/>
				<path class="st91" d="M78.5,94.3c1.7,0,3.1,1.3,3.3,2.9c0,0.1,0.1,0.3,0.1,0.5v24.3c0,0.2,0.2,0.4,0.4,0.4h10.2c0,0,0.2,0,0.3,0
					c1.7,0.1,3.1,1.5,3.2,3.2c0,0.1,0,0.1,0,0.2c0,1.8-1.5,3.3-3.3,3.3H78.5c-1.7,0-3.1-1.3-3.3-3c0-0.1,0-0.2,0-0.3V97.7
					c0,0,0-0.1,0-0.1C75.2,95.8,76.7,94.3,78.5,94.3z"/>
				<path class="st92" d="M78.5,94.4c1.7,0,3.1,1.3,3.2,2.9c0,0.1,0.1,0.3,0.1,0.5v24.3c0,0.2,0.2,0.5,0.4,0.5h10.2c0,0,0.2,0,0.3,0
					c1.7,0.1,3.1,1.5,3.2,3.2c0,0.1,0,0.1,0,0.2c0,1.8-1.5,3.2-3.3,3.2H78.5c-1.7,0-3.1-1.3-3.3-3c0-0.1,0-0.2,0-0.3V97.7
					c0,0,0-0.1,0-0.1C75.2,95.8,76.7,94.4,78.5,94.4z"/>
				<path class="st93" d="M78.5,94.4c1.7,0,3.1,1.3,3.2,2.9c0,0.1,0,0.3,0,0.4v24.3c0,0.2,0.2,0.5,0.4,0.5h10.2c0,0,0.2,0,0.3,0
					c1.7,0.1,3.1,1.4,3.2,3.2c0,0,0,0.1,0,0.1c0,1.8-1.5,3.2-3.3,3.2H78.5c-1.7,0-3.1-1.3-3.2-3c0-0.1,0-0.2,0-0.3V97.7
					c0,0,0-0.1,0-0.1C75.2,95.9,76.7,94.4,78.5,94.4z"/>
				<path class="st94" d="M78.5,94.5c1.7,0,3.1,1.3,3.2,3c0,0.1,0,0.3,0,0.4v24.3c0,0.3,0.2,0.5,0.5,0.5h10.2c0,0,0.2,0,0.3,0
					c1.7,0,3.1,1.4,3.2,3.2c0,0,0,0.1,0,0.1c0,1.8-1.5,3.2-3.3,3.2H78.5c-1.7,0-3.1-1.3-3.2-3c0-0.1,0-0.2,0-0.3V97.8
					c0,0,0-0.1,0-0.1C75.3,95.9,76.7,94.5,78.5,94.5z"/>
				<path class="st95" d="M78.5,94.5c1.7,0,3.1,1.3,3.2,3c0,0.1,0,0.3,0,0.4v24.3c0,0.3,0.2,0.5,0.5,0.5h10.2c0,0,0.2,0,0.3,0
					c1.7,0,3.1,1.4,3.1,3.1c0,0,0,0.1,0,0.1c0,1.8-1.5,3.2-3.2,3.2H78.5c-1.7,0-3.1-1.3-3.2-3c0-0.1,0-0.2,0-0.2V97.8
					c0,0,0-0.1,0-0.1C75.3,95.9,76.7,94.5,78.5,94.5z"/>
				<path class="st96" d="M78.5,94.5c1.7,0,3.1,1.3,3.2,3c0,0.1,0,0.3,0,0.3v24.3c0,0.3,0.2,0.5,0.5,0.5h10.2c0,0,0.2,0,0.3,0
					c1.7,0,3.1,1.4,3.1,3.1c0,0,0,0.1,0,0.1c0,1.8-1.5,3.2-3.2,3.2H78.5c-1.7,0-3.1-1.4-3.2-3c0-0.1,0-0.2,0-0.2V97.8
					c0,0,0-0.1,0-0.1C75.3,96,76.7,94.5,78.5,94.5z"/>
				<path class="st97" d="M78.5,94.6c1.7,0,3.1,1.3,3.2,3c0,0.1,0,0.2,0,0.3v24.3c0,0.3,0.2,0.5,0.5,0.5h10.2c0,0,0.2,0,0.3,0
					c1.7,0,3.1,1.4,3.1,3.1c0,0,0,0.1,0,0.1c0,1.7-1.4,3.2-3.2,3.2H78.5c-1.7,0-3.1-1.4-3.2-3c0,0,0-0.1,0-0.2V97.8c0,0,0-0.1,0-0.1
					C75.3,96,76.7,94.6,78.5,94.6z"/>
				<path class="st98" d="M78.5,94.6c1.7,0,3.1,1.3,3.1,3c0,0.1,0,0.2,0,0.3v24.3c0,0.3,0.2,0.6,0.5,0.6h10.2c0,0,0.2,0,0.3,0
					c1.7,0,3.1,1.4,3.1,3.1c0,0,0,0.1,0,0.1c0,1.7-1.4,3.1-3.2,3.1H78.5c-1.7,0-3.1-1.4-3.2-3c0,0,0-0.1,0-0.2V97.9c0,0,0-0.1,0-0.1
					C75.3,96,76.7,94.6,78.5,94.6z"/>
				<path class="st99" d="M78.5,94.7c1.7,0,3.1,1.3,3.1,3c0,0,0,0.2,0,0.2v24.3c0,0.3,0.3,0.6,0.6,0.6h10.2c0,0,0.2,0,0.3,0
					c1.7,0,3,1.4,3.1,3c0,0,0,0.1,0,0.1c0,1.7-1.4,3.1-3.1,3.1H78.5c-1.7,0-3.1-1.4-3.1-3.1c0,0,0-0.1,0-0.2V97.9c0,0,0-0.1,0-0.1
					C75.3,96.1,76.8,94.7,78.5,94.7z"/>
				<path class="st100" d="M78.5,94.7c1.7,0,3.1,1.4,3.1,3c0,0,0,0.2,0,0.2v24.3c0,0.3,0.3,0.6,0.6,0.6h10.1c0,0,0.2,0,0.3,0
					c1.7,0,3,1.3,3.1,3c0,0,0,0.1,0,0.1c0,1.7-1.4,3.1-3.1,3.1H78.5c-1.7,0-3.1-1.4-3.1-3.1c0,0,0-0.1,0-0.1V97.9c0,0,0-0.1,0-0.1
					C75.4,96.1,76.8,94.7,78.5,94.7z"/>
				<path class="st101" d="M78.5,94.7c1.7,0,3.1,1.4,3.1,3c0,0,0,0.2,0,0.2v24.3c0,0.3,0.3,0.6,0.6,0.6h10.1c0,0,0.2,0,0.3,0
					c1.7,0,3,1.3,3.1,3c0,0,0,0.1,0,0.1c0,1.7-1.4,3.1-3.1,3.1H78.5c-1.7,0-3.1-1.4-3.1-3.1c0,0,0-0.1,0-0.1V97.9c0,0,0-0.1,0-0.1
					C75.4,96.1,76.8,94.7,78.5,94.7z"/>
				<path class="st102" d="M78.5,94.8c1.7,0,3.1,1.4,3.1,3.1c0,0,0,0.1,0,0.2v24.3c0,0.3,0.3,0.6,0.6,0.6h10.1c0,0,0.2,0,0.3,0
					c1.7,0,3,1.3,3.1,3c0,0,0,0.1,0,0.1c0,1.7-1.4,3.1-3.1,3.1H78.5c-1.7,0-3.1-1.4-3.1-3.1c0,0,0-0.1,0-0.1v-28c0,0,0-0.1,0-0.1
					C75.4,96.2,76.8,94.8,78.5,94.8z"/>
				<path class="st103" d="M78.5,129.1c-1.7,0-3.1-1.4-3.1-3.1V97.9c0-1.7,1.4-3.1,3.1-3.1s3.1,1.4,3.1,3.1v24.5
					c0,0.4,0.3,0.7,0.7,0.7h10.4c1.7,0,3.1,1.4,3.1,3.1c0,1.7-1.4,3.1-3.1,3.1H78.5z"/>
			</g>
		</g>
	</g>
</g>
</svg>
