<?xml version="1.0" encoding="utf-8"?>
<!-- Generator: Adobe Illustrator 19.1.0, SVG Export Plug-In . SVG Version: 6.00 Build 0)  -->
<svg version="1.1" id="Layer_1" xmlns="http://www.w3.org/2000/svg" xmlns:xlink="http://www.w3.org/1999/xlink" x="0px" y="0px"
	 viewBox="0 0 240.7 240.7" style="enable-background:new 0 0 240.7 240.7;" xml:space="preserve">
<style type="text/css">
	.st0{fill:#097CB6;stroke:#FFFFFF;stroke-width:6;stroke-miterlimit:10;}
	.st1{fill:#FFFFFF;}
</style>
<g>
	<path class="st0" d="M237.7,120.3c0,64.8-52.5,117.3-117.3,117.3S3,185.1,3,120.3C3,55.5,55.5,3,120.3,3S237.7,55.5,237.7,120.3"/>
	<g>
		<rect x="69.7" y="102.8" class="st1" width="21.7" height="69.7"/>
		<path class="st1" d="M80.6,68.1c6.9,0,12.6,5.6,12.6,12.6c0,6.9-5.6,12.6-12.6,12.6c-7,0-12.6-5.6-12.6-12.6
			C68,73.8,73.6,68.1,80.6,68.1"/>
		<path class="st1" d="M105.1,102.8h20.8v9.5h0.3c2.9-5.5,10-11.3,20.5-11.3c21.9,0,26,14.4,26,33.2v38.2H151v-33.9
			c0-8.1-0.2-18.5-11.3-18.5c-11.3,0-13,8.8-13,17.9v34.5h-21.7V102.8z"/>
	</g>
</g>
</svg>
