<?xml version="1.0" encoding="utf-8"?>
<!-- Generator: Adobe Illustrator 19.1.0, SVG Export Plug-In . SVG Version: 6.00 Build 0)  -->
<svg version="1.1" id="Layer_1" xmlns="http://www.w3.org/2000/svg" xmlns:xlink="http://www.w3.org/1999/xlink" x="0px" y="0px"
	 viewBox="0 0 240.7 240.7" style="enable-background:new 0 0 240.7 240.7;" xml:space="preserve">
<style type="text/css">
	.st0{fill:#9C559F;stroke:#FFFFFF;stroke-width:6;stroke-miterlimit:10;}
	.st1{fill:#FFFFFF;}
</style>
<g>
	<path class="st0" d="M237.7,120.3c0,64.8-52.5,117.3-117.3,117.3S3,185.1,3,120.3C3,55.5,55.5,3,120.3,3S237.7,55.5,237.7,120.3"/>
	<g>
		<polygon class="st1" points="61.9,93.8 61.9,147.9 88.9,120.8 		"/>
		<polygon class="st1" points="151.7,120.8 178.8,147.9 178.8,93.8 		"/>
		<path class="st1" d="M125.9,146.7c-1.5,1.5-3.5,2.3-5.6,2.3c-2.1,0-4.1-0.8-5.6-2.3L92.1,124l-29.8,29.7c0.7,1.5,2.2,2.5,4,2.5
			h107.9c1.8,0,3.3-1,4-2.5L148.6,124L125.9,146.7z"/>
		<path class="st1" d="M120.3,142.3c0.2,0,0.5-0.1,0.8-0.3l56.3-56.3c-0.8-0.8-1.9-1.3-3.1-1.3H66.4c-1.2,0-2.3,0.5-3.1,1.3
			l56.3,56.3C119.8,142.2,120.2,142.3,120.3,142.3 M108.4,117.7c0-3.8,3.1-7,7-7c1.9,0,3.7,0.8,5,2.1c1.3-1.3,3-2.1,5-2.1
			c3.9,0,7,3.1,7,7c0,5.9-11.9,12.2-11.9,12.2S108.4,123.6,108.4,117.7"/>
	</g>
</g>
</svg>
