<?xml version="1.0" encoding="utf-8"?>
<!-- Generator: Adobe Illustrator 19.1.0, SVG Export Plug-In . SVG Version: 6.00 Build 0)  -->
<svg version="1.1" id="Layer_1" xmlns="http://www.w3.org/2000/svg" xmlns:xlink="http://www.w3.org/1999/xlink" x="0px" y="0px"
	 viewBox="0 0 240.7 240.7" style="enable-background:new 0 0 240.7 240.7;" xml:space="preserve">
<style type="text/css">
	.st0{fill:#CC1E20;stroke:#FFFFFF;stroke-width:6;stroke-miterlimit:10;}
	.st1{fill:#FFFFFF;}
</style>
<g>
	<path class="st0" d="M237.7,120.3c0,64.8-52.5,117.3-117.3,117.3S3,185.1,3,120.3C3,55.5,55.5,3,120.3,3S237.7,55.5,237.7,120.3"/>
	<path class="st1" d="M136.7,62.6c-32.8-9.1-66.9,10.6-74.9,44.2c-3.3,13.9-1.6,26.9,3.2,38c6.3,13.7,17.4,24.7,31.3,30.6
		c0-1.5,0-3.1,0-4.6c0.1-1.9,0.3-3.7,0.5-5.6c0.2-1.6,0.6-3.2,1-4.8c1.1-4.6,2.1-9.1,3.2-13.7c1.3-5.7,2.7-11.3,4-17
		c0-0.2,0-0.4,0-0.6c-0.8-2-1.3-4-1.6-6.1c-0.3-2.7-0.3-5.4,0.3-8c0.7-2.8,1.8-5.4,3.9-7.5c2-2.1,4.5-3.3,7.4-3.3
		c3.7,0,6.4,2.1,7.5,5.6c0.6,2,0.6,3.9,0.3,5.9c-0.3,2.2-0.9,4.4-1.5,6.6c-1.1,3.8-2.2,7.5-3.3,11.3c-0.4,1.5-0.7,3.1-0.5,4.7
		c0.4,3,1.9,5.2,4.5,6.7c2.5,1.5,5.2,1.7,8,1.1c2-0.4,3.9-1.3,5.5-2.6c2.1-1.6,3.8-3.6,5.2-5.9c2-3.2,3.3-6.7,4.2-10.3
		c0.8-3.3,1.3-6.6,1.5-10c0.1-2.2,0.2-4.4-0.1-6.6c-0.3-2.6-1-5.2-2.2-7.5c-1.7-3.4-4.1-6-7.2-8.1c-3.6-2.3-7.6-3.5-11.9-3.9
		c-2.2-0.2-4.5-0.2-6.7,0c-2.6,0.2-5.2,0.8-7.7,1.6c-5.3,1.9-9.7,5-13.1,9.6c-3.4,4.5-5.2,9.5-5.7,15.1c-0.2,2.1-0.2,4.1,0.2,6.2
		c0.4,2.5,1.3,4.9,2.8,7c0.5,0.7,1,1.3,1.5,2c0.4,0.6,0.6,1.3,0.4,2c-0.5,1.9-0.9,3.7-1.4,5.6c-0.1,0.4-0.3,0.8-0.6,1.1
		c-0.7,0.7-1.5,0.7-2.3,0.3c-2.6-1.1-4.8-2.7-6.7-4.8c-2.1-2.4-3.4-5.2-4.3-8.2c-1.2-3.8-1.6-7.7-1.4-11.7c0.1-2.5,0.5-5,1.2-7.4
		c1.4-5,3.7-9.4,6.9-13.4c2.4-3,5.2-5.6,8.3-7.8c4.6-3.1,9.6-5.2,15-6.5c3.1-0.7,6.3-1.1,9.5-1.2c3.3-0.1,6.7,0,9.9,0.6
		c3.1,0.5,6.1,1.4,9,2.6c4.2,1.8,8,4.2,11.2,7.4c3.6,3.5,6.4,7.6,8.2,12.2c1.2,3,1.9,6.1,2.1,9.4c0.1,1.4,0.1,2.9,0.1,4.3
		c0,3.2-0.4,6.4-1,9.5c-1,4.8-2.5,9.4-4.9,13.6c-2,3.5-4.4,6.6-7.4,9.2c-2.1,1.9-4.5,3.4-7.1,4.6c-2.7,1.2-5.5,2-8.4,2.3
		c-2.1,0.3-4.2,0.3-6.3,0.1c-2.2-0.3-4.3-0.9-6.3-1.9c-2.3-1.2-4.3-2.7-5.7-4.9c-0.1-0.1-0.2-0.3-0.3-0.5c0,0.1-0.1,0.2-0.1,0.3
		c-1.1,4.2-2.1,8.5-3.2,12.7c-0.5,2.1-1.1,4.2-1.8,6.2c-1.2,3.3-2.8,6.4-4.6,9.4c5.1,1.4,10.5,2.2,16.1,2.2
		c33.5,0,60.6-27.1,60.6-60.6c0-7.6-1.5-14.9-4-21.6C169.8,81.4,155.6,67.9,136.7,62.6z"/>
</g>
</svg>
