<?xml version="1.0" encoding="utf-8"?>
<!-- Generator: Adobe Illustrator 19.1.0, SVG Export Plug-In . SVG Version: 6.00 Build 0)  -->
<svg version="1.1" id="Layer_1" xmlns="http://www.w3.org/2000/svg" xmlns:xlink="http://www.w3.org/1999/xlink" x="0px" y="0px"
	 viewBox="0 0 240.7 240.7" style="enable-background:new 0 0 240.7 240.7;" xml:space="preserve">
<style type="text/css">
	.st0{fill:#F89A1C;stroke:#FFFFFF;stroke-width:6;stroke-miterlimit:10;}
	.st1{fill:#FFFFFF;}
</style>
<g>
	<path class="st0" d="M237.7,120.3c0,64.8-52.5,117.3-117.3,117.3S3,185.1,3,120.3C3,55.5,55.5,3,120.3,3S237.7,55.5,237.7,120.3"/>
	<g>
		<path class="st1" d="M92.1,119.7c-1.4-1-3-1.8-4.9-2.5c-1.9-0.7-4.1-1.3-6.5-1.8c-1.9-0.5-3.3-0.8-4.1-1.1c-0.8-0.2-1.6-0.6-2.4-1
			c-0.8-0.4-1.4-1-1.9-1.6c-0.5-0.6-0.7-1.3-0.7-2.2c0-1.4,0.7-2.5,2-3.5c1.4-1,3.1-1.5,5.3-1.5c2.4,0,4.1,0.4,5.2,1.3
			c1.1,0.9,2,2.1,2.8,3.7c0.6,1.1,1.2,1.9,1.7,2.4c0.5,0.5,1.2,0.7,2.2,0.7c1.1,0,2-0.4,2.7-1.2c0.7-0.8,1.1-1.7,1.1-2.8
			c0-1.1-0.3-2.3-0.9-3.4c-0.6-1.2-1.5-2.3-2.7-3.4c-1.2-1.1-2.8-1.9-4.7-2.6c-1.9-0.6-4.1-1-6.7-1c-3.2,0-6.1,0.5-8.5,1.5
			c-2.4,1-4.2,2.4-5.5,4.2c-1.3,1.8-1.9,3.9-1.9,6.2c0,2.4,0.6,4.5,1.8,6.1c1.2,1.6,2.8,2.9,4.9,3.9c2,1,4.6,1.8,7.6,2.5
			c2.3,0.5,4.1,1,5.4,1.5c1.4,0.5,2.5,1.1,3.3,2c0.9,0.9,1.3,2,1.3,3.4c0,1.8-0.8,3.2-2.4,4.4c-1.6,1.2-3.6,1.8-6.2,1.8
			c-1.8,0-3.3-0.3-4.5-0.9c-1.1-0.6-2-1.3-2.6-2.2c-0.6-0.9-1.2-2-1.7-3.4c-0.4-1.1-1-2-1.6-2.6c-0.6-0.6-1.4-0.9-2.3-0.9
			c-1.1,0-2,0.4-2.8,1.1c-0.7,0.7-1.1,1.6-1.1,2.7c0,1.8,0.6,3.6,1.8,5.5c1.2,1.9,2.8,3.4,4.7,4.5c2.7,1.6,6.1,2.4,10.3,2.4
			c3.5,0,6.5-0.6,9-1.7c2.5-1.2,4.5-2.8,5.8-4.8c1.3-2,2-4.3,2-6.9c0-2.1-0.4-3.9-1.1-5.4C94.5,121.9,93.4,120.7,92.1,119.7"/>
		<path class="st1" d="M139.1,100.2c-1-0.6-2.3-1-3.9-1h-2.7c-1.6,0-2.8,0.1-3.5,0.4c-0.7,0.3-1.3,0.8-1.6,1.6
			c-0.3,0.8-0.7,2-1.2,3.7l-6.1,23.1l-6.1-23.1c-0.4-1.7-0.8-2.9-1.2-3.7c-0.3-0.7-0.9-1.3-1.6-1.6c-0.7-0.3-1.9-0.4-3.5-0.4h-2.7
			c-1.6,0-2.9,0.3-3.9,1c-1,0.6-1.4,1.9-1.4,3.7v33.4c0,1.6,0.4,2.8,1.1,3.6c0.7,0.8,1.7,1.2,2.8,1.2c1.2,0,2.1-0.4,2.9-1.2
			c0.7-0.8,1.1-2,1.1-3.6v-29.2l6.8,26.9c0.2,0.9,0.5,1.7,0.7,2.6c0.2,0.8,0.5,1.6,0.9,2.2s0.9,1.2,1.6,1.7c0.7,0.4,1.5,0.6,2.5,0.6
			c1.3,0,2.4-0.3,3.1-1c0.8-0.7,1.3-1.4,1.5-2.2c0.3-0.8,0.6-2.1,1.1-3.8l6.8-26.9v29.2c0,1.6,0.4,2.8,1.1,3.6
			c0.7,0.8,1.7,1.2,2.8,1.2c1.2,0,2.2-0.4,2.9-1.2c0.7-0.8,1.1-2,1.1-3.6v-33.4C140.5,102.1,140,100.8,139.1,100.2"/>
		<path class="st1" d="M176.7,123.4c-0.8-1.5-1.8-2.7-3.2-3.6c-1.4-1-3-1.8-4.9-2.5c-1.9-0.7-4.1-1.3-6.5-1.8
			c-1.9-0.5-3.3-0.8-4.1-1.1c-0.8-0.2-1.6-0.6-2.5-1c-0.8-0.4-1.4-1-1.9-1.6c-0.5-0.6-0.7-1.3-0.7-2.2c0-1.4,0.7-2.5,2-3.5
			c1.4-1,3.1-1.5,5.3-1.5c2.4,0,4.1,0.4,5.2,1.3c1.1,0.9,2,2.1,2.8,3.7c0.6,1.1,1.2,1.9,1.7,2.4c0.5,0.5,1.3,0.7,2.2,0.7
			c1.1,0,2-0.4,2.7-1.2c0.7-0.8,1.1-1.7,1.1-2.8c0-1.1-0.3-2.3-0.9-3.4c-0.6-1.2-1.5-2.3-2.7-3.4c-1.2-1.1-2.8-1.9-4.7-2.6
			c-1.9-0.6-4.1-1-6.7-1c-3.2,0-6.1,0.5-8.5,1.5c-2.4,1-4.2,2.4-5.5,4.2c-1.3,1.8-1.9,3.9-1.9,6.2c0,2.4,0.6,4.5,1.8,6.1
			c1.2,1.6,2.8,2.9,4.9,3.9c2,1,4.6,1.8,7.6,2.5c2.3,0.5,4.1,1,5.4,1.5c1.4,0.5,2.5,1.1,3.3,2c0.9,0.9,1.3,2,1.3,3.4
			c0,1.8-0.8,3.2-2.4,4.4c-1.6,1.2-3.6,1.8-6.2,1.8c-1.8,0-3.3-0.3-4.5-0.9c-1.1-0.6-2-1.3-2.6-2.2c-0.6-0.9-1.2-2-1.7-3.4
			c-0.4-1.1-1-2-1.6-2.6c-0.6-0.6-1.4-0.9-2.3-0.9c-1.1,0-2,0.4-2.8,1.1c-0.7,0.7-1.1,1.6-1.1,2.7c0,1.8,0.6,3.6,1.8,5.5
			c1.2,1.9,2.8,3.4,4.7,4.5c2.7,1.6,6.1,2.4,10.3,2.4c3.5,0,6.5-0.6,9-1.7c2.5-1.2,4.5-2.7,5.8-4.8c1.3-2,2-4.3,2-6.9
			C177.9,126.6,177.5,124.8,176.7,123.4"/>
	</g>
</g>
</svg>
