<?xml version="1.0" encoding="utf-8"?>
<!-- Generator: Adobe Illustrator 19.1.0, SVG Export Plug-In . SVG Version: 6.00 Build 0)  -->
<svg version="1.1" id="Layer_1" xmlns="http://www.w3.org/2000/svg" xmlns:xlink="http://www.w3.org/1999/xlink" x="0px" y="0px"
	 viewBox="0 0 240.7 240.7" style="enable-background:new 0 0 240.7 240.7;" xml:space="preserve">
<style type="text/css">
	.st0{fill:#F6EB1F;stroke:#FFFFFF;stroke-width:6;stroke-miterlimit:10;}
	.st1{fill:#FFFFFF;}
	.st2{fill:#020202;}
</style>
<g>
	<path class="st0" d="M237.7,120.3c0,64.8-52.5,117.3-117.3,117.3S3,185.1,3,120.3C3,55.5,55.5,3,120.3,3S237.7,55.5,237.7,120.3"/>
	<g>
		<path class="st1" d="M122.1,176c-0.3,0-0.7,0-0.9,0c-0.2,0-0.4,0-0.6,0c-7.2,0-12-3.4-16.2-6.4c-3-2.1-5.9-4.2-9.3-4.7
			c-1.6-0.3-3.3-0.4-4.9-0.4c-2.9,0-5.1,0.4-6.8,0.8c-1,0.2-1.9,0.4-2.6,0.4c-0.7,0-1.6-0.2-1.9-1.4c-0.3-1-0.5-1.9-0.7-2.8
			c-0.5-2.3-0.8-3.6-1.7-3.8c-9-1.4-14.3-3.4-15.4-5.9c-0.1-0.3-0.2-0.5-0.2-0.8c0-0.7,0.5-1.4,1.2-1.5c7.2-1.2,13.5-5,18.9-11.2
			c4.2-4.9,6.2-9.5,6.5-10c0,0,0,0,0-0.1c1-2.1,1.2-3.9,0.6-5.4c-1.2-2.7-5-4-7.6-4.8c-0.6-0.2-1.2-0.4-1.7-0.6
			c-2.3-0.9-6-2.8-5.5-5.4c0.4-1.9,2.9-3.2,4.9-3.2c0.6,0,1.1,0.1,1.5,0.3c2.3,1.1,4.3,1.6,6.1,1.6c2.2,0,3.3-0.8,3.5-1.1
			c-0.1-1.2-0.1-2.4-0.2-3.6l0,0c-0.5-8.2-1.2-18.5,1.5-24.3c7.8-17.6,24.5-18.9,29.4-18.9c0.1,0,2.1,0,2.1,0c0.1,0,0.2,0,0.3,0
			c4.9,0,21.6,1.4,29.4,18.9c2.6,5.9,2,16.1,1.5,24.3l0,0.4c-0.1,1.1-0.1,2.2-0.2,3.2c0.2,0.2,1.2,1,3.2,1.1
			c1.7-0.1,3.6-0.6,5.8-1.6c0.7-0.3,1.4-0.4,1.9-0.4c0.7,0,1.5,0.1,2.1,0.4l0,0c1.8,0.6,3,1.9,3,3.3c0,1.3-0.9,3.1-5.5,5
			c-0.5,0.2-1.1,0.4-1.7,0.6c-2.5,0.8-6.4,2-7.6,4.8c-0.6,1.5-0.4,3.3,0.6,5.4c0,0,0,0,0,0.1c0.3,0.8,8.1,18.4,25.4,21.3
			c0.7,0.1,1.3,0.8,1.2,1.5c0,0.3-0.1,0.5-0.2,0.8c-1.1,2.5-6.4,4.5-15.4,5.9c-0.8,0.1-1.2,1.5-1.7,3.7c-0.2,0.9-0.4,1.8-0.7,2.8
			c-0.3,0.9-0.8,1.3-1.8,1.3h-0.1c-0.6,0-1.5-0.1-2.6-0.3c-1.9-0.4-4-0.7-6.8-0.7c-1.6,0-3.2,0.1-4.9,0.4c-3.4,0.6-6.2,2.6-9.3,4.7
			C134,172.6,129.2,176,122.1,176"/>
		<path class="st2" d="M121.5,65.1c4.6,0,20.6,1.2,28.1,18.1c2.5,5.5,1.8,15.6,1.3,23.7c-0.1,1.3-0.2,2.5-0.2,3.7l0,0.5l0.3,0.4
			c0.1,0.2,1.4,1.5,4.3,1.6l0,0h0c1.9-0.1,4-0.7,6.3-1.7c0.3-0.2,0.8-0.2,1.3-0.2c0.5,0,1.1,0.1,1.6,0.3l0.1,0
			c1.2,0.4,2.1,1.2,2.1,2c0,0.4-0.3,1.9-4.6,3.6c-0.4,0.2-1,0.3-1.6,0.5c-2.8,0.9-7,2.2-8.5,5.6c-0.8,1.9-0.6,4.1,0.7,6.6
			c0.5,1.2,8.5,19.2,26.5,22.1c0,0.1,0,0.2-0.1,0.3c-0.3,0.7-2.2,3.2-14.3,5.1c-1.9,0.3-2.3,2.4-2.9,4.9c-0.2,0.9-0.4,1.8-0.7,2.7
			c-0.1,0.3-0.1,0.3-0.4,0.3h-0.1c-0.5,0-1.3-0.1-2.3-0.3c-1.7-0.3-4.1-0.7-7-0.7c-1.7,0-3.4,0.1-5.1,0.4c-3.7,0.6-6.7,2.7-9.9,5
			c-4.3,3-8.7,6.1-15.4,6.1c-0.3,0-0.6,0-0.9,0l-0.1,0l-0.1,0c-0.2,0-0.3,0-0.5,0c-6.7,0-11.1-3.1-15.4-6.1c-3.2-2.2-6.2-4.4-9.9-5
			c-1.7-0.3-3.4-0.4-5.1-0.4c-3,0-5.3,0.5-7,0.8c-0.9,0.2-1.8,0.3-2.3,0.3c-0.4,0-0.4,0-0.5-0.3c-0.3-0.9-0.5-1.8-0.7-2.7
			c-0.5-2.5-1-4.6-2.9-4.9c-12-1.9-14-4.3-14.3-5.1c0-0.1-0.1-0.2-0.1-0.3c18-3,26-21,26.5-22.1c1.2-2.5,1.5-4.7,0.6-6.6
			c-1.4-3.4-5.6-4.7-8.4-5.6c-0.6-0.2-1.2-0.4-1.6-0.5c-3.6-1.4-4.7-2.9-4.6-3.8c0.2-1,1.9-2,3.5-2c0.3,0,0.6,0.1,0.9,0.2
			c2.5,1.2,4.7,1.8,6.7,1.8c3.1,0,4.5-1.5,4.7-1.6l0.3-0.4l0-0.5c-0.1-1.2-0.1-2.4-0.2-3.7c-0.5-8.1-1.1-18.1,1.3-23.7
			c7.5-16.8,23.4-18.1,28-18.1c0.1,0,2.2,0,2.2,0C121.3,65.1,121.4,65.1,121.5,65.1 M121.5,62.2L121.5,62.2c-0.1,0-0.2,0-0.3,0
			c-0.8,0-2,0-2.1,0c-2.7,0-8.2,0.4-14.1,3c-3.4,1.5-6.4,3.5-9,6c-3.1,3-5.6,6.6-7.5,10.8c-2.8,6.2-2.1,16.6-1.6,25l0,0
			c0.1,0.9,0.1,1.8,0.2,2.8c-0.4,0.2-1.1,0.4-2,0.4c-1.6,0-3.4-0.5-5.5-1.5c-0.6-0.3-1.3-0.4-2.1-0.4c-1.2,0-2.6,0.4-3.7,1
			c-1.4,0.8-2.4,2-2.6,3.4c-0.2,0.9-0.2,2.6,1.8,4.3c1.1,1,2.6,1.9,4.6,2.6c0.5,0.2,1.1,0.4,1.8,0.6c2.3,0.7,5.8,1.8,6.7,4
			c0.5,1.1,0.3,2.5-0.6,4.2c0,0,0,0.1-0.1,0.1c-0.2,0.5-2.2,5-6.2,9.7c-2.3,2.7-4.8,4.9-7.5,6.6c-3.3,2.1-6.8,3.5-10.5,4.1
			c-1.5,0.2-2.5,1.5-2.4,3c0,0.4,0.1,0.8,0.3,1.3c0,0,0,0,0,0c0.6,1.4,2,2.6,4.2,3.6c2.7,1.3,6.8,2.3,12.1,3.2
			c0.3,0.5,0.5,1.8,0.7,2.7c0.2,0.9,0.4,1.9,0.7,2.9c0.3,1.1,1.2,2.4,3.3,2.4c0.8,0,1.8-0.2,2.8-0.4c1.6-0.3,3.8-0.7,6.5-0.7
			c1.5,0,3.1,0.1,4.6,0.4c3,0.5,5.6,2.3,8.7,4.5c4.4,3.1,9.4,6.7,17.1,6.7c0.2,0,0.4,0,0.6,0c0.3,0,0.6,0,0.9,0
			c7.7,0,12.7-3.5,17.1-6.7l0,0c3-2.1,5.6-4,8.7-4.5c1.6-0.3,3.1-0.4,4.6-0.4c2.6,0,4.6,0.3,6.5,0.7c1.2,0.2,2.1,0.3,2.8,0.3h0.1
			h0.1c1.6,0,2.7-0.9,3.2-2.4c0.3-1,0.5-1.9,0.7-2.9c0.2-0.8,0.5-2.1,0.7-2.7c5.3-0.8,9.4-1.9,12.1-3.2c2.2-1,3.6-2.2,4.2-3.6
			c0.2-0.4,0.3-0.8,0.3-1.3c0.1-1.5-1-2.8-2.4-3c-16.5-2.7-24-19.7-24.3-20.4c0,0,0-0.1-0.1-0.1c-0.8-1.7-1-3.1-0.6-4.2
			c0.9-2.1,4.4-3.2,6.7-4c0.7-0.2,1.3-0.4,1.8-0.6c2.3-0.9,3.9-1.9,4.9-3c1.3-1.3,1.5-2.6,1.5-3.4c0-2-1.6-3.7-4-4.6
			c-0.8-0.3-1.7-0.5-2.7-0.5c-0.6,0-1.6,0.1-2.5,0.5c-1.9,0.9-3.7,1.4-5.2,1.5c-0.8,0-1.3-0.2-1.7-0.4c0-0.8,0.1-1.6,0.1-2.4l0-0.4
			c0.5-8.4,1.2-18.8-1.6-25c-1.9-4.2-4.4-7.9-7.6-10.9c-2.6-2.5-5.7-4.5-9-6C129.8,62.6,124.3,62.2,121.5,62.2"/>
	</g>
</g>
</svg>
