<?xml version="1.0" encoding="utf-8"?>
<!-- Generator: Adobe Illustrator 19.1.0, SVG Export Plug-In . SVG Version: 6.00 Build 0)  -->
<svg version="1.1" id="Layer_1" xmlns="http://www.w3.org/2000/svg" xmlns:xlink="http://www.w3.org/1999/xlink" x="0px" y="0px"
	 viewBox="0 0 240.7 240.7" style="enable-background:new 0 0 240.7 240.7;" xml:space="preserve">
<style type="text/css">
	.st0{fill:#2CA9E0;stroke:#FFFFFF;stroke-width:6;stroke-miterlimit:10;}
	.st1{fill:#FFFFFF;}
</style>
<g>
	<path class="st0" d="M237.7,120.3c0,64.8-52.5,117.3-117.3,117.3S3,185.1,3,120.3C3,55.5,55.5,3,120.3,3S237.7,55.5,237.7,120.3"/>
	<path class="st1" d="M175.7,86c-4.1,1.8-8.5,3-13.1,3.6c4.7-2.8,8.3-7.3,10-12.6c-4.4,2.6-9.3,4.5-14.4,5.5
		c-4.1-4.4-10.1-7.2-16.6-7.2c-12.5,0-22.7,10.2-22.7,22.7c0,1.8,0.2,3.5,0.6,5.2c-18.9-0.9-35.6-10-46.8-23.7
		c-2,3.3-3.1,7.3-3.1,11.4c0,7.9,4,14.8,10.1,18.9c-3.7-0.1-7.2-1.1-10.3-2.8v0.3c0,11,7.8,20.2,18.2,22.3c-1.9,0.5-3.9,0.8-6,0.8
		c-1.5,0-2.9-0.1-4.3-0.4c2.9,9,11.3,15.6,21.2,15.8c-7.8,6.1-17.6,9.7-28.2,9.7c-1.8,0-3.6-0.1-5.4-0.3c10.1,6.4,22,10.2,34.8,10.2
		c41.8,0,64.6-34.6,64.6-64.7c0-1,0-2-0.1-2.9C168.8,94.5,172.7,90.6,175.7,86"/>
</g>
</svg>
