<?xml version="1.0" encoding="utf-8"?>
<!-- Generator: Adobe Illustrator 19.1.0, SVG Export Plug-In . SVG Version: 6.00 Build 0)  -->
<svg version="1.1" id="Layer_1" xmlns="http://www.w3.org/2000/svg" xmlns:xlink="http://www.w3.org/1999/xlink" x="0px" y="0px"
	 viewBox="0 0 240.7 240.7" style="enable-background:new 0 0 240.7 240.7;" xml:space="preserve">
<style type="text/css">
	.st0{fill:#7E549B;stroke:#FFFFFF;stroke-width:6;stroke-miterlimit:10;}
	.st1{fill-rule:evenodd;clip-rule:evenodd;fill:#FFFFFF;}
</style>
<g>
	<path class="st0" d="M237.7,120.3c0,64.8-52.5,117.3-117.3,117.3S3,185.1,3,120.3C3,55.5,55.5,3,120.3,3S237.7,55.5,237.7,120.3"/>
	<g>
		<path class="st1" d="M177.4,85.5c-4.3-13.3-14-19.9-28.7-24.7c-9.7-3.2-21.9-3.6-30.5-3.6c-8.6,0-20.4,1.4-28.7,4.3
			c-8.2,2.9-16.8,7.5-21.1,14.3c-4.3,6.8-6.8,17.2-7.2,24c-0.4,6.8-2.1,25.8,2.5,39.4c4.7,13.6,13.6,21.1,24.4,25.1
			c1.1,0.4,1.3,11.9,1.8,15.1c0.7,4.7,3.9,3.9,3.9,3.9c3.2,0,3.9-1.4,9.3-7.2c5.4-5.7,7.2-7.5,7.2-7.5s28.7,1.8,44.1-5
			c15.4-6.8,20.4-15.8,22.9-25.5C179.9,128.6,181.7,98.8,177.4,85.5 M169.5,130c-1.4,7.9-4.3,18.6-17.2,24.4
			c-12.9,5.7-40.5,4.7-40.5,4.7s-17.9,20.8-18.3,20.1c-0.4-0.7-0.7-22.6-0.7-22.6s-13.6-5-19.4-18.6c-4.8-11.4-3.6-36.9-1.8-43.7
			c1.8-6.8,6.1-17.9,18.3-22.9c12.2-5,35.1-3.9,47.3-3.2c12.2,0.7,25.1,8.2,30.1,17.6C172.4,94.9,171,122.1,169.5,130"/>
		<path class="st1" d="M148.3,126.3c-1.9-1.5-3.9-2.8-5.8-4.2c-3.9-2.8-7.5-3-10.4,1.5c-1.6,2.5-3.9,2.6-6.3,1.5
			c-6.6-3-11.7-7.6-14.7-14.4c-1.3-3-1.3-5.6,1.8-7.8c1.6-1.1,3.3-2.4,3.2-4.9c-0.2-3.2-7.9-13.8-10.9-14.9c-1.3-0.5-2.5-0.4-3.8,0
			c-7.1,2.4-10.1,8.3-7.3,15.2c8.4,20.7,23.3,35.1,43.7,43.9c1.2,0.5,2.5,0.7,3.1,0.9c4.7,0,10.1-4.4,11.7-8.9
			C154.1,130.1,150.9,128.4,148.3,126.3"/>
		<path class="st1" d="M125.4,85.3c14.9,2.3,21.8,9.4,23.7,24.5c0.2,1.4-0.3,3.5,1.6,3.5c2.1,0,1.6-2,1.6-3.4
			c0.2-14.2-12.2-27.3-26.5-27.8c-1.1,0.2-3.3-0.7-3.5,1.7C122.3,85.4,124.2,85.1,125.4,85.3"/>
		<path class="st1" d="M128.3,89.5c-1.4-0.2-3.3-0.8-3.7,1.1c-0.3,2.1,1.8,1.9,3.1,2.2c9.2,2.1,12.4,5.4,14,14.6
			c0.2,1.3-0.2,3.4,2,3.1c1.7-0.3,1.1-2,1.2-3.1C145.1,98.6,137.6,90.6,128.3,89.5"/>
		<path class="st1" d="M129.2,96.6c-1,0-1.9,0.1-2.3,1.2c-0.5,1.5,0.6,1.9,1.7,2.1c3.8,0.6,5.8,2.8,6.2,6.6c0.1,1,0.8,1.9,1.7,1.7
			c1.4-0.2,1.5-1.4,1.5-2.5C138.1,101.4,133.3,96.5,129.2,96.6"/>
	</g>
</g>
</svg>
