<?xml version="1.0" encoding="utf-8"?>
<!-- Generator: Adobe Illustrator 19.1.0, SVG Export Plug-In . SVG Version: 6.00 Build 0)  -->
<svg version="1.1" id="Layer_1" xmlns="http://www.w3.org/2000/svg" xmlns:xlink="http://www.w3.org/1999/xlink" x="0px" y="0px"
	 viewBox="0 0 240.7 240.7" style="enable-background:new 0 0 240.7 240.7;" xml:space="preserve">
<style type="text/css">
	.st0{fill:#60B246;stroke:#FFFFFF;stroke-width:6;stroke-miterlimit:10;}
	.st1{fill:#FFFFFF;}
</style>
<g>
	<path class="st0" d="M237.7,120.3c0,64.8-52.5,117.3-117.3,117.3S3,185.1,3,120.3C3,55.5,55.5,3,120.3,3S237.7,55.5,237.7,120.3"/>
	<path class="st1" d="M193.4,138.2c0-20.8-19.9-37.6-44.4-37.6s-44.4,16.9-44.4,37.6s19.9,37.6,44.4,37.6c6.1,0,11.9-1,17.2-2.9
		l13.6,7.5l-4.1-12.1C186.4,161.4,193.4,150.5,193.4,138.2 M134.9,131c-3,0-5.3-2.4-5.3-5.3c0-3,2.4-5.3,5.3-5.3
		c3,0,5.3,2.4,5.3,5.3C140.3,128.6,137.9,131,134.9,131 M163.7,131c-3,0-5.3-2.4-5.3-5.3c0-3,2.4-5.3,5.3-5.3c3,0,5.3,2.4,5.3,5.3
		C169.1,128.6,166.7,131,163.7,131 M147.7,98.5c1.9,0,3.8,0.1,5.6,0.3c-3.5-21.8-25.8-38.6-52.7-38.6c-29.4,0-53.3,20-53.3,44.6
		c0,14.8,8.6,27.8,21.8,35.9l-5.3,14.4l18.9-8.4c5.6,1.7,11.6,2.6,17.9,2.6c1.3,0,2.6-0.1,3.8-0.2c-1.5-3.8-2.3-7.9-2.3-12.2
		C102.1,115.8,122.5,98.5,147.7,98.5 M118.9,82.5c3.9,0,7,3.1,7,7c0,3.9-3.1,7-7,7c-3.9,0-7-3.1-7-7C111.9,85.6,115,82.5,118.9,82.5
		 M83.5,96.5c-3.9,0-7-3.1-7-7c0-3.9,3.1-7,7-7c3.9,0,7,3.1,7,7C90.5,93.3,87.4,96.5,83.5,96.5"/>
</g>
</svg>
