<?xml version="1.0" encoding="utf-8"?>
<!-- Generator: Adobe Illustrator 19.1.0, SVG Export Plug-In . SVG Version: 6.00 Build 0)  -->
<svg version="1.1" id="Layer_1" xmlns="http://www.w3.org/2000/svg" xmlns:xlink="http://www.w3.org/1999/xlink" x="0px" y="0px"
	 viewBox="0 0 241.7 241.7" style="enable-background:new 0 0 241.7 241.7;" xml:space="preserve">
<style type="text/css">
	.st0{fill:#2FB34A;stroke:#FFFFFF;stroke-width:6;stroke-miterlimit:10;}
	.st1{fill:#FFFFFF;}
</style>
<g>
	<path class="st0" d="M238.5,120.6c0,64.8-52.5,117.3-117.3,117.3S3.9,185.4,3.9,120.6C3.9,55.8,56.4,3.3,121.2,3.3
		S238.5,55.8,238.5,120.6"/>
	<g>
		<path class="st1" d="M153.3,132.3c-1.7-0.8-9.8-4.8-11.3-5.3c-1.5-0.5-2.6-0.8-3.7,0.8c-1.1,1.6-4.3,5.3-5.2,6.4
			c-1,1.1-1.9,1.2-3.6,0.4c-1.6-0.8-7-2.6-13.3-8.1c-4.9-4.3-8.2-9.7-9.2-11.3c-1-1.6-0.1-2.5,0.7-3.3c0.7-0.7,1.7-1.9,2.5-2.9
			c0.8-1,1.1-1.6,1.7-2.7c0.6-1.1,0.3-2.1-0.1-2.9c-0.4-0.8-3.7-8.9-5.1-12.1c-1.4-3.3-2.8-2.7-3.7-2.7c-1,0-2.1-0.1-3.2-0.1
			c-1.1,0-2.9,0.4-4.4,2c-1.5,1.6-5.8,5.6-5.8,13.7c0,8.1,5.9,15.9,6.7,16.9c0.8,1.1,11.4,18.2,28.2,24.7
			c16.8,6.6,16.8,4.4,19.8,4.1c3-0.3,9.8-4,11.1-7.8c1.4-3.8,1.4-7.1,1-7.8C156,133.6,154.9,133.2,153.3,132.3"/>
		<path class="st1" d="M122.4,52C85.3,52,55.1,82,55.1,118.8c0,12.6,3.5,24.4,9.7,34.5l-12.2,35.8l37.3-11.8
			c9.7,5.3,20.7,8.3,32.5,8.3c37.2,0,67.3-29.9,67.3-66.8C189.8,82,159.6,52,122.4,52 M122.4,175c-11.5,0-22.2-3.4-31.1-9.3
			l-21.8,6.9l7.1-20.9c-6.8-9.3-10.8-20.6-10.8-32.9c0-31,25.4-56.2,56.6-56.2c31.2,0,56.6,25.2,56.6,56.2
			C179.1,149.8,153.7,175,122.4,175"/>
	</g>
</g>
</svg>
